UbuntuMono-Italic.ufo
<glyph name="exclam" format="2">
  <advance width="560"/>
  <unicode hex="0021"/>
  <outline>
    <contour>
      <point x="236" y="231" type="curve"/>
      <point x="285" y="231" type="line"/>
      <point x="314" y="322"/>
      <point x="339" y="393"/>
      <point x="367" y="505" type="curve" smooth="yes"/>
      <point x="412" y="693" type="line"/>
      <point x="330" y="693" type="line"/>
      <point x="284" y="502" type="line" smooth="yes"/>
      <point x="255" y="385"/>
      <point x="248" y="317"/>
    </contour>
    <contour>
      <point x="216" y="-13" type="curve" smooth="yes"/>
      <point x="252" y="-13"/>
      <point x="290" y="15"/>
      <point x="290" y="65" type="curve" smooth="yes"/>
      <point x="290" y="106"/>
      <point x="261" y="129"/>
      <point x="226" y="129" type="curve" smooth="yes"/>
      <point x="187" y="129"/>
      <point x="155" y="101"/>
      <point x="155" y="49" type="curve" smooth="yes"/>
      <point x="155" y="7"/>
      <point x="180" y="-13"/>
    </contour>
  </outline>
</glyph>
<glyph name="quotedbl" format="2">
  <advance width="560"/>
  <unicode hex="0022"/>
  <outline>
    <contour>
      <point x="258" y="493" type="curve"/>
      <point x="295" y="493" type="line"/>
      <point x="323" y="560"/>
      <point x="350" y="652"/>
      <point x="366" y="716" type="curve" smooth="yes"/>
      <point x="376" y="760" type="line"/>
      <point x="308" y="760" type="line"/>
      <point x="296" y="712" type="line" smooth="yes"/>
      <point x="281" y="648"/>
      <point x="264" y="560"/>
    </contour>
    <contour>
      <point x="432" y="493" type="curve"/>
      <point x="470" y="493" type="line"/>
      <point x="495" y="560"/>
      <point x="522" y="652"/>
      <point x="538" y="716" type="curve" smooth="yes"/>
      <point x="549" y="760" type="line"/>
      <point x="481" y="760" type="line"/>
      <point x="469" y="712" type="line" smooth="yes"/>
      <point x="454" y="648"/>
      <point x="439" y="560"/>
    </contour>
  </outline>
</glyph>
<glyph name="numbersign" format="2">
  <advance width="560"/>
  <unicode hex="0023"/>
  <outline>
    <contour>
      <point x="6" y="0" type="line"/>
      <point x="80" y="0" type="line"/>
      <point x="162" y="187" type="line"/>
      <point x="297" y="187" type="line"/>
      <point x="213" y="0" type="line"/>
      <point x="289" y="0" type="line"/>
      <point x="372" y="187" type="line"/>
      <point x="509" y="187" type="line"/>
      <point x="525" y="251" type="line"/>
      <point x="400" y="251" type="line"/>
      <point x="485" y="444" type="line"/>
      <point x="573" y="444" type="line"/>
      <point x="588" y="506" type="line"/>
      <point x="515" y="506" type="line"/>
      <point x="595" y="693" type="line"/>
      <point x="520" y="693" type="line"/>
      <point x="439" y="506" type="line"/>
      <point x="307" y="506" type="line"/>
      <point x="386" y="693" type="line"/>
      <point x="311" y="693" type="line"/>
      <point x="231" y="506" type="line"/>
      <point x="90" y="506" type="line"/>
      <point x="75" y="444" type="line"/>
      <point x="199" y="444" type="line"/>
      <point x="115" y="251" type="line"/>
      <point x="29" y="251" type="line"/>
      <point x="15" y="187" type="line"/>
      <point x="87" y="187" type="line"/>
    </contour>
    <contour>
      <point x="191" y="251" type="line"/>
      <point x="276" y="444" type="line"/>
      <point x="408" y="444" type="line"/>
      <point x="323" y="251" type="line"/>
    </contour>
  </outline>
</glyph>
<glyph name="dollar" format="2">
  <advance width="560"/>
  <unicode hex="0024"/>
  <outline>
    <contour>
      <point x="204" y="-109" type="line"/>
      <point x="286" y="-109" type="line"/>
      <point x="315" y="20" type="line"/>
      <point x="439" y="32"/>
      <point x="524" y="100"/>
      <point x="524" y="216" type="curve" smooth="yes"/>
      <point x="524" y="310"/>
      <point x="461" y="348"/>
      <point x="388" y="380" type="curve" smooth="yes"/>
      <point x="320" y="412"/>
      <point x="287" y="435"/>
      <point x="287" y="489" type="curve" smooth="yes"/>
      <point x="287" y="557"/>
      <point x="351" y="586"/>
      <point x="428" y="586" type="curve" smooth="yes"/>
      <point x="492" y="586"/>
      <point x="535" y="568"/>
      <point x="558" y="552" type="curve"/>
      <point x="600" y="622" type="line"/>
      <point x="576" y="637"/>
      <point x="528" y="659"/>
      <point x="470" y="664" type="curve"/>
      <point x="497" y="776" type="line"/>
      <point x="416" y="776" type="line"/>
      <point x="389" y="662" type="line"/>
      <point x="262" y="646"/>
      <point x="196" y="577"/>
      <point x="196" y="482" type="curve" smooth="yes"/>
      <point x="196" y="386"/>
      <point x="258" y="348"/>
      <point x="316" y="321" type="curve" smooth="yes"/>
      <point x="383" y="289"/>
      <point x="432" y="268"/>
      <point x="432" y="208" type="curve" smooth="yes"/>
      <point x="432" y="123"/>
      <point x="351" y="99"/>
      <point x="273" y="99" type="curve" smooth="yes"/>
      <point x="196" y="99"/>
      <point x="147" y="127"/>
      <point x="123" y="141" type="curve"/>
      <point x="78" y="67" type="line"/>
      <point x="102" y="52"/>
      <point x="167" y="24"/>
      <point x="235" y="21" type="curve"/>
    </contour>
  </outline>
</glyph>
<glyph name="percent" format="2">
  <advance width="560"/>
  <unicode hex="0025"/>
  <outline>
    <contour>
      <point x="-35" y="0" type="line"/>
      <point x="38" y="0" type="line"/>
      <point x="632" y="693" type="line"/>
      <point x="557" y="693" type="line"/>
    </contour>
    <contour>
      <point x="371" y="-15" type="curve" smooth="yes"/>
      <point x="442" y="-15"/>
      <point x="525" y="50"/>
      <point x="525" y="216" type="curve" smooth="yes"/>
      <point x="525" y="295"/>
      <point x="493" y="333"/>
      <point x="429" y="333" type="curve" smooth="yes"/>
      <point x="316" y="333"/>
      <point x="273" y="195"/>
      <point x="273" y="105" type="curve" smooth="yes"/>
      <point x="273" y="25"/>
      <point x="307" y="-15"/>
    </contour>
    <contour>
      <point x="379" y="36" type="curve" smooth="yes"/>
      <point x="349" y="36"/>
      <point x="337" y="69"/>
      <point x="337" y="112" type="curve" smooth="yes"/>
      <point x="337" y="215"/>
      <point x="383" y="282"/>
      <point x="421" y="282" type="curve" smooth="yes"/>
      <point x="451" y="282"/>
      <point x="460" y="251"/>
      <point x="460" y="209" type="curve" smooth="yes"/>
      <point x="460" y="163"/>
      <point x="441" y="36"/>
    </contour>
    <contour>
      <point x="168" y="360" type="curve" smooth="yes"/>
      <point x="239" y="360"/>
      <point x="322" y="426"/>
      <point x="322" y="591" type="curve" smooth="yes"/>
      <point x="322" y="671"/>
      <point x="292" y="708"/>
      <point x="227" y="708" type="curve" smooth="yes"/>
      <point x="113" y="708"/>
      <point x="71" y="569"/>
      <point x="71" y="480" type="curve" smooth="yes"/>
      <point x="71" y="399"/>
      <point x="105" y="360"/>
    </contour>
    <contour>
      <point x="177" y="411" type="curve" smooth="yes"/>
      <point x="147" y="411"/>
      <point x="135" y="443"/>
      <point x="135" y="487" type="curve" smooth="yes"/>
      <point x="135" y="590"/>
      <point x="181" y="658"/>
      <point x="219" y="658" type="curve" smooth="yes"/>
      <point x="247" y="658"/>
      <point x="259" y="625"/>
      <point x="259" y="585" type="curve" smooth="yes"/>
      <point x="259" y="537"/>
      <point x="239" y="411"/>
    </contour>
  </outline>
</glyph>
<glyph name="ampersand" format="2">
  <advance width="560"/>
  <unicode hex="0026"/>
  <outline>
    <contour>
      <point x="165" y="-9" type="curve" smooth="yes"/>
      <point x="228" y="-9"/>
      <point x="294" y="18"/>
      <point x="353" y="77" type="curve"/>
      <point x="361" y="52"/>
      <point x="369" y="25"/>
      <point x="375" y="0" type="curve"/>
      <point x="462" y="0" type="line"/>
      <point x="444" y="59"/>
      <point x="427" y="107"/>
      <point x="407" y="149" type="curve"/>
      <point x="442" y="207"/>
      <point x="469" y="280"/>
      <point x="497" y="364" type="curve"/>
      <point x="426" y="373" type="line"/>
      <point x="410" y="312"/>
      <point x="391" y="264"/>
      <point x="371" y="220" type="curve"/>
      <point x="353" y="252"/>
      <point x="336" y="280"/>
      <point x="284" y="364" type="curve"/>
      <point x="298" y="369" type="line" smooth="yes"/>
      <point x="425" y="431"/>
      <point x="472" y="526"/>
      <point x="472" y="599" type="curve" smooth="yes"/>
      <point x="472" y="676"/>
      <point x="414" y="709"/>
      <point x="357" y="709" type="curve" smooth="yes"/>
      <point x="254" y="709"/>
      <point x="154" y="635"/>
      <point x="154" y="505" type="curve" smooth="yes"/>
      <point x="154" y="463"/>
      <point x="168" y="423"/>
      <point x="191" y="380" type="curve"/>
      <point x="166" y="363" type="line" smooth="yes"/>
      <point x="56" y="297"/>
      <point x="26" y="201"/>
      <point x="26" y="136" type="curve" smooth="yes"/>
      <point x="26" y="55"/>
      <point x="86" y="-9"/>
    </contour>
    <contour>
      <point x="193" y="61" type="curve" smooth="yes"/>
      <point x="138" y="61"/>
      <point x="113" y="98"/>
      <point x="113" y="147" type="curve" smooth="yes"/>
      <point x="113" y="217"/>
      <point x="131" y="273"/>
      <point x="212" y="323" type="curve" smooth="yes"/>
      <point x="221" y="328" type="line"/>
      <point x="254" y="275"/>
      <point x="292" y="219"/>
      <point x="327" y="143" type="curve"/>
      <point x="281" y="86"/>
      <point x="236" y="61"/>
    </contour>
    <contour>
      <point x="256" y="415" type="line"/>
      <point x="238" y="449"/>
      <point x="233" y="474"/>
      <point x="233" y="502" type="curve" smooth="yes"/>
      <point x="233" y="602"/>
      <point x="286" y="645"/>
      <point x="334" y="645" type="curve" smooth="yes"/>
      <point x="364" y="645"/>
      <point x="395" y="628"/>
      <point x="395" y="593" type="curve" smooth="yes"/>
      <point x="395" y="538"/>
      <point x="351" y="463"/>
      <point x="277" y="423" type="curve" smooth="yes"/>
    </contour>
  </outline>
</glyph>
<glyph name="quotesingle" format="2">
  <advance width="560"/>
  <unicode hex="0027"/>
  <outline>
    <contour>
      <point x="301" y="472" type="curve"/>
      <point x="351" y="472" type="line"/>
      <point x="376" y="539"/>
      <point x="412" y="659"/>
      <point x="426" y="721" type="curve" smooth="yes"/>
      <point x="435" y="760" type="line"/>
      <point x="354" y="760" type="line"/>
      <point x="344" y="717" type="line" smooth="yes"/>
      <point x="329" y="654"/>
      <point x="307" y="539"/>
    </contour>
  </outline>
</glyph>
<glyph name="parenleft" format="2">
  <advance width="560"/>
  <unicode hex="0028"/>
  <outline>
    <contour>
      <point x="275" y="-186" type="curve"/>
      <point x="328" y="-132" type="line"/>
      <point x="240" y="-37"/>
      <point x="201" y="76"/>
      <point x="201" y="180" type="curve" smooth="yes"/>
      <point x="201" y="393"/>
      <point x="347" y="596"/>
      <point x="540" y="718" type="curve"/>
      <point x="508" y="782" type="line"/>
      <point x="275" y="643"/>
      <point x="126" y="400"/>
      <point x="126" y="176" type="curve" smooth="yes"/>
      <point x="126" y="53"/>
      <point x="166" y="-71"/>
    </contour>
  </outline>
</glyph>
<glyph name="parenright" format="2">
  <advance width="560"/>
  <unicode hex="0029"/>
  <outline>
    <contour>
      <point x="57" y="-186" type="line"/>
      <point x="290" y="-47"/>
      <point x="441" y="196"/>
      <point x="441" y="420" type="curve" smooth="yes"/>
      <point x="441" y="543"/>
      <point x="401" y="668"/>
      <point x="290" y="782" type="curve"/>
      <point x="237" y="729" type="line"/>
      <point x="325" y="634"/>
      <point x="366" y="520"/>
      <point x="366" y="416" type="curve" smooth="yes"/>
      <point x="366" y="203"/>
      <point x="219" y="0"/>
      <point x="26" y="-122" type="curve"/>
    </contour>
  </outline>
</glyph>
<glyph name="asterisk" format="2">
  <advance width="560"/>
  <unicode hex="002A"/>
  <outline>
    <contour>
      <point x="458" y="288" type="line"/>
      <point x="528" y="339" type="line"/>
      <point x="529" y="338" type="line" smooth="yes"/>
      <point x="497" y="389"/>
      <point x="452" y="429"/>
      <point x="408" y="471" type="curve"/>
      <point x="468" y="479"/>
      <point x="525" y="490"/>
      <point x="583" y="506" type="curve" smooth="yes"/>
      <point x="582" y="507" type="line"/>
      <point x="556" y="588" type="line"/>
      <point x="556" y="587" type="line" smooth="yes"/>
      <point x="500" y="566"/>
      <point x="448" y="544"/>
      <point x="395" y="515" type="curve"/>
      <point x="405" y="574"/>
      <point x="415" y="631"/>
      <point x="415" y="693" type="curve" smooth="yes"/>
      <point x="415" y="693" type="line"/>
      <point x="329" y="693" type="line"/>
      <point x="329" y="693" type="line" smooth="yes"/>
      <point x="329" y="631"/>
      <point x="339" y="574"/>
      <point x="349" y="515" type="curve"/>
      <point x="296" y="543"/>
      <point x="243" y="565"/>
      <point x="186" y="588" type="curve" smooth="yes"/>
      <point x="186" y="588" type="line"/>
      <point x="160" y="507" type="line"/>
      <point x="159" y="506" type="line" smooth="yes"/>
      <point x="217" y="487"/>
      <point x="275" y="480"/>
      <point x="334" y="470" type="curve"/>
      <point x="290" y="429"/>
      <point x="250" y="390"/>
      <point x="214" y="339" type="curve" smooth="yes"/>
      <point x="213" y="339" type="line"/>
      <point x="282" y="289" type="line"/>
      <point x="282" y="288" type="line" smooth="yes"/>
      <point x="320" y="337"/>
      <point x="345" y="390"/>
      <point x="372" y="442" type="curve"/>
      <point x="397" y="390"/>
      <point x="422" y="338"/>
      <point x="457" y="288" type="curve" smooth="yes"/>
    </contour>
  </outline>
</glyph>
<glyph name="plus" format="2">
  <advance width="560"/>
  <unicode hex="002B"/>
  <outline>
    <contour>
      <point x="239" y="50" type="line"/>
      <point x="312" y="50" type="line"/>
      <point x="364" y="260" type="line"/>
      <point x="545" y="260" type="line"/>
      <point x="561" y="329" type="line"/>
      <point x="380" y="329" type="line"/>
      <point x="432" y="539" type="line"/>
      <point x="356" y="539" type="line"/>
      <point x="305" y="329" type="line"/>
      <point x="119" y="329" type="line"/>
      <point x="102" y="260" type="line"/>
      <point x="289" y="260" type="line"/>
    </contour>
  </outline>
</glyph>
<glyph name="comma" format="2">
  <advance width="560"/>
  <unicode hex="002C"/>
  <outline>
    <contour>
      <point x="130" y="-159" type="line"/>
      <point x="289" y="-136"/>
      <point x="357" y="-18"/>
      <point x="357" y="54" type="curve" smooth="yes"/>
      <point x="357" y="107"/>
      <point x="330" y="147"/>
      <point x="284" y="147" type="curve" smooth="yes"/>
      <point x="230" y="147"/>
      <point x="199" y="109"/>
      <point x="199" y="63" type="curve" smooth="yes"/>
      <point x="199" y="31"/>
      <point x="218" y="-3"/>
      <point x="259" y="-9" type="curve"/>
      <point x="239" y="-65"/>
      <point x="169" y="-86"/>
      <point x="121" y="-90" type="curve"/>
    </contour>
  </outline>
</glyph>
<glyph name="hyphen" format="2">
  <advance width="560"/>
  <unicode hex="002D"/>
  <outline>
    <contour>
      <point x="209" y="247" type="line"/>
      <point x="439" y="247" type="line"/>
      <point x="455" y="320" type="line"/>
      <point x="227" y="320" type="line"/>
    </contour>
  </outline>
</glyph>
<glyph name="period" format="2">
  <advance width="560"/>
  <unicode hex="002E"/>
  <outline>
    <contour>
      <point x="268" y="-13" type="curve" smooth="yes"/>
      <point x="310" y="-13"/>
      <point x="354" y="22"/>
      <point x="354" y="74" type="curve" smooth="yes"/>
      <point x="354" y="123"/>
      <point x="320" y="149"/>
      <point x="281" y="149" type="curve" smooth="yes"/>
      <point x="236" y="149"/>
      <point x="199" y="118"/>
      <point x="199" y="58" type="curve" smooth="yes"/>
      <point x="199" y="11"/>
      <point x="229" y="-13"/>
    </contour>
  </outline>
</glyph>
<glyph name="slash" format="2">
  <advance width="560"/>
  <unicode hex="002F"/>
  <outline>
    <contour>
      <point x="-21" y="-185" type="line"/>
      <point x="58" y="-185" type="line"/>
      <point x="610" y="783" type="line"/>
      <point x="532" y="783" type="line"/>
    </contour>
  </outline>
</glyph>
<glyph name="zero" format="2">
  <advance width="560"/>
  <unicode hex="0030"/>
  <outline>
    <contour>
      <point x="257" y="-15" type="curve" smooth="yes"/>
      <point x="469" y="-15"/>
      <point x="583" y="300"/>
      <point x="583" y="503" type="curve" smooth="yes"/>
      <point x="583" y="642"/>
      <point x="536" y="709"/>
      <point x="424" y="709" type="curve" smooth="yes"/>
      <point x="212" y="709"/>
      <point x="98" y="394"/>
      <point x="98" y="191" type="curve" smooth="yes"/>
      <point x="98" y="52"/>
      <point x="146" y="-15"/>
    </contour>
    <contour>
      <point x="267" y="57" type="curve" smooth="yes"/>
      <point x="206" y="57"/>
      <point x="182" y="92"/>
      <point x="182" y="204" type="curve" smooth="yes"/>
      <point x="182" y="392"/>
      <point x="288" y="637"/>
      <point x="414" y="637" type="curve" smooth="yes"/>
      <point x="477" y="637"/>
      <point x="499" y="602"/>
      <point x="499" y="490" type="curve" smooth="yes"/>
      <point x="499" y="300"/>
      <point x="394" y="57"/>
    </contour>
    <contour>
      <point x="337" y="288" type="curve" smooth="yes"/>
      <point x="378" y="288"/>
      <point x="412" y="319"/>
      <point x="412" y="361" type="curve" smooth="yes"/>
      <point x="412" y="410"/>
      <point x="380" y="433"/>
      <point x="346" y="433" type="curve" smooth="yes"/>
      <point x="304" y="433"/>
      <point x="275" y="404"/>
      <point x="275" y="356" type="curve" smooth="yes"/>
      <point x="275" y="308"/>
      <point x="303" y="288"/>
    </contour>
  </outline>
</glyph>
<glyph name="one" format="2">
  <advance width="560"/>
  <unicode hex="0031"/>
  <outline>
    <contour>
      <point x="112" y="0" type="line"/>
      <point x="470" y="0" type="line"/>
      <point x="486" y="67" type="line"/>
      <point x="359" y="67" type="line"/>
      <point x="509" y="693" type="line"/>
      <point x="456" y="693" type="line"/>
      <point x="378" y="621"/>
      <point x="302" y="580"/>
      <point x="218" y="550" type="curve"/>
      <point x="228" y="484" type="line"/>
      <point x="295" y="505"/>
      <point x="369" y="542"/>
      <point x="400" y="568" type="curve"/>
      <point x="280" y="67" type="line"/>
      <point x="129" y="67" type="line"/>
    </contour>
  </outline>
</glyph>
<glyph name="two" format="2">
  <advance width="560"/>
  <unicode hex="0032"/>
  <outline>
    <contour>
      <point x="77" y="0" type="curve"/>
      <point x="482" y="0" type="line"/>
      <point x="501" y="78" type="line"/>
      <point x="199" y="78" type="line"/>
      <point x="220" y="142"/>
      <point x="309" y="211"/>
      <point x="376" y="261" type="curve" smooth="yes"/>
      <point x="491" y="346"/>
      <point x="587" y="411"/>
      <point x="587" y="552" type="curve" smooth="yes"/>
      <point x="587" y="631"/>
      <point x="536" y="709"/>
      <point x="407" y="709" type="curve" smooth="yes"/>
      <point x="321" y="709"/>
      <point x="242" y="669"/>
      <point x="205" y="634" type="curve"/>
      <point x="237" y="562" type="line"/>
      <point x="261" y="586"/>
      <point x="320" y="628"/>
      <point x="395" y="628" type="curve" smooth="yes"/>
      <point x="463" y="628"/>
      <point x="491" y="594"/>
      <point x="491" y="539" type="curve" smooth="yes"/>
      <point x="491" y="441"/>
      <point x="393" y="376"/>
      <point x="289" y="299" type="curve" smooth="yes"/>
      <point x="192" y="225"/>
      <point x="99" y="142"/>
    </contour>
  </outline>
</glyph>
<glyph name="three" format="2">
  <advance width="560"/>
  <unicode hex="0033"/>
  <outline>
    <contour>
      <point x="244" y="-15" type="curve" smooth="yes"/>
      <point x="430" y="-15"/>
      <point x="529" y="80"/>
      <point x="529" y="221" type="curve" smooth="yes"/>
      <point x="529" y="302"/>
      <point x="479" y="351"/>
      <point x="433" y="370" type="curve"/>
      <point x="521" y="404"/>
      <point x="576" y="466"/>
      <point x="576" y="554" type="curve" smooth="yes"/>
      <point x="576" y="641"/>
      <point x="523" y="709"/>
      <point x="398" y="709" type="curve" smooth="yes"/>
      <point x="329" y="709"/>
      <point x="259" y="682"/>
      <point x="224" y="659" type="curve"/>
      <point x="246" y="586" type="line"/>
      <point x="279" y="607"/>
      <point x="326" y="629"/>
      <point x="383" y="629" type="curve" smooth="yes"/>
      <point x="446" y="629"/>
      <point x="482" y="600"/>
      <point x="482" y="544" type="curve" smooth="yes"/>
      <point x="482" y="454"/>
      <point x="391" y="407"/>
      <point x="304" y="407" type="curve" smooth="yes"/>
      <point x="273" y="407" type="line"/>
      <point x="255" y="332" type="line"/>
      <point x="276" y="332" type="line" smooth="yes"/>
      <point x="372" y="332"/>
      <point x="435" y="298"/>
      <point x="435" y="220" type="curve" smooth="yes"/>
      <point x="435" y="118"/>
      <point x="355" y="67"/>
      <point x="248" y="67" type="curve" smooth="yes"/>
      <point x="168" y="67"/>
      <point x="121" y="94"/>
      <point x="102" y="105" type="curve"/>
      <point x="67" y="26" type="line"/>
      <point x="83" y="15"/>
      <point x="151" y="-15"/>
    </contour>
  </outline>
</glyph>
<glyph name="four" format="2">
  <advance width="560"/>
  <unicode hex="0034"/>
  <outline>
    <contour>
      <point x="317" y="0" type="line"/>
      <point x="397" y="0" type="line"/>
      <point x="438" y="181" type="line"/>
      <point x="521" y="181" type="line"/>
      <point x="537" y="247" type="line"/>
      <point x="453" y="247" type="line"/>
      <point x="561" y="693" type="line"/>
      <point x="484" y="693" type="line"/>
      <point x="320" y="576"/>
      <point x="141" y="361"/>
      <point x="69" y="232" type="curve"/>
      <point x="57" y="181" type="line"/>
      <point x="360" y="181" type="line"/>
    </contour>
    <contour>
      <point x="159" y="247" type="line"/>
      <point x="235" y="376"/>
      <point x="360" y="507"/>
      <point x="458" y="588" type="curve"/>
      <point x="376" y="247" type="line"/>
    </contour>
  </outline>
</glyph>
<glyph name="five" format="2">
  <advance width="560"/>
  <unicode hex="0035"/>
  <outline>
    <contour>
      <point x="229" y="-15" type="curve" smooth="yes"/>
      <point x="436" y="-15"/>
      <point x="522" y="96"/>
      <point x="522" y="229" type="curve" smooth="yes"/>
      <point x="522" y="348"/>
      <point x="443" y="403"/>
      <point x="296" y="424" type="curve"/>
      <point x="309" y="470"/>
      <point x="347" y="572"/>
      <point x="363" y="626" type="curve"/>
      <point x="600" y="626" type="line"/>
      <point x="616" y="693" type="line"/>
      <point x="304" y="693" type="line"/>
      <point x="275" y="575"/>
      <point x="240" y="487"/>
      <point x="197" y="364" type="curve"/>
      <point x="268" y="359"/>
      <point x="441" y="362"/>
      <point x="441" y="221" type="curve" smooth="yes"/>
      <point x="441" y="119"/>
      <point x="347" y="57"/>
      <point x="236" y="57" type="curve" smooth="yes"/>
      <point x="157" y="57"/>
      <point x="113" y="84"/>
      <point x="103" y="90" type="curve"/>
      <point x="71" y="22" type="line"/>
      <point x="69" y="21"/>
      <point x="140" y="-15"/>
    </contour>
  </outline>
</glyph>
<glyph name="six" format="2">
  <advance width="560"/>
  <unicode hex="0036"/>
  <outline>
    <contour>
      <point x="288" y="-15" type="curve" smooth="yes"/>
      <point x="475" y="-15"/>
      <point x="554" y="127"/>
      <point x="554" y="260" type="curve" smooth="yes"/>
      <point x="554" y="348"/>
      <point x="504" y="426"/>
      <point x="383" y="426" type="curve" smooth="yes"/>
      <point x="338" y="426"/>
      <point x="286" y="413"/>
      <point x="243" y="392" type="curve"/>
      <point x="291" y="512"/>
      <point x="412" y="617"/>
      <point x="605" y="617" type="curve"/>
      <point x="616" y="697" type="line"/>
      <point x="612" y="697"/>
      <point x="607" y="697"/>
      <point x="603" y="697" type="curve" smooth="yes"/>
      <point x="304" y="697"/>
      <point x="108" y="465"/>
      <point x="108" y="185" type="curve" smooth="yes"/>
      <point x="108" y="62"/>
      <point x="171" y="-15"/>
    </contour>
    <contour>
      <point x="301" y="60" type="curve" smooth="yes"/>
      <point x="226" y="60"/>
      <point x="199" y="110"/>
      <point x="199" y="193" type="curve" smooth="yes"/>
      <point x="199" y="228"/>
      <point x="206" y="276"/>
      <point x="220" y="318" type="curve"/>
      <point x="267" y="342"/>
      <point x="314" y="348"/>
      <point x="361" y="348" type="curve" smooth="yes"/>
      <point x="433" y="348"/>
      <point x="463" y="314"/>
      <point x="463" y="250" type="curve" smooth="yes"/>
      <point x="463" y="158"/>
      <point x="405" y="60"/>
    </contour>
  </outline>
</glyph>
<glyph name="seven" format="2">
  <advance width="560"/>
  <unicode hex="0037"/>
  <outline>
    <contour>
      <point x="156" y="0" type="curve"/>
      <point x="254" y="0" type="line"/>
      <point x="326" y="248"/>
      <point x="528" y="514"/>
      <point x="642" y="613" type="curve"/>
      <point x="661" y="693" type="line"/>
      <point x="226" y="693" type="line"/>
      <point x="208" y="615" type="line"/>
      <point x="538" y="615" type="line"/>
      <point x="400" y="493"/>
      <point x="216" y="212"/>
    </contour>
  </outline>
</glyph>
<glyph name="eight" format="2">
  <advance width="560"/>
  <unicode hex="0038"/>
  <outline>
    <contour>
      <point x="228" y="-15" type="curve" smooth="yes"/>
      <point x="406" y="-15"/>
      <point x="494" y="90"/>
      <point x="494" y="207" type="curve" smooth="yes"/>
      <point x="494" y="277"/>
      <point x="458" y="318"/>
      <point x="414" y="348" type="curve"/>
      <point x="494" y="387"/>
      <point x="560" y="457"/>
      <point x="560" y="558" type="curve" smooth="yes"/>
      <point x="560" y="628"/>
      <point x="518" y="709"/>
      <point x="390" y="709" type="curve" smooth="yes"/>
      <point x="246" y="709"/>
      <point x="151" y="606"/>
      <point x="151" y="483" type="curve" smooth="yes"/>
      <point x="151" y="433"/>
      <point x="169" y="391"/>
      <point x="212" y="361" type="curve"/>
      <point x="116" y="319"/>
      <point x="52" y="236"/>
      <point x="52" y="137" type="curve" smooth="yes"/>
      <point x="52" y="77"/>
      <point x="84" y="-15"/>
    </contour>
    <contour>
      <point x="239" y="50" type="curve" smooth="yes"/>
      <point x="151" y="50"/>
      <point x="132" y="101"/>
      <point x="132" y="153" type="curve" smooth="yes"/>
      <point x="132" y="233"/>
      <point x="209" y="303"/>
      <point x="277" y="331" type="curve"/>
      <point x="365" y="304"/>
      <point x="413" y="264"/>
      <point x="413" y="197" type="curve" smooth="yes"/>
      <point x="413" y="111"/>
      <point x="336" y="50"/>
    </contour>
    <contour>
      <point x="345" y="374" type="curve"/>
      <point x="263" y="398"/>
      <point x="232" y="435"/>
      <point x="232" y="492" type="curve" smooth="yes"/>
      <point x="232" y="580"/>
      <point x="297" y="643"/>
      <point x="381" y="643" type="curve" smooth="yes"/>
      <point x="464" y="643"/>
      <point x="478" y="589"/>
      <point x="478" y="551" type="curve" smooth="yes"/>
      <point x="478" y="460"/>
      <point x="407" y="404"/>
    </contour>
  </outline>
</glyph>
<glyph name="nine" format="2">
  <advance width="560"/>
  <unicode hex="0039"/>
  <outline>
    <contour>
      <point x="71" y="-1" type="curve" smooth="yes"/>
      <point x="366" y="-1"/>
      <point x="557" y="222"/>
      <point x="557" y="521" type="curve" smooth="yes"/>
      <point x="557" y="633"/>
      <point x="503" y="708"/>
      <point x="380" y="708" type="curve" smooth="yes"/>
      <point x="192" y="708"/>
      <point x="120" y="556"/>
      <point x="120" y="434" type="curve" smooth="yes"/>
      <point x="120" y="354"/>
      <point x="164" y="275"/>
      <point x="291" y="275" type="curve" smooth="yes"/>
      <point x="339" y="275"/>
      <point x="388" y="286"/>
      <point x="430" y="305" type="curve"/>
      <point x="348" y="111"/>
      <point x="180" y="57"/>
      <point x="65" y="70" type="curve"/>
      <point x="47" y="-1" type="line"/>
      <point x="62" y="-2"/>
      <point x="65" y="-1"/>
    </contour>
    <contour>
      <point x="304" y="345" type="curve" smooth="yes"/>
      <point x="226" y="345"/>
      <point x="201" y="381"/>
      <point x="201" y="444" type="curve" smooth="yes"/>
      <point x="201" y="535"/>
      <point x="260" y="643"/>
      <point x="374" y="643" type="curve" smooth="yes"/>
      <point x="448" y="643"/>
      <point x="477" y="595"/>
      <point x="477" y="522" type="curve" smooth="yes"/>
      <point x="477" y="472"/>
      <point x="470" y="420"/>
      <point x="456" y="376" type="curve"/>
      <point x="403" y="351"/>
      <point x="354" y="345"/>
    </contour>
  </outline>
</glyph>
<glyph name="less" format="2">
  <advance width="560"/>
  <unicode hex="003C"/>
  <outline>
    <contour>
      <point x="463" y="66" type="line"/>
      <point x="502" y="130" type="line"/>
      <point x="182" y="278" type="line"/>
      <point x="575" y="431" type="line"/>
      <point x="571" y="501" type="line"/>
      <point x="104" y="318" type="line"/>
      <point x="87" y="247" type="line"/>
    </contour>
  </outline>
</glyph>
<glyph name="equal" format="2">
  <advance width="560"/>
  <unicode hex="003D"/>
  <outline>
    <contour>
      <point x="128" y="366" type="line"/>
      <point x="571" y="366" type="line"/>
      <point x="587" y="434" type="line"/>
      <point x="144" y="434" type="line"/>
    </contour>
    <contour>
      <point x="77" y="154" type="line"/>
      <point x="520" y="154" type="line"/>
      <point x="536" y="223" type="line"/>
      <point x="94" y="223" type="line"/>
    </contour>
  </outline>
</glyph>
<glyph name="greater" format="2">
  <advance width="560"/>
  <unicode hex="003E"/>
  <outline>
    <contour>
      <point x="74" y="66" type="line"/>
      <point x="540" y="249" type="line"/>
      <point x="557" y="320" type="line"/>
      <point x="181" y="501" type="line"/>
      <point x="143" y="438" type="line"/>
      <point x="462" y="289" type="line"/>
      <point x="69" y="136" type="line"/>
    </contour>
  </outline>
</glyph>
<glyph name="question" format="2">
  <advance width="560"/>
  <unicode hex="003F"/>
  <outline>
    <contour>
      <point x="261" y="231" type="curve"/>
      <point x="330" y="231" type="line"/>
      <point x="337" y="287"/>
      <point x="387" y="331"/>
      <point x="427" y="366" type="curve" smooth="yes"/>
      <point x="494" y="420"/>
      <point x="576" y="475"/>
      <point x="576" y="575" type="curve" smooth="yes"/>
      <point x="576" y="685"/>
      <point x="484" y="709"/>
      <point x="413" y="709" type="curve" smooth="yes"/>
      <point x="359" y="709"/>
      <point x="302" y="694"/>
      <point x="274" y="679" type="curve"/>
      <point x="281" y="619" type="line"/>
      <point x="326" y="639"/>
      <point x="365" y="645"/>
      <point x="408" y="645" type="curve" smooth="yes"/>
      <point x="475" y="645"/>
      <point x="501" y="611"/>
      <point x="501" y="567" type="curve" smooth="yes"/>
      <point x="501" y="505"/>
      <point x="443" y="453"/>
      <point x="393" y="413" type="curve" smooth="yes"/>
      <point x="341" y="364"/>
      <point x="266" y="312"/>
    </contour>
    <contour>
      <point x="247" y="-13" type="curve" smooth="yes"/>
      <point x="283" y="-13"/>
      <point x="321" y="15"/>
      <point x="321" y="65" type="curve" smooth="yes"/>
      <point x="321" y="106"/>
      <point x="293" y="129"/>
      <point x="257" y="129" type="curve" smooth="yes"/>
      <point x="219" y="129"/>
      <point x="186" y="101"/>
      <point x="186" y="49" type="curve" smooth="yes"/>
      <point x="186" y="7"/>
      <point x="212" y="-13"/>
    </contour>
  </outline>
</glyph>
<glyph name="at" format="2">
  <advance width="560"/>
  <unicode hex="0040"/>
  <outline>
    <contour>
      <point x="272" y="-148" type="curve" smooth="yes"/>
      <point x="297" y="-148"/>
      <point x="325" y="-144"/>
      <point x="357" y="-136" type="curve"/>
      <point x="365" y="-66" type="line"/>
      <point x="328" y="-77"/>
      <point x="303" y="-79"/>
      <point x="290" y="-79" type="curve" smooth="yes"/>
      <point x="167" y="-79"/>
      <point x="121" y="46"/>
      <point x="121" y="170" type="curve" smooth="yes"/>
      <point x="121" y="354"/>
      <point x="238" y="638"/>
      <point x="407" y="638" type="curve" smooth="yes"/>
      <point x="483" y="638"/>
      <point x="507" y="592"/>
      <point x="507" y="533" type="curve" smooth="yes"/>
      <point x="507" y="515"/>
      <point x="505" y="497"/>
      <point x="500" y="477" type="curve"/>
      <point x="487" y="477"/>
      <point x="479" y="478"/>
      <point x="474" y="478" type="curve" smooth="yes"/>
      <point x="286" y="478"/>
      <point x="206" y="354"/>
      <point x="206" y="217" type="curve" smooth="yes"/>
      <point x="206" y="97"/>
      <point x="288" y="51"/>
      <point x="374" y="51" type="curve" smooth="yes"/>
      <point x="409" y="51"/>
      <point x="447" y="58"/>
      <point x="481" y="74" type="curve"/>
      <point x="575" y="462" type="line" smooth="yes"/>
      <point x="581" y="489"/>
      <point x="584" y="513"/>
      <point x="584" y="538" type="curve" smooth="yes"/>
      <point x="584" y="638"/>
      <point x="529" y="710"/>
      <point x="413" y="710" type="curve" smooth="yes"/>
      <point x="182" y="710"/>
      <point x="40" y="397"/>
      <point x="40" y="174" type="curve" smooth="yes"/>
      <point x="40" y="4"/>
      <point x="106" y="-148"/>
    </contour>
    <contour>
      <point x="372" y="114" type="curve" smooth="yes"/>
      <point x="317" y="114"/>
      <point x="286" y="152"/>
      <point x="286" y="218" type="curve" smooth="yes"/>
      <point x="286" y="325"/>
      <point x="340" y="414"/>
      <point x="442" y="414" type="curve" smooth="yes"/>
      <point x="454" y="414"/>
      <point x="467" y="411"/>
      <point x="483" y="407" type="curve"/>
      <point x="414" y="121" type="line"/>
      <point x="397" y="115"/>
      <point x="385" y="114"/>
    </contour>
  </outline>
</glyph>
<glyph name="A" format="2">
  <advance width="560"/>
  <unicode hex="0041"/>
  <outline>
    <contour>
      <point x="-17" y="0" type="curve"/>
      <point x="62" y="0" type="line"/>
      <point x="91" y="61"/>
      <point x="123" y="124"/>
      <point x="153" y="187" type="curve"/>
      <point x="439" y="187" type="line"/>
      <point x="440" y="125"/>
      <point x="439" y="62"/>
      <point x="440" y="0" type="curve"/>
      <point x="523" y="0" type="line"/>
      <point x="516" y="176"/>
      <point x="507" y="466"/>
      <point x="470" y="693" type="curve"/>
      <point x="371" y="693" type="line"/>
      <point x="221" y="460"/>
      <point x="75" y="173"/>
    </contour>
    <contour>
      <point x="188" y="254" type="line"/>
      <point x="255" y="378"/>
      <point x="341" y="530"/>
      <point x="402" y="628" type="curve"/>
      <point x="416" y="535"/>
      <point x="430" y="381"/>
      <point x="435" y="254" type="curve"/>
    </contour>
  </outline>
</glyph>
<glyph name="B" format="2">
  <advance width="560"/>
  <unicode hex="0042"/>
  <outline>
    <contour>
      <point x="209" y="-5" type="curve" smooth="yes"/>
      <point x="421" y="-5"/>
      <point x="540" y="82"/>
      <point x="540" y="240" type="curve" smooth="yes"/>
      <point x="540" y="301"/>
      <point x="490" y="356"/>
      <point x="440" y="365" type="curve"/>
      <point x="538" y="403"/>
      <point x="582" y="473"/>
      <point x="582" y="565" type="curve" smooth="yes"/>
      <point x="582" y="661"/>
      <point x="500" y="700"/>
      <point x="381" y="700" type="curve" smooth="yes"/>
      <point x="333" y="700"/>
      <point x="258" y="696"/>
      <point x="213" y="684" type="curve"/>
      <point x="52" y="10" type="line"/>
      <point x="89" y="0"/>
      <point x="161" y="-5"/>
    </contour>
    <contour>
      <point x="226" y="61" type="curve" smooth="yes"/>
      <point x="176" y="61"/>
      <point x="140" y="64"/>
      <point x="142" y="65" type="curve"/>
      <point x="206" y="330" type="line"/>
      <point x="307" y="330" type="line" smooth="yes"/>
      <point x="394" y="330"/>
      <point x="459" y="306"/>
      <point x="459" y="234" type="curve" smooth="yes"/>
      <point x="459" y="94"/>
      <point x="339" y="61"/>
    </contour>
    <contour>
      <point x="221" y="395" type="line"/>
      <point x="279" y="629" type="line"/>
      <point x="291" y="631"/>
      <point x="326" y="633"/>
      <point x="368" y="633" type="curve" smooth="yes"/>
      <point x="438" y="633"/>
      <point x="502" y="608"/>
      <point x="502" y="545" type="curve" smooth="yes"/>
      <point x="502" y="427"/>
      <point x="400" y="395"/>
      <point x="304" y="395" type="curve" smooth="yes"/>
    </contour>
  </outline>
</glyph>
<glyph name="C" format="2">
  <advance width="560"/>
  <unicode hex="0043"/>
  <outline>
    <contour>
      <point x="309" y="-15" type="curve" smooth="yes"/>
      <point x="407" y="-15"/>
      <point x="481" y="17"/>
      <point x="495" y="28" type="curve"/>
      <point x="485" y="97" type="line"/>
      <point x="461" y="82"/>
      <point x="397" y="55"/>
      <point x="326" y="55" type="curve" smooth="yes"/>
      <point x="235" y="55"/>
      <point x="180" y="124"/>
      <point x="180" y="240" type="curve" smooth="yes"/>
      <point x="180" y="441"/>
      <point x="292" y="638"/>
      <point x="472" y="638" type="curve" smooth="yes"/>
      <point x="522" y="638"/>
      <point x="578" y="617"/>
      <point x="603" y="595" type="curve"/>
      <point x="645" y="658" type="line"/>
      <point x="617" y="681"/>
      <point x="563" y="709"/>
      <point x="477" y="709" type="curve" smooth="yes"/>
      <point x="249" y="709"/>
      <point x="100" y="465"/>
      <point x="100" y="225" type="curve" smooth="yes"/>
      <point x="100" y="79"/>
      <point x="187" y="-15"/>
    </contour>
  </outline>
</glyph>
<glyph name="D" format="2">
  <advance width="560"/>
  <unicode hex="0044"/>
  <outline>
    <contour>
      <point x="183" y="-6" type="curve" smooth="yes"/>
      <point x="463" y="-6"/>
      <point x="586" y="217"/>
      <point x="586" y="454" type="curve" smooth="yes"/>
      <point x="586" y="609"/>
      <point x="494" y="700"/>
      <point x="343" y="700" type="curve" smooth="yes"/>
      <point x="296" y="700"/>
      <point x="250" y="694"/>
      <point x="200" y="683" type="curve"/>
      <point x="40" y="10" type="line"/>
      <point x="83" y="-1"/>
      <point x="136" y="-6"/>
    </contour>
    <contour>
      <point x="202" y="74" type="curve" smooth="yes"/>
      <point x="184" y="74"/>
      <point x="159" y="76"/>
      <point x="148" y="80" type="curve"/>
      <point x="276" y="617" type="line"/>
      <point x="292" y="619"/>
      <point x="311" y="620"/>
      <point x="330" y="620" type="curve" smooth="yes"/>
      <point x="441" y="620"/>
      <point x="493" y="557"/>
      <point x="493" y="444" type="curve" smooth="yes"/>
      <point x="493" y="225"/>
      <point x="368" y="74"/>
    </contour>
  </outline>
</glyph>
<glyph name="E" format="2">
  <advance width="560"/>
  <unicode hex="0045"/>
  <outline>
    <contour>
      <point x="44" y="0" type="line"/>
      <point x="450" y="0" type="line"/>
      <point x="467" y="67" type="line"/>
      <point x="140" y="67" type="line"/>
      <point x="202" y="329" type="line"/>
      <point x="469" y="329" type="line"/>
      <point x="485" y="396" type="line"/>
      <point x="218" y="396" type="line"/>
      <point x="273" y="626" type="line"/>
      <point x="576" y="626" type="line"/>
      <point x="593" y="693" type="line"/>
      <point x="213" y="693" type="line"/>
    </contour>
  </outline>
</glyph>
<glyph name="F" format="2">
  <advance width="560"/>
  <unicode hex="0046"/>
  <outline>
    <contour>
      <point x="85" y="0" type="line"/>
      <point x="163" y="0" type="line"/>
      <point x="242" y="328" type="line"/>
      <point x="511" y="328" type="line"/>
      <point x="528" y="395" type="line"/>
      <point x="258" y="395" type="line"/>
      <point x="313" y="626" type="line"/>
      <point x="620" y="626" type="line"/>
      <point x="637" y="693" type="line"/>
      <point x="253" y="693" type="line"/>
    </contour>
  </outline>
</glyph>
<glyph name="G" format="2">
  <advance width="560"/>
  <unicode hex="0047"/>
  <outline>
    <contour>
      <point x="298" y="-15" type="curve" smooth="yes"/>
      <point x="378" y="-15"/>
      <point x="458" y="8"/>
      <point x="478" y="16" type="curve"/>
      <point x="554" y="333" type="line"/>
      <point x="475" y="333" type="line"/>
      <point x="412" y="68" type="line"/>
      <point x="396" y="63"/>
      <point x="365" y="54"/>
      <point x="323" y="54" type="curve" smooth="yes"/>
      <point x="226" y="54"/>
      <point x="170" y="124"/>
      <point x="170" y="240" type="curve" smooth="yes"/>
      <point x="170" y="441"/>
      <point x="281" y="640"/>
      <point x="459" y="640" type="curve" smooth="yes"/>
      <point x="512" y="640"/>
      <point x="556" y="617"/>
      <point x="580" y="595" type="curve"/>
      <point x="621" y="658" type="line"/>
      <point x="593" y="681"/>
      <point x="554" y="709"/>
      <point x="464" y="709" type="curve" smooth="yes"/>
      <point x="237" y="709"/>
      <point x="91" y="465"/>
      <point x="91" y="225" type="curve" smooth="yes"/>
      <point x="91" y="82"/>
      <point x="174" y="-15"/>
    </contour>
  </outline>
</glyph>
<glyph name="H" format="2">
  <advance width="560"/>
  <unicode hex="0048"/>
  <anchor x="218" y="0" name="bottom"/>
  <anchor x="301" y="347" name="center"/>
  <anchor x="382" y="685" name="top"/>
  <anchor x="124" y="693" name="topleft"/>
  <outline>
    <contour>
      <point x="1" y="0" type="line"/>
      <point x="78" y="0" type="line"/>
      <point x="157" y="328" type="line"/>
      <point x="435" y="328" type="line"/>
      <point x="357" y="0" type="line"/>
      <point x="434" y="0" type="line"/>
      <point x="601" y="693" type="line"/>
      <point x="523" y="693" type="line"/>
      <point x="452" y="395" type="line"/>
      <point x="174" y="395" type="line"/>
      <point x="245" y="693" type="line"/>
      <point x="167" y="693" type="line"/>
    </contour>
  </outline>
</glyph>
<glyph name="I" format="2">
  <advance width="560"/>
  <unicode hex="0049"/>
  <outline>
    <contour>
      <point x="92" y="0" type="line"/>
      <point x="427" y="0" type="line"/>
      <point x="444" y="67" type="line"/>
      <point x="314" y="67" type="line"/>
      <point x="450" y="626" type="line"/>
      <point x="578" y="626" type="line"/>
      <point x="594" y="693" type="line"/>
      <point x="258" y="693" type="line"/>
      <point x="242" y="626" type="line"/>
      <point x="370" y="626" type="line"/>
      <point x="236" y="67" type="line"/>
      <point x="109" y="67" type="line"/>
    </contour>
  </outline>
</glyph>
<glyph name="J" format="2">
  <advance width="560"/>
  <unicode hex="004A"/>
  <outline>
    <contour>
      <point x="257" y="-15" type="curve" smooth="yes"/>
      <point x="435" y="-15"/>
      <point x="476" y="95"/>
      <point x="506" y="220" type="curve" smooth="yes"/>
      <point x="619" y="693" type="line"/>
      <point x="301" y="693" type="line"/>
      <point x="286" y="626" type="line"/>
      <point x="525" y="626" type="line"/>
      <point x="430" y="230" type="line" smooth="yes"/>
      <point x="401" y="108"/>
      <point x="354" y="53"/>
      <point x="260" y="53" type="curve" smooth="yes"/>
      <point x="191" y="53"/>
      <point x="145" y="91"/>
      <point x="126" y="110" type="curve"/>
      <point x="85" y="45" type="line"/>
      <point x="102" y="25"/>
      <point x="166" y="-15"/>
    </contour>
  </outline>
</glyph>
<glyph name="K" format="2">
  <advance width="560"/>
  <unicode hex="004B"/>
  <outline>
    <contour>
      <point x="55" y="0" type="line"/>
      <point x="133" y="0" type="line"/>
      <point x="214" y="338" type="line"/>
      <point x="296" y="268"/>
      <point x="365" y="174"/>
      <point x="432" y="0" type="curve"/>
      <point x="518" y="0" type="line"/>
      <point x="453" y="165"/>
      <point x="362" y="294"/>
      <point x="300" y="361" type="curve"/>
      <point x="437" y="487"/>
      <point x="533" y="572"/>
      <point x="654" y="693" type="curve"/>
      <point x="552" y="693" type="line"/>
      <point x="459" y="595"/>
      <point x="359" y="505"/>
      <point x="225" y="386" type="curve"/>
      <point x="299" y="693" type="line"/>
      <point x="221" y="693" type="line"/>
    </contour>
  </outline>
</glyph>
<glyph name="L" format="2">
  <advance width="560"/>
  <unicode hex="004C"/>
  <outline>
    <contour>
      <point x="63" y="0" type="line"/>
      <point x="446" y="0" type="line"/>
      <point x="462" y="67" type="line"/>
      <point x="158" y="67" type="line"/>
      <point x="309" y="693" type="line"/>
      <point x="230" y="693" type="line"/>
    </contour>
  </outline>
</glyph>
<glyph name="M" format="2">
  <advance width="560"/>
  <unicode hex="004D"/>
  <outline>
    <contour>
      <point x="24" y="0" type="curve"/>
      <point x="101" y="0" type="line"/>
      <point x="141" y="152"/>
      <point x="207" y="380"/>
      <point x="261" y="591" type="curve"/>
      <point x="269" y="513"/>
      <point x="285" y="382"/>
      <point x="290" y="268" type="curve"/>
      <point x="365" y="268" type="line"/>
      <point x="549" y="590" type="line"/>
      <point x="515" y="398"/>
      <point x="457" y="155"/>
      <point x="427" y="0" type="curve"/>
      <point x="505" y="0" type="line"/>
      <point x="556" y="255"/>
      <point x="603" y="516"/>
      <point x="619" y="693" type="curve"/>
      <point x="545" y="693" type="line"/>
      <point x="347" y="341" type="line"/>
      <point x="337" y="462"/>
      <point x="333" y="556"/>
      <point x="322" y="693" type="curve"/>
      <point x="246" y="693" type="line"/>
      <point x="155" y="447"/>
      <point x="90" y="243"/>
    </contour>
  </outline>
</glyph>
<glyph name="N" format="2">
  <advance width="560"/>
  <unicode hex="004E"/>
  <outline>
    <contour>
      <point x="50" y="0" type="line"/>
      <point x="122" y="0" type="line"/>
      <point x="260" y="583" type="line"/>
      <point x="309" y="424"/>
      <point x="351" y="277"/>
      <point x="395" y="0" type="curve"/>
      <point x="480" y="0" type="line"/>
      <point x="646" y="693" type="line"/>
      <point x="573" y="693" type="line"/>
      <point x="439" y="122" type="line"/>
      <point x="395" y="374"/>
      <point x="376" y="442"/>
      <point x="299" y="693" type="curve"/>
      <point x="217" y="693" type="line"/>
    </contour>
  </outline>
</glyph>
<glyph name="O" format="2">
  <advance width="560"/>
  <unicode hex="004F"/>
  <outline>
    <contour>
      <point x="274" y="-15" type="curve" smooth="yes"/>
      <point x="512" y="-15"/>
      <point x="606" y="325"/>
      <point x="606" y="486" type="curve" smooth="yes"/>
      <point x="606" y="646"/>
      <point x="532" y="709"/>
      <point x="428" y="709" type="curve" smooth="yes"/>
      <point x="190" y="709"/>
      <point x="95" y="371"/>
      <point x="95" y="208" type="curve" smooth="yes"/>
      <point x="95" y="49"/>
      <point x="170" y="-15"/>
    </contour>
    <contour>
      <point x="283" y="53" type="curve" smooth="yes"/>
      <point x="219" y="53"/>
      <point x="174" y="95"/>
      <point x="174" y="214" type="curve" smooth="yes"/>
      <point x="174" y="394"/>
      <point x="266" y="641"/>
      <point x="418" y="641" type="curve" smooth="yes"/>
      <point x="484" y="641"/>
      <point x="527" y="599"/>
      <point x="527" y="481" type="curve" smooth="yes"/>
      <point x="527" y="300"/>
      <point x="438" y="53"/>
    </contour>
  </outline>
</glyph>
<glyph name="P" format="2">
  <advance width="560"/>
  <unicode hex="0050"/>
  <outline>
    <contour>
      <point x="60" y="0" type="line"/>
      <point x="151" y="0" type="line"/>
      <point x="214" y="259" type="line"/>
      <point x="295" y="259" type="line" smooth="yes"/>
      <point x="479" y="259"/>
      <point x="606" y="367"/>
      <point x="606" y="529" type="curve" smooth="yes"/>
      <point x="606" y="642"/>
      <point x="522" y="700"/>
      <point x="400" y="700" type="curve" smooth="yes"/>
      <point x="347" y="700"/>
      <point x="263" y="692"/>
      <point x="223" y="683" type="curve"/>
    </contour>
    <contour>
      <point x="232" y="337" type="line"/>
      <point x="300" y="617" type="line"/>
      <point x="317" y="620"/>
      <point x="352" y="622"/>
      <point x="385" y="622" type="curve" smooth="yes"/>
      <point x="448" y="622"/>
      <point x="514" y="596"/>
      <point x="514" y="520" type="curve" smooth="yes"/>
      <point x="514" y="405"/>
      <point x="439" y="337"/>
      <point x="307" y="337" type="curve" smooth="yes"/>
    </contour>
  </outline>
</glyph>
<glyph name="Q" format="2">
  <advance width="560"/>
  <unicode hex="0051"/>
  <outline>
    <contour>
      <point x="380" y="-183" type="curve"/>
      <point x="420" y="-115" type="line"/>
      <point x="328" y="-104"/>
      <point x="266" y="-69"/>
      <point x="266" y="-20" type="curve" smooth="yes"/>
      <point x="266" y="-12" type="line"/>
      <point x="480" y="18"/>
      <point x="565" y="331"/>
      <point x="565" y="486" type="curve" smooth="yes"/>
      <point x="565" y="646"/>
      <point x="490" y="709"/>
      <point x="386" y="709" type="curve" smooth="yes"/>
      <point x="148" y="709"/>
      <point x="52" y="371"/>
      <point x="52" y="208" type="curve" smooth="yes"/>
      <point x="52" y="80"/>
      <point x="101" y="14"/>
      <point x="174" y="-7" type="curve"/>
      <point x="174" y="-7"/>
      <point x="174" y="-6"/>
      <point x="174" y="-7" type="curve" smooth="yes"/>
      <point x="173" y="-140"/>
      <point x="283" y="-162"/>
    </contour>
    <contour>
      <point x="241" y="53" type="curve" smooth="yes"/>
      <point x="177" y="53"/>
      <point x="132" y="95"/>
      <point x="132" y="214" type="curve" smooth="yes"/>
      <point x="132" y="394"/>
      <point x="224" y="641"/>
      <point x="376" y="641" type="curve" smooth="yes"/>
      <point x="442" y="641"/>
      <point x="485" y="599"/>
      <point x="485" y="481" type="curve" smooth="yes"/>
      <point x="485" y="300"/>
      <point x="396" y="53"/>
    </contour>
  </outline>
</glyph>
<glyph name="R" format="2">
  <advance width="560"/>
  <unicode hex="0052"/>
  <outline>
    <contour>
      <point x="54" y="0" type="line"/>
      <point x="131" y="0" type="line"/>
      <point x="199" y="278" type="line"/>
      <point x="323" y="278" type="line"/>
      <point x="350" y="228"/>
      <point x="377" y="179"/>
      <point x="416" y="0" type="curve"/>
      <point x="498" y="0" type="line"/>
      <point x="461" y="165"/>
      <point x="441" y="212"/>
      <point x="402" y="292" type="curve"/>
      <point x="510" y="327"/>
      <point x="589" y="406"/>
      <point x="589" y="538" type="curve" smooth="yes"/>
      <point x="589" y="635"/>
      <point x="527" y="700"/>
      <point x="383" y="700" type="curve" smooth="yes"/>
      <point x="333" y="700"/>
      <point x="263" y="696"/>
      <point x="217" y="683" type="curve"/>
    </contour>
    <contour>
      <point x="214" y="343" type="line"/>
      <point x="282" y="628" type="line"/>
      <point x="297" y="629"/>
      <point x="340" y="633"/>
      <point x="380" y="633" type="curve" smooth="yes"/>
      <point x="453" y="633"/>
      <point x="512" y="601"/>
      <point x="512" y="525" type="curve" smooth="yes"/>
      <point x="512" y="376"/>
      <point x="404" y="343"/>
      <point x="271" y="343" type="curve" smooth="yes"/>
    </contour>
  </outline>
</glyph>
<glyph name="S" format="2">
  <advance width="560"/>
  <unicode hex="0053"/>
  <outline>
    <contour>
      <point x="257" y="-15" type="curve" smooth="yes"/>
      <point x="412" y="-15"/>
      <point x="522" y="56"/>
      <point x="522" y="202" type="curve" smooth="yes"/>
      <point x="522" y="305"/>
      <point x="463" y="340"/>
      <point x="387" y="381" type="curve" smooth="yes"/>
      <point x="321" y="418"/>
      <point x="277" y="440"/>
      <point x="277" y="513" type="curve" smooth="yes"/>
      <point x="277" y="601"/>
      <point x="345" y="638"/>
      <point x="436" y="638" type="curve" smooth="yes"/>
      <point x="501" y="638"/>
      <point x="552" y="623"/>
      <point x="572" y="604" type="curve"/>
      <point x="610" y="669" type="line"/>
      <point x="589" y="684"/>
      <point x="519" y="709"/>
      <point x="451" y="709" type="curve" smooth="yes"/>
      <point x="278" y="709"/>
      <point x="197" y="625"/>
      <point x="197" y="507" type="curve" smooth="yes"/>
      <point x="197" y="404"/>
      <point x="259" y="366"/>
      <point x="317" y="333" type="curve" smooth="yes"/>
      <point x="389" y="294"/>
      <point x="442" y="266"/>
      <point x="442" y="197" type="curve" smooth="yes"/>
      <point x="442" y="91"/>
      <point x="352" y="56"/>
      <point x="268" y="56" type="curve" smooth="yes"/>
      <point x="182" y="56"/>
      <point x="130" y="83"/>
      <point x="106" y="99" type="curve"/>
      <point x="68" y="32" type="line"/>
      <point x="91" y="15"/>
      <point x="160" y="-15"/>
    </contour>
  </outline>
</glyph>
<glyph name="T" format="2">
  <advance width="560"/>
  <unicode hex="0054"/>
  <outline>
    <contour>
      <point x="211" y="0" type="line"/>
      <point x="304" y="0" type="line"/>
      <point x="451" y="615" type="line"/>
      <point x="641" y="615" type="line"/>
      <point x="660" y="693" type="line"/>
      <point x="189" y="693" type="line"/>
      <point x="170" y="615" type="line"/>
      <point x="360" y="615" type="line"/>
    </contour>
  </outline>
</glyph>
<glyph name="U" format="2">
  <advance width="560"/>
  <unicode hex="0055"/>
  <outline>
    <contour>
      <point x="265" y="-15" type="curve" smooth="yes"/>
      <point x="433" y="-15"/>
      <point x="495" y="70"/>
      <point x="531" y="220" type="curve" smooth="yes"/>
      <point x="644" y="693" type="line"/>
      <point x="566" y="693" type="line"/>
      <point x="456" y="231" type="line" smooth="yes"/>
      <point x="419" y="83"/>
      <point x="364" y="53"/>
      <point x="277" y="53" type="curve" smooth="yes"/>
      <point x="199" y="53"/>
      <point x="174" y="114"/>
      <point x="174" y="180" type="curve" smooth="yes"/>
      <point x="174" y="203"/>
      <point x="176" y="224"/>
      <point x="182" y="245" type="curve" smooth="yes"/>
      <point x="289" y="693" type="line"/>
      <point x="210" y="693" type="line"/>
      <point x="104" y="244" type="line" smooth="yes"/>
      <point x="98" y="224"/>
      <point x="96" y="202"/>
      <point x="96" y="181" type="curve" smooth="yes"/>
      <point x="96" y="82"/>
      <point x="146" y="-15"/>
    </contour>
  </outline>
</glyph>
<glyph name="V" format="2">
  <advance width="560"/>
  <unicode hex="0056"/>
  <outline>
    <contour>
      <point x="157" y="0" type="curve"/>
      <point x="261" y="0" type="line"/>
      <point x="430" y="279"/>
      <point x="607" y="622"/>
      <point x="641" y="693" type="curve"/>
      <point x="557" y="693" type="line"/>
      <point x="440" y="443"/>
      <point x="337" y="266"/>
      <point x="224" y="63" type="curve"/>
      <point x="214" y="200"/>
      <point x="196" y="400"/>
      <point x="193" y="693" type="curve"/>
      <point x="110" y="693" type="line"/>
      <point x="112" y="608"/>
      <point x="126" y="298"/>
    </contour>
  </outline>
</glyph>
<glyph name="W" format="2">
  <advance width="560"/>
  <unicode hex="0057"/>
  <outline>
    <contour>
      <point x="66" y="0" type="curve"/>
      <point x="152" y="0" type="line"/>
      <point x="343" y="346" type="line"/>
      <point x="352" y="231"/>
      <point x="360" y="115"/>
      <point x="368" y="0" type="curve"/>
      <point x="454" y="0" type="line"/>
      <point x="542" y="242"/>
      <point x="606" y="460"/>
      <point x="672" y="693" type="curve"/>
      <point x="584" y="693" type="line"/>
      <point x="542" y="532"/>
      <point x="482" y="302"/>
      <point x="427" y="112" type="curve"/>
      <point x="419" y="193"/>
      <point x="407" y="329"/>
      <point x="400" y="430" type="curve"/>
      <point x="320" y="430" type="line"/>
      <point x="262" y="323"/>
      <point x="189" y="197"/>
      <point x="143" y="112" type="curve"/>
      <point x="183" y="298"/>
      <point x="237" y="539"/>
      <point x="273" y="693" type="curve"/>
      <point x="183" y="693" type="line"/>
      <point x="134" y="446"/>
      <point x="85" y="192"/>
    </contour>
  </outline>
</glyph>
<glyph name="X" format="2">
  <advance width="560"/>
  <unicode hex="0058"/>
  <outline>
    <contour>
      <point x="12" y="0" type="line"/>
      <point x="108" y="0" type="line"/>
      <point x="357" y="298" type="line"/>
      <point x="395" y="199"/>
      <point x="425" y="101"/>
      <point x="447" y="0" type="curve"/>
      <point x="531" y="0" type="line"/>
      <point x="504" y="120"/>
      <point x="454" y="261"/>
      <point x="416" y="362" type="curve"/>
      <point x="503" y="464"/>
      <point x="605" y="586"/>
      <point x="680" y="693" type="curve"/>
      <point x="587" y="693" type="line"/>
      <point x="529" y="607"/>
      <point x="460" y="518"/>
      <point x="385" y="429" type="curve"/>
      <point x="295" y="693" type="line"/>
      <point x="206" y="693" type="line"/>
      <point x="322" y="367" type="line"/>
    </contour>
  </outline>
</glyph>
<glyph name="Y" format="2">
  <advance width="560"/>
  <unicode hex="0059"/>
  <outline>
    <contour>
      <point x="228" y="0" type="line"/>
      <point x="306" y="0" type="line"/>
      <point x="368" y="259" type="line"/>
      <point x="489" y="400"/>
      <point x="609" y="550"/>
      <point x="699" y="693" type="curve"/>
      <point x="613" y="693" type="line"/>
      <point x="542" y="581"/>
      <point x="442" y="444"/>
      <point x="340" y="312" type="curve"/>
      <point x="301" y="424"/>
      <point x="260" y="569"/>
      <point x="244" y="693" type="curve"/>
      <point x="167" y="693" type="line"/>
      <point x="187" y="550"/>
      <point x="231" y="406"/>
      <point x="289" y="257" type="curve"/>
    </contour>
  </outline>
</glyph>
<glyph name="Z" format="2">
  <advance width="560"/>
  <unicode hex="005A"/>
  <outline>
    <contour>
      <point x="43" y="0" type="line"/>
      <point x="486" y="0" type="line"/>
      <point x="501" y="68" type="line"/>
      <point x="149" y="68" type="line"/>
      <point x="266" y="235"/>
      <point x="515" y="513"/>
      <point x="626" y="627" type="curve"/>
      <point x="641" y="693" type="line"/>
      <point x="224" y="693" type="line"/>
      <point x="206" y="626" type="line"/>
      <point x="532" y="626" type="line"/>
      <point x="404" y="495"/>
      <point x="214" y="270"/>
      <point x="59" y="72" type="curve"/>
    </contour>
  </outline>
</glyph>
<glyph name="bracketleft" format="2">
  <advance width="560"/>
  <unicode hex="005B"/>
  <outline>
    <contour>
      <point x="113" y="-185" type="line"/>
      <point x="369" y="-185" type="line"/>
      <point x="386" y="-122" type="line"/>
      <point x="202" y="-122" type="line"/>
      <point x="405" y="721" type="line"/>
      <point x="588" y="721" type="line"/>
      <point x="604" y="783" type="line"/>
      <point x="346" y="783" type="line"/>
    </contour>
  </outline>
</glyph>
<glyph name="backslash" format="2">
  <advance width="560"/>
  <unicode hex="005C"/>
  <outline>
    <contour>
      <point x="322" y="-185" type="line"/>
      <point x="405" y="-185" type="line"/>
      <point x="331" y="783" type="line"/>
      <point x="249" y="783" type="line"/>
    </contour>
  </outline>
</glyph>
<glyph name="bracketright" format="2">
  <advance width="560"/>
  <unicode hex="005D"/>
  <outline>
    <contour>
      <point x="31" y="-185" type="line"/>
      <point x="288" y="-185" type="line"/>
      <point x="521" y="783" type="line"/>
      <point x="264" y="783" type="line"/>
      <point x="249" y="721" type="line"/>
      <point x="433" y="721" type="line"/>
      <point x="229" y="-122" type="line"/>
      <point x="46" y="-122" type="line"/>
    </contour>
  </outline>
</glyph>
<glyph name="asciicircum" format="2">
  <advance width="560"/>
  <unicode hex="005E"/>
  <outline>
    <contour>
      <point x="510" y="325" type="line"/>
      <point x="571" y="353" type="line"/>
      <point x="465" y="693" type="line"/>
      <point x="397" y="693" type="line"/>
      <point x="133" y="361" type="line"/>
      <point x="190" y="326" type="line"/>
      <point x="419" y="614" type="line"/>
    </contour>
  </outline>
</glyph>
<glyph name="underscore" format="2">
  <advance width="560"/>
  <unicode hex="005F"/>
  <outline>
    <contour>
      <point x="-28" y="-185" type="line"/>
      <point x="472" y="-185" type="line"/>
      <point x="488" y="-118" type="line"/>
      <point x="-12" y="-118" type="line"/>
    </contour>
  </outline>
</glyph>
<glyph name="grave" format="2">
  <advance width="560"/>
  <unicode hex="0060"/>
  <outline>
    <contour>
      <point x="431" y="571" type="line"/>
      <point x="480" y="606" type="line"/>
      <point x="368" y="774" type="line"/>
      <point x="300" y="731" type="line"/>
    </contour>
  </outline>
</glyph>
<glyph name="a" format="2">
  <advance width="560"/>
  <unicode hex="0061"/>
  <outline>
    <contour>
      <point x="254" y="-12" type="curve" smooth="yes"/>
      <point x="323" y="-12"/>
      <point x="379" y="21"/>
      <point x="408" y="49" type="curve"/>
      <point x="413" y="26"/>
      <point x="417" y="11"/>
      <point x="424" y="-5" type="curve"/>
      <point x="494" y="5" type="line"/>
      <point x="483" y="40"/>
      <point x="478" y="66"/>
      <point x="478" y="93" type="curve" smooth="yes"/>
      <point x="478" y="126"/>
      <point x="484" y="152"/>
      <point x="492" y="185" type="curve" smooth="yes"/>
      <point x="571" y="506" type="line"/>
      <point x="544" y="523"/>
      <point x="483" y="529"/>
      <point x="455" y="529" type="curve" smooth="yes"/>
      <point x="193" y="529"/>
      <point x="82" y="339"/>
      <point x="82" y="168" type="curve" smooth="yes"/>
      <point x="82" y="68"/>
      <point x="132" y="-12"/>
    </contour>
    <contour>
      <point x="264" y="52" type="curve" smooth="yes"/>
      <point x="181" y="52"/>
      <point x="161" y="113"/>
      <point x="161" y="178" type="curve" smooth="yes"/>
      <point x="161" y="328"/>
      <point x="273" y="464"/>
      <point x="440" y="464" type="curve" smooth="yes"/>
      <point x="450" y="464"/>
      <point x="479" y="459"/>
      <point x="485" y="458" type="curve"/>
      <point x="418" y="199" type="line" smooth="yes"/>
      <point x="412" y="174"/>
      <point x="408" y="139"/>
      <point x="407" y="116" type="curve"/>
      <point x="376" y="82"/>
      <point x="324" y="52"/>
    </contour>
  </outline>
</glyph>
<glyph name="b" format="2">
  <advance width="560"/>
  <unicode hex="0062"/>
  <outline>
    <contour>
      <point x="196" y="-10" type="curve" smooth="yes"/>
      <point x="454" y="-10"/>
      <point x="567" y="178"/>
      <point x="567" y="355" type="curve" smooth="yes"/>
      <point x="567" y="449"/>
      <point x="514" y="531"/>
      <point x="393" y="531" type="curve" smooth="yes"/>
      <point x="345" y="531"/>
      <point x="302" y="516"/>
      <point x="271" y="497" type="curve"/>
      <point x="338" y="776" type="line"/>
      <point x="256" y="762" type="line"/>
      <point x="79" y="20" type="line"/>
      <point x="107" y="-2"/>
      <point x="162" y="-10"/>
    </contour>
    <contour>
      <point x="213" y="59" type="curve" smooth="yes"/>
      <point x="196" y="59"/>
      <point x="177" y="62"/>
      <point x="165" y="65" type="curve"/>
      <point x="249" y="420" type="line"/>
      <point x="288" y="447"/>
      <point x="333" y="464"/>
      <point x="377" y="464" type="curve" smooth="yes"/>
      <point x="468" y="464"/>
      <point x="488" y="400"/>
      <point x="488" y="345" type="curve" smooth="yes"/>
      <point x="488" y="197"/>
      <point x="378" y="59"/>
    </contour>
  </outline>
</glyph>
<glyph name="c" format="2">
  <advance width="560"/>
  <unicode hex="0063"/>
  <outline>
    <contour>
      <point x="314" y="-13" type="curve" smooth="yes"/>
      <point x="398" y="-13"/>
      <point x="461" y="8"/>
      <point x="488" y="24" type="curve"/>
      <point x="480" y="102" type="line"/>
      <point x="459" y="88"/>
      <point x="396" y="67"/>
      <point x="330" y="67" type="curve" smooth="yes"/>
      <point x="204" y="67"/>
      <point x="172" y="127"/>
      <point x="172" y="195" type="curve" smooth="yes"/>
      <point x="172" y="328"/>
      <point x="265" y="455"/>
      <point x="419" y="455" type="curve" smooth="yes"/>
      <point x="482" y="455"/>
      <point x="513" y="442"/>
      <point x="538" y="430" type="curve"/>
      <point x="572" y="508" type="line"/>
      <point x="532" y="525"/>
      <point x="487" y="533"/>
      <point x="427" y="533" type="curve" smooth="yes"/>
      <point x="204" y="533"/>
      <point x="80" y="368"/>
      <point x="80" y="186" type="curve" smooth="yes"/>
      <point x="80" y="69"/>
      <point x="158" y="-13"/>
    </contour>
  </outline>
</glyph>
<glyph name="d" format="2">
  <advance width="560"/>
  <unicode hex="0064"/>
  <outline>
    <contour>
      <point x="227" y="-12" type="curve" smooth="yes"/>
      <point x="302" y="-12"/>
      <point x="350" y="21"/>
      <point x="379" y="49" type="curve"/>
      <point x="384" y="24"/>
      <point x="388" y="10"/>
      <point x="395" y="-5" type="curve"/>
      <point x="465" y="5" type="line"/>
      <point x="454" y="40"/>
      <point x="449" y="66"/>
      <point x="449" y="93" type="curve" smooth="yes"/>
      <point x="449" y="126"/>
      <point x="455" y="152"/>
      <point x="463" y="185" type="curve" smooth="yes"/>
      <point x="607" y="776" type="line"/>
      <point x="525" y="762" type="line"/>
      <point x="468" y="529" type="line"/>
      <point x="454" y="529"/>
      <point x="435" y="530"/>
      <point x="419" y="530" type="curve" smooth="yes"/>
      <point x="167" y="530"/>
      <point x="53" y="340"/>
      <point x="53" y="168" type="curve" smooth="yes"/>
      <point x="53" y="65"/>
      <point x="104" y="-12"/>
    </contour>
    <contour>
      <point x="235" y="52" type="curve" smooth="yes"/>
      <point x="152" y="52"/>
      <point x="134" y="113"/>
      <point x="134" y="178" type="curve" smooth="yes"/>
      <point x="134" y="328"/>
      <point x="244" y="464"/>
      <point x="410" y="464" type="curve" smooth="yes"/>
      <point x="421" y="464"/>
      <point x="450" y="459"/>
      <point x="456" y="458" type="curve"/>
      <point x="389" y="199" type="line" smooth="yes"/>
      <point x="383" y="174"/>
      <point x="379" y="139"/>
      <point x="378" y="116" type="curve"/>
      <point x="347" y="82"/>
      <point x="295" y="52"/>
    </contour>
  </outline>
</glyph>
<glyph name="e" format="2">
  <advance width="560"/>
  <unicode hex="0065"/>
  <outline>
    <contour>
      <point x="244" y="-13" type="curve" smooth="yes"/>
      <point x="351" y="-13"/>
      <point x="415" y="10"/>
      <point x="441" y="24" type="curve"/>
      <point x="433" y="94" type="line"/>
      <point x="419" y="82"/>
      <point x="337" y="57"/>
      <point x="272" y="57" type="curve" smooth="yes"/>
      <point x="178" y="57"/>
      <point x="101" y="101"/>
      <point x="113" y="207" type="curve"/>
      <point x="287" y="214"/>
      <point x="514" y="207"/>
      <point x="514" y="405" type="curve" smooth="yes"/>
      <point x="514" y="468"/>
      <point x="473" y="530"/>
      <point x="353" y="530" type="curve" smooth="yes"/>
      <point x="157" y="530"/>
      <point x="37" y="367"/>
      <point x="37" y="174" type="curve" smooth="yes"/>
      <point x="37" y="81"/>
      <point x="106" y="-13"/>
    </contour>
    <contour>
      <point x="127" y="270" type="curve"/>
      <point x="154" y="363"/>
      <point x="233" y="463"/>
      <point x="345" y="463" type="curve" smooth="yes"/>
      <point x="420" y="463"/>
      <point x="435" y="423"/>
      <point x="435" y="402" type="curve" smooth="yes"/>
      <point x="435" y="285"/>
      <point x="305" y="274"/>
    </contour>
  </outline>
</glyph>
<glyph name="f" format="2">
  <advance width="560"/>
  <unicode hex="0066"/>
  <outline>
    <contour>
      <point x="82" y="-188" type="curve" smooth="yes"/>
      <point x="212" y="-188"/>
      <point x="263" y="-130"/>
      <point x="295" y="20" type="curve" smooth="yes"/>
      <point x="385" y="442" type="line"/>
      <point x="592" y="442" type="line"/>
      <point x="612" y="520" type="line"/>
      <point x="401" y="520" type="line"/>
      <point x="411" y="566" type="line" smooth="yes"/>
      <point x="428" y="644"/>
      <point x="460" y="697"/>
      <point x="548" y="697" type="curve" smooth="yes"/>
      <point x="599" y="697"/>
      <point x="622" y="685"/>
      <point x="633" y="680" type="curve"/>
      <point x="670" y="754" type="line"/>
      <point x="650" y="765"/>
      <point x="603" y="776"/>
      <point x="557" y="776" type="curve" smooth="yes"/>
      <point x="413" y="776"/>
      <point x="347" y="701"/>
      <point x="319" y="567" type="curve" smooth="yes"/>
      <point x="309" y="520" type="line"/>
      <point x="199" y="520" type="line"/>
      <point x="180" y="442" type="line"/>
      <point x="292" y="442" type="line"/>
      <point x="203" y="19" type="line" smooth="yes"/>
      <point x="187" y="-57"/>
      <point x="156" y="-108"/>
      <point x="96" y="-108" type="curve" smooth="yes"/>
      <point x="69" y="-108"/>
      <point x="46" y="-102"/>
      <point x="31" y="-93" type="curve"/>
      <point x="10" y="-170" type="line"/>
      <point x="26" y="-181"/>
      <point x="59" y="-188"/>
    </contour>
  </outline>
</glyph>
<glyph name="g" format="2">
  <advance width="560"/>
  <unicode hex="0067"/>
  <anchor x="173" y="-185" name="bottom"/>
  <anchor x="342" y="518" name="top"/>
  <outline>
    <contour>
      <point x="136" y="-188" type="curve" smooth="yes"/>
      <point x="354" y="-188"/>
      <point x="400" y="-95"/>
      <point x="433" y="40" type="curve" smooth="yes"/>
      <point x="552" y="505" type="line"/>
      <point x="524" y="524"/>
      <point x="454" y="529"/>
      <point x="425" y="529" type="curve" smooth="yes"/>
      <point x="163" y="529"/>
      <point x="57" y="333"/>
      <point x="57" y="162" type="curve" smooth="yes"/>
      <point x="57" y="69"/>
      <point x="121" y="17"/>
      <point x="225" y="17" type="curve" smooth="yes"/>
      <point x="278" y="17"/>
      <point x="338" y="37"/>
      <point x="363" y="51" type="curve"/>
      <point x="360" y="35" type="line" smooth="yes"/>
      <point x="339" y="-69"/>
      <point x="274" y="-122"/>
      <point x="158" y="-122" type="curve" smooth="yes"/>
      <point x="104" y="-122"/>
      <point x="49" y="-105"/>
      <point x="20" y="-81" type="curve"/>
      <point x="-11" y="-149" type="line"/>
      <point x="23" y="-170"/>
      <point x="86" y="-188"/>
    </contour>
    <contour>
      <point x="239" y="82" type="curve" smooth="yes"/>
      <point x="174" y="82"/>
      <point x="136" y="103"/>
      <point x="136" y="182" type="curve" smooth="yes"/>
      <point x="136" y="320"/>
      <point x="249" y="462"/>
      <point x="407" y="462" type="curve" smooth="yes"/>
      <point x="422" y="462"/>
      <point x="448" y="459"/>
      <point x="459" y="457" type="curve"/>
      <point x="382" y="131" type="line"/>
      <point x="360" y="115"/>
      <point x="302" y="82"/>
    </contour>
  </outline>
</glyph>
<glyph name="h" format="2">
  <advance width="560"/>
  <unicode hex="0068"/>
  <outline>
    <contour>
      <point x="8" y="0" type="line"/>
      <point x="85" y="0" type="line"/>
      <point x="195" y="443" type="line"/>
      <point x="225" y="455"/>
      <point x="255" y="459"/>
      <point x="291" y="459" type="curve" smooth="yes"/>
      <point x="380" y="459"/>
      <point x="407" y="418"/>
      <point x="407" y="359" type="curve" smooth="yes"/>
      <point x="407" y="321"/>
      <point x="393" y="275"/>
      <point x="383" y="234" type="curve" smooth="yes"/>
      <point x="328" y="0" type="line"/>
      <point x="406" y="0" type="line"/>
      <point x="467" y="254" type="line" smooth="yes"/>
      <point x="476" y="291"/>
      <point x="484" y="328"/>
      <point x="484" y="360" type="curve" smooth="yes"/>
      <point x="484" y="457"/>
      <point x="438" y="529"/>
      <point x="314" y="529" type="curve" smooth="yes"/>
      <point x="276" y="529"/>
      <point x="240" y="521"/>
      <point x="208" y="508" type="curve"/>
      <point x="273" y="776" type="line"/>
      <point x="191" y="762" type="line"/>
    </contour>
  </outline>
</glyph>
<glyph name="i" format="2">
  <advance width="560"/>
  <unicode hex="0069"/>
  <outline>
    <contour>
      <point x="384" y="-3" type="curve" smooth="yes"/>
      <point x="435" y="-3"/>
      <point x="461" y="4"/>
      <point x="472" y="7" type="curve"/>
      <point x="477" y="85" type="line"/>
      <point x="457" y="80"/>
      <point x="432" y="75"/>
      <point x="407" y="75" type="curve" smooth="yes"/>
      <point x="346" y="75"/>
      <point x="328" y="106"/>
      <point x="328" y="148" type="curve" smooth="yes"/>
      <point x="328" y="172"/>
      <point x="334" y="200"/>
      <point x="342" y="230" type="curve" smooth="yes"/>
      <point x="410" y="520" type="line"/>
      <point x="168" y="520" type="line"/>
      <point x="150" y="442" type="line"/>
      <point x="300" y="442" type="line"/>
      <point x="250" y="237" type="line" smooth="yes"/>
      <point x="242" y="203"/>
      <point x="236" y="170"/>
      <point x="236" y="139" type="curve" smooth="yes"/>
      <point x="236" y="59"/>
      <point x="273" y="-3"/>
    </contour>
    <contour>
      <point x="370" y="600" type="curve" smooth="yes"/>
      <point x="408" y="600"/>
      <point x="450" y="633"/>
      <point x="450" y="682" type="curve" smooth="yes"/>
      <point x="450" y="726"/>
      <point x="420" y="750"/>
      <point x="382" y="750" type="curve" smooth="yes"/>
      <point x="342" y="750"/>
      <point x="302" y="718"/>
      <point x="302" y="666" type="curve" smooth="yes"/>
      <point x="302" y="624"/>
      <point x="330" y="600"/>
    </contour>
  </outline>
</glyph>
<glyph name="j" format="2">
  <advance width="560"/>
  <unicode hex="006A"/>
  <outline>
    <contour>
      <point x="171" y="-187" type="curve" smooth="yes"/>
      <point x="295" y="-187"/>
      <point x="378" y="-135"/>
      <point x="411" y="1" type="curve" smooth="yes"/>
      <point x="535" y="518" type="line"/>
      <point x="248" y="518" type="line"/>
      <point x="233" y="451" type="line"/>
      <point x="442" y="451" type="line"/>
      <point x="333" y="3" type="line" smooth="yes"/>
      <point x="311" y="-90"/>
      <point x="272" y="-121"/>
      <point x="189" y="-121" type="curve" smooth="yes"/>
      <point x="152" y="-121"/>
      <point x="93" y="-106"/>
      <point x="63" y="-84" type="curve"/>
      <point x="33" y="-150" type="line"/>
      <point x="78" y="-176"/>
      <point x="120" y="-187"/>
    </contour>
    <contour>
      <point x="490" y="603" type="curve" smooth="yes"/>
      <point x="528" y="603"/>
      <point x="567" y="634"/>
      <point x="567" y="681" type="curve" smooth="yes"/>
      <point x="567" y="722"/>
      <point x="539" y="745"/>
      <point x="503" y="745" type="curve" smooth="yes"/>
      <point x="464" y="745"/>
      <point x="427" y="715"/>
      <point x="427" y="665" type="curve" smooth="yes"/>
      <point x="427" y="627"/>
      <point x="453" y="603"/>
    </contour>
  </outline>
</glyph>
<glyph name="k" format="2">
  <advance width="560"/>
  <unicode hex="006B"/>
  <outline>
    <contour>
      <point x="32" y="0" type="line"/>
      <point x="109" y="0" type="line"/>
      <point x="173" y="262" type="line"/>
      <point x="253" y="204"/>
      <point x="323" y="118"/>
      <point x="377" y="0" type="curve"/>
      <point x="462" y="0" type="line"/>
      <point x="423" y="107"/>
      <point x="335" y="223"/>
      <point x="262" y="281" type="curve"/>
      <point x="338" y="334"/>
      <point x="486" y="445"/>
      <point x="561" y="518" type="curve"/>
      <point x="466" y="518" type="line"/>
      <point x="384" y="447"/>
      <point x="282" y="377"/>
      <point x="182" y="306" type="curve"/>
      <point x="296" y="776" type="line"/>
      <point x="214" y="762" type="line"/>
    </contour>
  </outline>
</glyph>
<glyph name="l" format="2">
  <advance width="560"/>
  <unicode hex="006C"/>
  <outline>
    <contour>
      <point x="326" y="-12" type="curve" smooth="yes"/>
      <point x="378" y="-12"/>
      <point x="427" y="0"/>
      <point x="450" y="16" type="curve"/>
      <point x="443" y="84" type="line"/>
      <point x="422" y="71"/>
      <point x="383" y="53"/>
      <point x="345" y="53" type="curve" smooth="yes"/>
      <point x="287" y="53"/>
      <point x="268" y="72"/>
      <point x="268" y="120" type="curve" smooth="yes"/>
      <point x="268" y="146"/>
      <point x="273" y="177"/>
      <point x="281" y="212" type="curve" smooth="yes"/>
      <point x="415" y="771" type="line"/>
      <point x="187" y="771" type="line"/>
      <point x="169" y="703" type="line"/>
      <point x="322" y="703" type="line"/>
      <point x="205" y="220" type="line" smooth="yes"/>
      <point x="194" y="176"/>
      <point x="190" y="139"/>
      <point x="190" y="108" type="curve" smooth="yes"/>
      <point x="190" y="27"/>
      <point x="228" y="-12"/>
    </contour>
  </outline>
</glyph>
<glyph name="m" format="2">
  <advance width="560"/>
  <unicode hex="006D"/>
  <outline>
    <contour>
      <point x="38" y="0" type="line"/>
      <point x="113" y="0" type="line"/>
      <point x="221" y="451" type="line"/>
      <point x="242" y="458"/>
      <point x="259" y="462"/>
      <point x="272" y="462" type="curve" smooth="yes"/>
      <point x="304" y="462"/>
      <point x="319" y="446"/>
      <point x="319" y="415" type="curve" smooth="yes"/>
      <point x="319" y="403"/>
      <point x="317" y="389"/>
      <point x="312" y="372" type="curve" smooth="yes"/>
      <point x="271" y="200" type="line"/>
      <point x="347" y="200" type="line"/>
      <point x="388" y="373" type="line" smooth="yes"/>
      <point x="393" y="395"/>
      <point x="395" y="414"/>
      <point x="395" y="431" type="curve"/>
      <point x="417" y="453"/>
      <point x="439" y="462"/>
      <point x="457" y="462" type="curve" smooth="yes"/>
      <point x="483" y="462"/>
      <point x="502" y="442"/>
      <point x="502" y="406" type="curve" smooth="yes"/>
      <point x="502" y="396"/>
      <point x="501" y="385"/>
      <point x="498" y="373" type="curve" smooth="yes"/>
      <point x="409" y="0" type="line"/>
      <point x="484" y="0" type="line"/>
      <point x="573" y="373" type="line" smooth="yes"/>
      <point x="578" y="394"/>
      <point x="582" y="413"/>
      <point x="582" y="429" type="curve" smooth="yes"/>
      <point x="582" y="496"/>
      <point x="538" y="531"/>
      <point x="485" y="531" type="curve" smooth="yes"/>
      <point x="450" y="531"/>
      <point x="416" y="519"/>
      <point x="378" y="493" type="curve"/>
      <point x="360" y="518"/>
      <point x="326" y="531"/>
      <point x="283" y="531" type="curve" smooth="yes"/>
      <point x="247" y="531"/>
      <point x="203" y="522"/>
      <point x="160" y="506" type="curve"/>
    </contour>
  </outline>
</glyph>
<glyph name="n" format="2">
  <advance width="560"/>
  <unicode hex="006E"/>
  <outline>
    <contour>
      <point x="36" y="0" type="line"/>
      <point x="113" y="0" type="line"/>
      <point x="221" y="449" type="line"/>
      <point x="242" y="455"/>
      <point x="280" y="459"/>
      <point x="317" y="459" type="curve" smooth="yes"/>
      <point x="406" y="459"/>
      <point x="433" y="418"/>
      <point x="433" y="359" type="curve" smooth="yes"/>
      <point x="433" y="321"/>
      <point x="421" y="277"/>
      <point x="410" y="236" type="curve" smooth="yes"/>
      <point x="354" y="0" type="line"/>
      <point x="432" y="0" type="line"/>
      <point x="494" y="258" type="line" smooth="yes"/>
      <point x="503" y="293"/>
      <point x="510" y="328"/>
      <point x="510" y="360" type="curve" smooth="yes"/>
      <point x="510" y="457"/>
      <point x="463" y="529"/>
      <point x="343" y="529" type="curve" smooth="yes"/>
      <point x="295" y="529"/>
      <point x="220" y="519"/>
      <point x="154" y="500" type="curve"/>
    </contour>
  </outline>
</glyph>
<glyph name="o" format="2">
  <advance width="560"/>
  <unicode hex="006F"/>
  <outline>
    <contour>
      <point x="267" y="-11" type="curve" smooth="yes"/>
      <point x="488" y="-11"/>
      <point x="566" y="205"/>
      <point x="566" y="354" type="curve" smooth="yes"/>
      <point x="566" y="461"/>
      <point x="502" y="530"/>
      <point x="392" y="530" type="curve" smooth="yes"/>
      <point x="172" y="530"/>
      <point x="95" y="313"/>
      <point x="95" y="165" type="curve" smooth="yes"/>
      <point x="95" y="54"/>
      <point x="163" y="-11"/>
    </contour>
    <contour>
      <point x="279" y="61" type="curve" smooth="yes"/>
      <point x="207" y="61"/>
      <point x="175" y="98"/>
      <point x="175" y="165" type="curve" smooth="yes"/>
      <point x="175" y="300"/>
      <point x="251" y="459"/>
      <point x="381" y="459" type="curve" smooth="yes"/>
      <point x="455" y="459"/>
      <point x="487" y="420"/>
      <point x="487" y="354" type="curve" smooth="yes"/>
      <point x="487" y="219"/>
      <point x="409" y="61"/>
    </contour>
  </outline>
</glyph>
<glyph name="p" format="2">
  <advance width="560"/>
  <unicode hex="0070"/>
  <outline>
    <contour>
      <point x="20" y="-185" type="line"/>
      <point x="112" y="-185" type="line"/>
      <point x="155" y="-4" type="line"/>
      <point x="168" y="-8"/>
      <point x="198" y="-12"/>
      <point x="213" y="-12" type="curve" smooth="yes"/>
      <point x="456" y="-12"/>
      <point x="566" y="165"/>
      <point x="566" y="349" type="curve" smooth="yes"/>
      <point x="566" y="455"/>
      <point x="507" y="532"/>
      <point x="377" y="532" type="curve" smooth="yes"/>
      <point x="321" y="532"/>
      <point x="239" y="521"/>
      <point x="184" y="498" type="curve"/>
    </contour>
    <contour>
      <point x="228" y="71" type="curve" smooth="yes"/>
      <point x="214" y="71"/>
      <point x="188" y="73"/>
      <point x="175" y="76" type="curve"/>
      <point x="263" y="441" type="line"/>
      <point x="282" y="446"/>
      <point x="321" y="454"/>
      <point x="354" y="454" type="curve" smooth="yes"/>
      <point x="450" y="454"/>
      <point x="474" y="398"/>
      <point x="474" y="338" type="curve" smooth="yes"/>
      <point x="474" y="197"/>
      <point x="380" y="71"/>
    </contour>
  </outline>
</glyph>
<glyph name="q" format="2">
  <advance width="560"/>
  <unicode hex="0071"/>
  <outline>
    <contour>
      <point x="326" y="-185" type="line"/>
      <point x="418" y="-185" type="line"/>
      <point x="589" y="505" type="line"/>
      <point x="557" y="522"/>
      <point x="489" y="531"/>
      <point x="452" y="531" type="curve" smooth="yes"/>
      <point x="209" y="531"/>
      <point x="90" y="352"/>
      <point x="90" y="174" type="curve" smooth="yes"/>
      <point x="90" y="64"/>
      <point x="143" y="-12"/>
      <point x="260" y="-12" type="curve" smooth="yes"/>
      <point x="304" y="-12"/>
      <point x="343" y="1"/>
      <point x="374" y="17" type="curve"/>
    </contour>
    <contour>
      <point x="284" y="64" type="curve" smooth="yes"/>
      <point x="198" y="64"/>
      <point x="183" y="124"/>
      <point x="183" y="184" type="curve" smooth="yes"/>
      <point x="183" y="325"/>
      <point x="281" y="454"/>
      <point x="433" y="454" type="curve" smooth="yes"/>
      <point x="446" y="454"/>
      <point x="463" y="451"/>
      <point x="480" y="448" type="curve"/>
      <point x="398" y="108" type="line"/>
      <point x="365" y="83"/>
      <point x="323" y="64"/>
    </contour>
  </outline>
</glyph>
<glyph name="r" format="2">
  <advance width="560"/>
  <unicode hex="0072"/>
  <outline>
    <contour>
      <point x="107" y="0" type="line"/>
      <point x="185" y="0" type="line"/>
      <point x="291" y="445" type="line"/>
      <point x="343" y="458"/>
      <point x="394" y="463"/>
      <point x="442" y="463" type="curve" smooth="yes"/>
      <point x="483" y="463"/>
      <point x="500" y="462"/>
      <point x="551" y="450" type="curve"/>
      <point x="581" y="517" type="line"/>
      <point x="525" y="529"/>
      <point x="503" y="530"/>
      <point x="467" y="530" type="curve" smooth="yes"/>
      <point x="387" y="530"/>
      <point x="310" y="519"/>
      <point x="225" y="493" type="curve"/>
    </contour>
  </outline>
</glyph>
<glyph name="s" format="2">
  <advance width="560"/>
  <unicode hex="0073"/>
  <outline>
    <contour>
      <point x="267" y="-13" type="curve" smooth="yes"/>
      <point x="402" y="-13"/>
      <point x="495" y="43"/>
      <point x="495" y="156" type="curve" smooth="yes"/>
      <point x="495" y="233"/>
      <point x="444" y="267"/>
      <point x="374" y="295" type="curve" smooth="yes"/>
      <point x="319" y="318"/>
      <point x="278" y="340"/>
      <point x="278" y="376" type="curve" smooth="yes"/>
      <point x="278" y="436"/>
      <point x="337" y="454"/>
      <point x="398" y="454" type="curve" smooth="yes"/>
      <point x="454" y="454"/>
      <point x="503" y="439"/>
      <point x="525" y="426" type="curve"/>
      <point x="560" y="504" type="line"/>
      <point x="534" y="517"/>
      <point x="480" y="532"/>
      <point x="411" y="532" type="curve" smooth="yes"/>
      <point x="270" y="532"/>
      <point x="188" y="467"/>
      <point x="188" y="367" type="curve" smooth="yes"/>
      <point x="188" y="289"/>
      <point x="246" y="263"/>
      <point x="306" y="234" type="curve" smooth="yes"/>
      <point x="367" y="205"/>
      <point x="405" y="186"/>
      <point x="405" y="144" type="curve" smooth="yes"/>
      <point x="405" y="84"/>
      <point x="337" y="65"/>
      <point x="271" y="65" type="curve" smooth="yes"/>
      <point x="203" y="65"/>
      <point x="149" y="91"/>
      <point x="125" y="106" type="curve"/>
      <point x="88" y="28" type="line"/>
      <point x="116" y="12"/>
      <point x="181" y="-13"/>
    </contour>
  </outline>
</glyph>
<glyph name="t" format="2">
  <advance width="560"/>
  <unicode hex="0074"/>
  <outline>
    <contour>
      <point x="307" y="-12" type="curve" smooth="yes"/>
      <point x="359" y="-12"/>
      <point x="403" y="0"/>
      <point x="445" y="14" type="curve"/>
      <point x="447" y="82" type="line"/>
      <point x="409" y="69"/>
      <point x="363" y="56"/>
      <point x="315" y="56" type="curve" smooth="yes"/>
      <point x="265" y="56"/>
      <point x="240" y="72"/>
      <point x="240" y="132" type="curve" smooth="yes"/>
      <point x="240" y="160"/>
      <point x="249" y="193"/>
      <point x="258" y="224" type="curve" smooth="yes"/>
      <point x="311" y="451" type="line"/>
      <point x="512" y="451" type="line"/>
      <point x="527" y="518" type="line"/>
      <point x="328" y="518" type="line"/>
      <point x="367" y="681" type="line"/>
      <point x="285" y="667" type="line"/>
      <point x="249" y="518" type="line"/>
      <point x="136" y="518" type="line"/>
      <point x="123" y="451" type="line"/>
      <point x="233" y="451" type="line"/>
      <point x="179" y="232" type="line" smooth="yes"/>
      <point x="170" y="194"/>
      <point x="163" y="153"/>
      <point x="163" y="117" type="curve" smooth="yes"/>
      <point x="163" y="12"/>
      <point x="232" y="-12"/>
    </contour>
  </outline>
</glyph>
<glyph name="u" format="2">
  <advance width="560"/>
  <unicode hex="0075"/>
  <outline>
    <contour>
      <point x="207" y="-11" type="curve" smooth="yes"/>
      <point x="288" y="-11"/>
      <point x="339" y="23"/>
      <point x="368" y="52" type="curve"/>
      <point x="373" y="27"/>
      <point x="379" y="11"/>
      <point x="385" y="-5" type="curve"/>
      <point x="455" y="5" type="line"/>
      <point x="442" y="40"/>
      <point x="439" y="65"/>
      <point x="439" y="92" type="curve" smooth="yes"/>
      <point x="439" y="124"/>
      <point x="444" y="152"/>
      <point x="452" y="185" type="curve" smooth="yes"/>
      <point x="532" y="518" type="line"/>
      <point x="454" y="518" type="line"/>
      <point x="376" y="194" type="line" smooth="yes"/>
      <point x="368" y="167"/>
      <point x="367" y="143"/>
      <point x="366" y="122" type="curve"/>
      <point x="336" y="87"/>
      <point x="283" y="55"/>
      <point x="221" y="55" type="curve" smooth="yes"/>
      <point x="148" y="55"/>
      <point x="133" y="105"/>
      <point x="133" y="156" type="curve" smooth="yes"/>
      <point x="133" y="201"/>
      <point x="147" y="247"/>
      <point x="153" y="273" type="curve" smooth="yes"/>
      <point x="212" y="518" type="line"/>
      <point x="132" y="518" type="line"/>
      <point x="69" y="250" type="line" smooth="yes"/>
      <point x="62" y="219"/>
      <point x="55" y="187"/>
      <point x="55" y="152" type="curve" smooth="yes"/>
      <point x="55" y="63"/>
      <point x="93" y="-11"/>
    </contour>
  </outline>
</glyph>
<glyph name="v" format="2">
  <advance width="560"/>
  <unicode hex="0076"/>
  <outline>
    <contour>
      <point x="216" y="0" type="curve"/>
      <point x="301" y="0" type="line"/>
      <point x="411" y="132"/>
      <point x="539" y="344"/>
      <point x="598" y="520" type="curve"/>
      <point x="504" y="520" type="line"/>
      <point x="464" y="391"/>
      <point x="364" y="205"/>
      <point x="284" y="104" type="curve"/>
      <point x="263" y="215"/>
      <point x="248" y="389"/>
      <point x="244" y="520" type="curve"/>
      <point x="150" y="520" type="line"/>
      <point x="155" y="328"/>
      <point x="184" y="137"/>
    </contour>
  </outline>
</glyph>
<glyph name="w" format="2">
  <advance width="560"/>
  <unicode hex="0077"/>
  <outline>
    <contour>
      <point x="90" y="0" type="curve"/>
      <point x="166" y="0" type="line"/>
      <point x="228" y="93"/>
      <point x="263" y="150"/>
      <point x="334" y="271" type="curve"/>
      <point x="343" y="159"/>
      <point x="352" y="91"/>
      <point x="365" y="0" type="curve"/>
      <point x="441" y="0" type="line"/>
      <point x="522" y="171"/>
      <point x="598" y="370"/>
      <point x="647" y="520" type="curve"/>
      <point x="561" y="520" type="line"/>
      <point x="524" y="399"/>
      <point x="478" y="263"/>
      <point x="417" y="120" type="curve"/>
      <point x="407" y="244"/>
      <point x="398" y="286"/>
      <point x="394" y="393" type="curve"/>
      <point x="329" y="393" type="line"/>
      <point x="273" y="290"/>
      <point x="244" y="239"/>
      <point x="169" y="113" type="curve"/>
      <point x="185" y="302"/>
      <point x="197" y="402"/>
      <point x="217" y="520" type="curve"/>
      <point x="130" y="520" type="line"/>
      <point x="109" y="372"/>
      <point x="92" y="183"/>
    </contour>
  </outline>
</glyph>
<glyph name="x" format="2">
  <advance width="560"/>
  <unicode hex="0078"/>
  <outline>
    <contour>
      <point x="23" y="0" type="line"/>
      <point x="118" y="0" type="line"/>
      <point x="327" y="205" type="line"/>
      <point x="362" y="133"/>
      <point x="386" y="76"/>
      <point x="414" y="0" type="curve"/>
      <point x="498" y="0" type="line"/>
      <point x="461" y="100"/>
      <point x="419" y="185"/>
      <point x="378" y="264" type="curve"/>
      <point x="407" y="295"/>
      <point x="586" y="493"/>
      <point x="604" y="518" type="curve"/>
      <point x="518" y="518" type="line"/>
      <point x="494" y="485"/>
      <point x="412" y="400"/>
      <point x="345" y="327" type="curve"/>
      <point x="251" y="518" type="line"/>
      <point x="161" y="518" type="line"/>
      <point x="290" y="268" type="line"/>
    </contour>
  </outline>
</glyph>
<glyph name="y" format="2">
  <advance width="560"/>
  <unicode hex="0079"/>
  <outline>
    <contour>
      <point x="67" y="-188" type="curve" smooth="yes"/>
      <point x="215" y="-188"/>
      <point x="295" y="-88"/>
      <point x="379" y="38" type="curve" smooth="yes"/>
      <point x="491" y="204"/>
      <point x="571" y="419"/>
      <point x="600" y="520" type="curve"/>
      <point x="503" y="520" type="line"/>
      <point x="484" y="440"/>
      <point x="418" y="244"/>
      <point x="317" y="84" type="curve"/>
      <point x="280" y="225"/>
      <point x="251" y="401"/>
      <point x="248" y="520" type="curve"/>
      <point x="153" y="520" type="line"/>
      <point x="160" y="337"/>
      <point x="203" y="155"/>
      <point x="252" y="-7" type="curve"/>
      <point x="202" y="-80"/>
      <point x="155" y="-109"/>
      <point x="77" y="-109" type="curve" smooth="yes"/>
      <point x="49" y="-109"/>
      <point x="25" y="-101"/>
      <point x="12" y="-90" type="curve"/>
      <point x="-20" y="-166" type="line"/>
      <point x="-4" y="-177"/>
      <point x="30" y="-188"/>
    </contour>
  </outline>
</glyph>
<glyph name="z" format="2">
  <advance width="560"/>
  <unicode hex="007A"/>
  <outline>
    <contour>
      <point x="68" y="0" type="line"/>
      <point x="448" y="0" type="line"/>
      <point x="463" y="67" type="line"/>
      <point x="174" y="67" type="line"/>
      <point x="240" y="162"/>
      <point x="466" y="387"/>
      <point x="548" y="462" type="curve"/>
      <point x="563" y="518" type="line"/>
      <point x="210" y="518" type="line"/>
      <point x="192" y="451" type="line"/>
      <point x="445" y="451" type="line"/>
      <point x="350" y="371"/>
      <point x="161" y="174"/>
      <point x="81" y="51" type="curve"/>
    </contour>
  </outline>
</glyph>
<glyph name="braceleft" format="2">
  <advance width="560"/>
  <unicode hex="007B"/>
  <outline>
    <contour>
      <point x="265" y="-185" type="curve" smooth="yes"/>
      <point x="361" y="-185" type="line"/>
      <point x="378" y="-122" type="line"/>
      <point x="286" y="-122" type="line" smooth="yes"/>
      <point x="220" y="-122"/>
      <point x="190" y="-114"/>
      <point x="190" y="-65" type="curve" smooth="yes"/>
      <point x="190" y="-54"/>
      <point x="191" y="-42"/>
      <point x="196" y="-22" type="curve" smooth="yes"/>
      <point x="236" y="145" type="line" smooth="yes"/>
      <point x="241" y="169"/>
      <point x="247" y="191"/>
      <point x="247" y="215" type="curve" smooth="yes"/>
      <point x="247" y="247"/>
      <point x="236" y="276"/>
      <point x="214" y="299" type="curve"/>
      <point x="262" y="326"/>
      <point x="289" y="373"/>
      <point x="311" y="461" type="curve" smooth="yes"/>
      <point x="348" y="620" type="line" smooth="yes"/>
      <point x="369" y="710"/>
      <point x="412" y="721"/>
      <point x="488" y="721" type="curve" smooth="yes"/>
      <point x="580" y="721" type="line"/>
      <point x="597" y="783" type="line"/>
      <point x="510" y="783" type="line" smooth="yes"/>
      <point x="361" y="783"/>
      <point x="304" y="738"/>
      <point x="274" y="613" type="curve" smooth="yes"/>
      <point x="231" y="428" type="line" smooth="yes"/>
      <point x="220" y="383"/>
      <point x="177" y="330"/>
      <point x="114" y="330" type="curve" smooth="yes"/>
      <point x="70" y="330" type="line"/>
      <point x="55" y="268" type="line"/>
      <point x="96" y="268" type="line" smooth="yes"/>
      <point x="151" y="268"/>
      <point x="173" y="236"/>
      <point x="173" y="197" type="curve" smooth="yes"/>
      <point x="173" y="190"/>
      <point x="173" y="184"/>
      <point x="170" y="175" type="curve" smooth="yes"/>
      <point x="123" y="-24" type="line" smooth="yes"/>
      <point x="118" y="-44"/>
      <point x="116" y="-64"/>
      <point x="116" y="-80" type="curve" smooth="yes"/>
      <point x="116" y="-156"/>
      <point x="166" y="-185"/>
    </contour>
  </outline>
</glyph>
<glyph name="bar" format="2">
  <advance width="560"/>
  <unicode hex="007C"/>
  <outline>
    <contour>
      <point x="180" y="-185" type="line"/>
      <point x="253" y="-185" type="line"/>
      <point x="486" y="783" type="line"/>
      <point x="413" y="783" type="line"/>
    </contour>
  </outline>
</glyph>
<glyph name="braceright" format="2">
  <advance width="560"/>
  <unicode hex="007D"/>
  <outline>
    <contour>
      <point x="-1" y="-185" type="line"/>
      <point x="85" y="-185" type="line" smooth="yes"/>
      <point x="233" y="-185"/>
      <point x="291" y="-141"/>
      <point x="322" y="-15" type="curve" smooth="yes"/>
      <point x="365" y="171" type="line" smooth="yes"/>
      <point x="375" y="215"/>
      <point x="417" y="268"/>
      <point x="482" y="268" type="curve" smooth="yes"/>
      <point x="524" y="268" type="line"/>
      <point x="540" y="330" type="line"/>
      <point x="497" y="330" type="line" smooth="yes"/>
      <point x="444" y="330"/>
      <point x="421" y="362"/>
      <point x="421" y="402" type="curve" smooth="yes"/>
      <point x="421" y="408"/>
      <point x="423" y="414"/>
      <point x="424" y="423" type="curve" smooth="yes"/>
      <point x="473" y="621" type="line" smooth="yes"/>
      <point x="476" y="643"/>
      <point x="479" y="662"/>
      <point x="479" y="678" type="curve" smooth="yes"/>
      <point x="479" y="754"/>
      <point x="429" y="783"/>
      <point x="329" y="783" type="curve" smooth="yes"/>
      <point x="233" y="783" type="line"/>
      <point x="216" y="721" type="line"/>
      <point x="308" y="721" type="line" smooth="yes"/>
      <point x="374" y="721"/>
      <point x="406" y="712"/>
      <point x="406" y="663" type="curve" smooth="yes"/>
      <point x="406" y="652"/>
      <point x="403" y="641"/>
      <point x="399" y="621" type="curve" smooth="yes"/>
      <point x="358" y="453" type="line" smooth="yes"/>
      <point x="353" y="430"/>
      <point x="348" y="407"/>
      <point x="348" y="383" type="curve" smooth="yes"/>
      <point x="348" y="351"/>
      <point x="359" y="324"/>
      <point x="380" y="299" type="curve"/>
      <point x="332" y="274"/>
      <point x="305" y="225"/>
      <point x="284" y="137" type="curve" smooth="yes"/>
      <point x="246" y="-20" type="line" smooth="yes"/>
      <point x="226" y="-110"/>
      <point x="182" y="-122"/>
      <point x="106" y="-122" type="curve" smooth="yes"/>
      <point x="14" y="-122" type="line"/>
    </contour>
  </outline>
</glyph>
<glyph name="asciitilde" format="2">
  <advance width="560"/>
  <unicode hex="007E"/>
  <outline>
    <contour>
      <point x="422" y="218" type="curve" smooth="yes"/>
      <point x="513" y="218"/>
      <point x="560" y="299"/>
      <point x="576" y="348" type="curve"/>
      <point x="521" y="365" type="line"/>
      <point x="511" y="343"/>
      <point x="481" y="284"/>
      <point x="433" y="284" type="curve" smooth="yes"/>
      <point x="394" y="284"/>
      <point x="377" y="308"/>
      <point x="343" y="330" type="curve" smooth="yes"/>
      <point x="319" y="349"/>
      <point x="294" y="370"/>
      <point x="247" y="370" type="curve" smooth="yes"/>
      <point x="157" y="370"/>
      <point x="111" y="290"/>
      <point x="92" y="241" type="curve"/>
      <point x="148" y="223" type="line"/>
      <point x="159" y="245"/>
      <point x="186" y="304"/>
      <point x="235" y="304" type="curve" smooth="yes"/>
      <point x="275" y="304"/>
      <point x="294" y="283"/>
      <point x="326" y="258" type="curve" smooth="yes"/>
      <point x="351" y="241"/>
      <point x="375" y="218"/>
    </contour>
  </outline>
</glyph>
<glyph name="exclamdown" format="2">
  <advance width="560"/>
  <unicode hex="00A1"/>
  <outline>
    <contour>
      <point x="126" y="-186" type="line"/>
      <point x="208" y="-186" type="line"/>
      <point x="254" y="4" type="line" smooth="yes"/>
      <point x="282" y="121"/>
      <point x="290" y="191"/>
      <point x="301" y="275" type="curve"/>
      <point x="252" y="275" type="line"/>
      <point x="223" y="186"/>
      <point x="198" y="114"/>
      <point x="171" y="2" type="curve" smooth="yes"/>
    </contour>
    <contour>
      <point x="311" y="379" type="curve" smooth="yes"/>
      <point x="350" y="379"/>
      <point x="383" y="406"/>
      <point x="383" y="458" type="curve" smooth="yes"/>
      <point x="383" y="501"/>
      <point x="357" y="520"/>
      <point x="322" y="520" type="curve" smooth="yes"/>
      <point x="286" y="520"/>
      <point x="248" y="491"/>
      <point x="248" y="443" type="curve" smooth="yes"/>
      <point x="248" y="401"/>
      <point x="276" y="379"/>
    </contour>
  </outline>
</glyph>
<glyph name="cent" format="2">
  <advance width="560"/>
  <unicode hex="00A2"/>
  <outline>
    <contour>
      <point x="180" y="-109" type="line"/>
      <point x="243" y="-109" type="line"/>
      <point x="276" y="31" type="line"/>
      <point x="348" y="33"/>
      <point x="410" y="49"/>
      <point x="433" y="64" type="curve"/>
      <point x="428" y="131" type="line"/>
      <point x="416" y="118"/>
      <point x="346" y="98"/>
      <point x="295" y="98" type="curve" smooth="yes"/>
      <point x="174" y="98"/>
      <point x="143" y="156"/>
      <point x="143" y="219" type="curve" smooth="yes"/>
      <point x="143" y="344"/>
      <point x="242" y="488"/>
      <point x="395" y="488" type="curve" smooth="yes"/>
      <point x="443" y="488"/>
      <point x="468" y="483"/>
      <point x="492" y="470" type="curve"/>
      <point x="520" y="533" type="line"/>
      <point x="485" y="550"/>
      <point x="445" y="554"/>
      <point x="404" y="556" type="curve"/>
      <point x="436" y="693" type="line"/>
      <point x="372" y="693" type="line"/>
      <point x="340" y="549" type="line"/>
      <point x="155" y="518"/>
      <point x="66" y="356"/>
      <point x="66" y="220" type="curve" smooth="yes"/>
      <point x="66" y="108"/>
      <point x="118" y="57"/>
      <point x="213" y="35" type="curve"/>
    </contour>
  </outline>
</glyph>
<glyph name="sterling" format="2">
  <advance width="560"/>
  <unicode hex="00A3"/>
  <outline>
    <contour>
      <point x="103" y="0" type="curve"/>
      <point x="486" y="0" type="line"/>
      <point x="503" y="70" type="line"/>
      <point x="209" y="70" type="line"/>
      <point x="238" y="141"/>
      <point x="263" y="221"/>
      <point x="282" y="304" type="curve"/>
      <point x="475" y="304" type="line"/>
      <point x="490" y="368" type="line"/>
      <point x="298" y="368" type="line"/>
      <point x="318" y="456" type="line" smooth="yes"/>
      <point x="351" y="591"/>
      <point x="403" y="635"/>
      <point x="484" y="635" type="curve" smooth="yes"/>
      <point x="528" y="635"/>
      <point x="558" y="624"/>
      <point x="590" y="608" type="curve"/>
      <point x="628" y="675" type="line"/>
      <point x="600" y="689"/>
      <point x="573" y="705"/>
      <point x="501" y="705" type="curve" smooth="yes"/>
      <point x="356" y="705"/>
      <point x="287" y="657"/>
      <point x="236" y="444" type="curve" smooth="yes"/>
      <point x="218" y="367" type="line"/>
      <point x="124" y="367" type="line"/>
      <point x="108" y="304" type="line"/>
      <point x="203" y="304" type="line"/>
      <point x="174" y="184"/>
      <point x="136" y="90"/>
    </contour>
  </outline>
</glyph>
<glyph name="currency" format="2">
  <advance width="560"/>
  <unicode hex="00A4"/>
  <outline>
    <contour>
      <point x="114" y="112" type="line"/>
      <point x="188" y="187" type="line"/>
      <point x="219" y="166"/>
      <point x="257" y="157"/>
      <point x="297" y="157" type="curve" smooth="yes"/>
      <point x="338" y="157"/>
      <point x="373" y="166"/>
      <point x="407" y="187" type="curve"/>
      <point x="482" y="112" type="line"/>
      <point x="529" y="161" type="line"/>
      <point x="455" y="236" type="line"/>
      <point x="475" y="266"/>
      <point x="486" y="301"/>
      <point x="486" y="346" type="curve" smooth="yes"/>
      <point x="486" y="390"/>
      <point x="475" y="427"/>
      <point x="455" y="459" type="curve"/>
      <point x="529" y="533" type="line"/>
      <point x="481" y="581" type="line"/>
      <point x="406" y="505" type="line"/>
      <point x="375" y="526"/>
      <point x="338" y="537"/>
      <point x="297" y="537" type="curve" smooth="yes"/>
      <point x="258" y="537"/>
      <point x="219" y="526"/>
      <point x="188" y="505" type="curve"/>
      <point x="114" y="581" type="line"/>
      <point x="66" y="533" type="line"/>
      <point x="139" y="459" type="line"/>
      <point x="119" y="426"/>
      <point x="109" y="390"/>
      <point x="109" y="347" type="curve" smooth="yes"/>
      <point x="109" y="304"/>
      <point x="119" y="266"/>
      <point x="139" y="235" type="curve"/>
      <point x="66" y="161" type="line"/>
    </contour>
    <contour>
      <point x="297" y="212" type="curve" smooth="yes"/>
      <point x="228" y="212"/>
      <point x="170" y="265"/>
      <point x="170" y="347" type="curve" smooth="yes"/>
      <point x="170" y="428"/>
      <point x="228" y="482"/>
      <point x="297" y="482" type="curve" smooth="yes"/>
      <point x="367" y="482"/>
      <point x="426" y="428"/>
      <point x="426" y="346" type="curve" smooth="yes"/>
      <point x="426" y="265"/>
      <point x="367" y="212"/>
    </contour>
  </outline>
</glyph>
<glyph name="yen" format="2">
  <advance width="560"/>
  <unicode hex="00A5"/>
  <outline>
    <contour>
      <point x="220" y="0" type="line"/>
      <point x="311" y="0" type="line"/>
      <point x="337" y="106" type="line"/>
      <point x="498" y="106" type="line"/>
      <point x="515" y="177" type="line"/>
      <point x="354" y="177" type="line"/>
      <point x="379" y="279" type="line"/>
      <point x="539" y="279" type="line"/>
      <point x="557" y="351" type="line"/>
      <point x="419" y="351" type="line"/>
      <point x="519" y="466"/>
      <point x="605" y="575"/>
      <point x="690" y="693" type="curve"/>
      <point x="585" y="693" type="line"/>
      <point x="517" y="591"/>
      <point x="431" y="477"/>
      <point x="354" y="385" type="curve"/>
      <point x="320" y="475"/>
      <point x="283" y="585"/>
      <point x="262" y="693" type="curve"/>
      <point x="165" y="693" type="line"/>
      <point x="197" y="572"/>
      <point x="230" y="470"/>
      <point x="277" y="351" type="curve"/>
      <point x="141" y="351" type="line"/>
      <point x="124" y="279" type="line"/>
      <point x="286" y="279" type="line"/>
      <point x="262" y="177" type="line"/>
      <point x="100" y="177" type="line"/>
      <point x="83" y="106" type="line"/>
      <point x="245" y="106" type="line"/>
    </contour>
  </outline>
</glyph>
<glyph name="brokenbar" format="2">
  <advance width="560"/>
  <unicode hex="00A6"/>
  <outline>
    <contour>
      <point x="321" y="404" type="line"/>
      <point x="392" y="404" type="line"/>
      <point x="485" y="783" type="line"/>
      <point x="412" y="783" type="line"/>
    </contour>
    <contour>
      <point x="179" y="-185" type="line"/>
      <point x="252" y="-185" type="line"/>
      <point x="343" y="194" type="line"/>
      <point x="270" y="194" type="line"/>
    </contour>
  </outline>
</glyph>
<glyph name="section" format="2">
  <advance width="560"/>
  <unicode hex="00A7"/>
  <outline>
    <contour>
      <point x="178" y="-109" type="curve" smooth="yes"/>
      <point x="321" y="-109"/>
      <point x="406" y="-43"/>
      <point x="406" y="57" type="curve" smooth="yes"/>
      <point x="406" y="114"/>
      <point x="381" y="139"/>
      <point x="364" y="153" type="curve"/>
      <point x="430" y="190"/>
      <point x="486" y="244"/>
      <point x="486" y="323" type="curve" smooth="yes"/>
      <point x="486" y="426"/>
      <point x="425" y="447"/>
      <point x="348" y="474" type="curve" smooth="yes"/>
      <point x="290" y="492"/>
      <point x="266" y="511"/>
      <point x="266" y="552" type="curve" smooth="yes"/>
      <point x="266" y="619"/>
      <point x="322" y="644"/>
      <point x="394" y="644" type="curve" smooth="yes"/>
      <point x="461" y="644"/>
      <point x="496" y="623"/>
      <point x="515" y="615" type="curve"/>
      <point x="545" y="680" type="line"/>
      <point x="518" y="691"/>
      <point x="474" y="709"/>
      <point x="404" y="709" type="curve" smooth="yes"/>
      <point x="281" y="709"/>
      <point x="187" y="651"/>
      <point x="187" y="535" type="curve" smooth="yes"/>
      <point x="187" y="497"/>
      <point x="198" y="472"/>
      <point x="216" y="454" type="curve"/>
      <point x="151" y="420"/>
      <point x="94" y="358"/>
      <point x="94" y="286" type="curve" smooth="yes"/>
      <point x="94" y="183"/>
      <point x="159" y="157"/>
      <point x="234" y="135" type="curve" smooth="yes"/>
      <point x="289" y="116"/>
      <point x="327" y="103"/>
      <point x="327" y="46" type="curve" smooth="yes"/>
      <point x="327" y="-10"/>
      <point x="277" y="-44"/>
      <point x="188" y="-44" type="curve" smooth="yes"/>
      <point x="118" y="-44"/>
      <point x="64" y="-23"/>
      <point x="44" y="-11" type="curve"/>
      <point x="12" y="-76" type="line"/>
      <point x="48" y="-95"/>
      <point x="103" y="-109"/>
    </contour>
    <contour>
      <point x="313" y="188" type="curve"/>
      <point x="310" y="188"/>
      <point x="307" y="188"/>
      <point x="301" y="190" type="curve" smooth="yes"/>
      <point x="233" y="215"/>
      <point x="171" y="233"/>
      <point x="171" y="292" type="curve" smooth="yes"/>
      <point x="171" y="351"/>
      <point x="226" y="403"/>
      <point x="271" y="420" type="curve"/>
      <point x="273" y="420"/>
      <point x="275" y="417"/>
      <point x="282" y="415" type="curve" smooth="yes"/>
      <point x="349" y="391"/>
      <point x="409" y="373"/>
      <point x="409" y="316" type="curve" smooth="yes"/>
      <point x="409" y="254"/>
      <point x="358" y="205"/>
    </contour>
  </outline>
</glyph>
<glyph name="dieresis" format="2">
  <advance width="560"/>
  <unicode hex="00A8"/>
  <outline>
    <contour>
      <point x="285" y="620" type="curve" smooth="yes"/>
      <point x="315" y="620"/>
      <point x="344" y="644"/>
      <point x="344" y="679" type="curve" smooth="yes"/>
      <point x="344" y="709"/>
      <point x="322" y="728"/>
      <point x="295" y="728" type="curve" smooth="yes"/>
      <point x="267" y="728"/>
      <point x="238" y="703"/>
      <point x="238" y="668" type="curve" smooth="yes"/>
      <point x="238" y="638"/>
      <point x="259" y="620"/>
    </contour>
    <contour>
      <point x="466" y="620" type="curve" smooth="yes"/>
      <point x="495" y="620"/>
      <point x="524" y="644"/>
      <point x="524" y="679" type="curve" smooth="yes"/>
      <point x="524" y="709"/>
      <point x="502" y="728"/>
      <point x="476" y="728" type="curve" smooth="yes"/>
      <point x="448" y="728"/>
      <point x="418" y="703"/>
      <point x="418" y="668" type="curve" smooth="yes"/>
      <point x="418" y="638"/>
      <point x="440" y="620"/>
    </contour>
  </outline>
</glyph>
<glyph name="copyright" format="2">
  <advance width="560"/>
  <unicode hex="00A9"/>
  <outline>
    <contour>
      <point x="320" y="-11" type="curve" smooth="yes"/>
      <point x="437" y="-11"/>
      <point x="560" y="81"/>
      <point x="560" y="262" type="curve" smooth="yes"/>
      <point x="560" y="441"/>
      <point x="441" y="532"/>
      <point x="323" y="532" type="curve" smooth="yes"/>
      <point x="206" y="532"/>
      <point x="83" y="441"/>
      <point x="83" y="259" type="curve" smooth="yes"/>
      <point x="83" y="81"/>
      <point x="202" y="-11"/>
    </contour>
    <contour>
      <point x="329" y="116" type="curve" smooth="yes"/>
      <point x="353" y="116"/>
      <point x="383" y="122"/>
      <point x="408" y="134" type="curve"/>
      <point x="389" y="194" type="line"/>
      <point x="374" y="187"/>
      <point x="354" y="184"/>
      <point x="342" y="184" type="curve" smooth="yes"/>
      <point x="296" y="184"/>
      <point x="271" y="214"/>
      <point x="271" y="261" type="curve" smooth="yes"/>
      <point x="271" y="298"/>
      <point x="290" y="334"/>
      <point x="336" y="334" type="curve" smooth="yes"/>
      <point x="351" y="334"/>
      <point x="367" y="332"/>
      <point x="383" y="325" type="curve"/>
      <point x="407" y="385" type="line"/>
      <point x="380" y="396"/>
      <point x="353" y="400"/>
      <point x="330" y="400" type="curve" smooth="yes"/>
      <point x="241" y="400"/>
      <point x="200" y="328"/>
      <point x="200" y="256" type="curve" smooth="yes"/>
      <point x="200" y="186"/>
      <point x="243" y="116"/>
    </contour>
    <contour>
      <point x="323" y="45" type="curve" smooth="yes"/>
      <point x="234" y="45"/>
      <point x="144" y="116"/>
      <point x="144" y="261" type="curve" smooth="yes"/>
      <point x="144" y="403"/>
      <point x="233" y="475"/>
      <point x="323" y="475" type="curve" smooth="yes"/>
      <point x="410" y="475"/>
      <point x="500" y="405"/>
      <point x="500" y="259" type="curve" smooth="yes"/>
      <point x="500" y="118"/>
      <point x="411" y="45"/>
    </contour>
  </outline>
</glyph>
<glyph name="ordfeminine" format="2">
  <advance width="560"/>
  <unicode hex="00AA"/>
  <outline>
    <contour>
      <point x="323" y="338" type="curve" smooth="yes"/>
      <point x="371" y="338"/>
      <point x="403" y="357"/>
      <point x="418" y="375" type="curve"/>
      <point x="420" y="361"/>
      <point x="428" y="345"/>
      <point x="433" y="339" type="curve"/>
      <point x="495" y="350" type="line"/>
      <point x="476" y="395"/>
      <point x="472" y="428"/>
      <point x="485" y="482" type="curve" smooth="yes"/>
      <point x="543" y="690" type="line"/>
      <point x="520" y="702"/>
      <point x="481" y="708"/>
      <point x="461" y="708" type="curve" smooth="yes"/>
      <point x="292" y="708"/>
      <point x="206" y="587"/>
      <point x="206" y="462" type="curve" smooth="yes"/>
      <point x="206" y="384"/>
      <point x="238" y="338"/>
    </contour>
    <contour>
      <point x="335" y="387" type="curve" smooth="yes"/>
      <point x="280" y="387"/>
      <point x="269" y="426"/>
      <point x="269" y="466" type="curve" smooth="yes"/>
      <point x="269" y="563"/>
      <point x="340" y="658"/>
      <point x="451" y="658" type="curve" smooth="yes"/>
      <point x="462" y="658"/>
      <point x="468" y="656"/>
      <point x="469" y="655" type="curve"/>
      <point x="426" y="489" type="line" smooth="yes"/>
      <point x="422" y="475"/>
      <point x="416" y="449"/>
      <point x="415" y="430" type="curve"/>
      <point x="396" y="407"/>
      <point x="367" y="387"/>
    </contour>
  </outline>
</glyph>
<glyph name="guillemetleft" format="2">
  <advance width="560"/>
  <unicode hex="00AB"/>
  <outline>
    <contour>
      <point x="364" y="103" type="line"/>
      <point x="418" y="132" type="line"/>
      <point x="365" y="278" type="line"/>
      <point x="501" y="446" type="line"/>
      <point x="454" y="483" type="line"/>
      <point x="278" y="282" type="line"/>
    </contour>
    <contour>
      <point x="170" y="103" type="line"/>
      <point x="223" y="132" type="line"/>
      <point x="170" y="278" type="line"/>
      <point x="306" y="446" type="line"/>
      <point x="260" y="483" type="line"/>
      <point x="84" y="282" type="line"/>
    </contour>
  </outline>
</glyph>
<glyph name="guillemotleft" format="2">
  <advance width="560"/>
  <unicode hex="00AB"/>
  <outline>
    <contour>
      <point x="412" y="91" type="line"/>
      <point x="472" y="123" type="line"/>
      <point x="416" y="279" type="line"/>
      <point x="553" y="451" type="line"/>
      <point x="501" y="491" type="line"/>
      <point x="321" y="284" type="line"/>
    </contour>
    <contour>
      <point x="211" y="91" type="line"/>
      <point x="270" y="123" type="line"/>
      <point x="214" y="279" type="line"/>
      <point x="352" y="451" type="line"/>
      <point x="300" y="491" type="line"/>
      <point x="120" y="284" type="line"/>
    </contour>
  </outline>
</glyph>
<glyph name="logicalnot" format="2">
  <advance width="560"/>
  <unicode hex="00AC"/>
  <outline>
    <contour>
      <point x="433" y="48" type="line"/>
      <point x="502" y="48" type="line"/>
      <point x="581" y="384" type="line"/>
      <point x="121" y="384" type="line"/>
      <point x="104" y="315" type="line"/>
      <point x="497" y="315" type="line"/>
    </contour>
  </outline>
</glyph>
<glyph name="registered" format="2">
  <advance width="560"/>
  <unicode hex="00AE"/>
  <outline>
    <contour>
      <point x="278" y="-11" type="curve" smooth="yes"/>
      <point x="395" y="-11"/>
      <point x="518" y="81"/>
      <point x="518" y="262" type="curve" smooth="yes"/>
      <point x="518" y="441"/>
      <point x="399" y="532"/>
      <point x="281" y="532" type="curve" smooth="yes"/>
      <point x="164" y="532"/>
      <point x="41" y="441"/>
      <point x="41" y="259" type="curve" smooth="yes"/>
      <point x="41" y="81"/>
      <point x="160" y="-11"/>
    </contour>
    <contour>
      <point x="281" y="45" type="curve" smooth="yes"/>
      <point x="192" y="45"/>
      <point x="102" y="116"/>
      <point x="102" y="261" type="curve" smooth="yes"/>
      <point x="102" y="403"/>
      <point x="191" y="475"/>
      <point x="281" y="475" type="curve" smooth="yes"/>
      <point x="368" y="475"/>
      <point x="458" y="405"/>
      <point x="458" y="259" type="curve" smooth="yes"/>
      <point x="458" y="118"/>
      <point x="369" y="45"/>
    </contour>
    <contour>
      <point x="186" y="123" type="line"/>
      <point x="246" y="123" type="line"/>
      <point x="246" y="209" type="line"/>
      <point x="287" y="209" type="line"/>
      <point x="301" y="186"/>
      <point x="316" y="159"/>
      <point x="335" y="123" type="curve"/>
      <point x="399" y="123" type="line"/>
      <point x="380" y="161"/>
      <point x="359" y="199"/>
      <point x="342" y="224" type="curve"/>
      <point x="371" y="241"/>
      <point x="386" y="267"/>
      <point x="386" y="304" type="curve" smooth="yes"/>
      <point x="386" y="365"/>
      <point x="346" y="400"/>
      <point x="262" y="400" type="curve" smooth="yes"/>
      <point x="234" y="400"/>
      <point x="206" y="395"/>
      <point x="186" y="390" type="curve"/>
    </contour>
    <contour>
      <point x="246" y="265" type="line"/>
      <point x="246" y="342" type="line"/>
      <point x="253" y="343"/>
      <point x="262" y="344"/>
      <point x="272" y="344" type="curve" smooth="yes"/>
      <point x="297" y="344"/>
      <point x="326" y="337"/>
      <point x="326" y="307" type="curve" smooth="yes"/>
      <point x="326" y="273"/>
      <point x="307" y="265"/>
      <point x="267" y="265" type="curve" smooth="yes"/>
    </contour>
  </outline>
</glyph>
<glyph name="degree" format="2">
  <advance width="560"/>
  <unicode hex="00B0"/>
  <outline>
    <contour>
      <point x="390" y="506" type="curve" smooth="yes"/>
      <point x="460" y="506"/>
      <point x="524" y="557"/>
      <point x="524" y="640" type="curve" smooth="yes"/>
      <point x="524" y="725"/>
      <point x="460" y="774"/>
      <point x="390" y="774" type="curve" smooth="yes"/>
      <point x="321" y="774"/>
      <point x="257" y="725"/>
      <point x="257" y="640" type="curve" smooth="yes"/>
      <point x="257" y="557"/>
      <point x="322" y="506"/>
    </contour>
    <contour>
      <point x="390" y="560" type="curve" smooth="yes"/>
      <point x="350" y="560"/>
      <point x="313" y="591"/>
      <point x="313" y="640" type="curve" smooth="yes"/>
      <point x="313" y="689"/>
      <point x="349" y="721"/>
      <point x="390" y="721" type="curve" smooth="yes"/>
      <point x="431" y="721"/>
      <point x="467" y="689"/>
      <point x="467" y="640" type="curve" smooth="yes"/>
      <point x="467" y="591"/>
      <point x="431" y="560"/>
    </contour>
  </outline>
</glyph>
<glyph name="plusminus" format="2">
  <advance width="560"/>
  <unicode hex="00B1"/>
  <outline>
    <contour>
      <point x="217" y="133" type="line"/>
      <point x="290" y="133" type="line"/>
      <point x="342" y="341" type="line"/>
      <point x="525" y="341" type="line"/>
      <point x="542" y="410" type="line"/>
      <point x="359" y="410" type="line"/>
      <point x="408" y="619" type="line"/>
      <point x="334" y="619" type="line"/>
      <point x="283" y="410" type="line"/>
      <point x="99" y="410" type="line"/>
      <point x="83" y="341" type="line"/>
      <point x="266" y="341" type="line"/>
    </contour>
    <contour>
      <point x="-2" y="0" type="line"/>
      <point x="441" y="0" type="line"/>
      <point x="458" y="70" type="line"/>
      <point x="15" y="70" type="line"/>
    </contour>
  </outline>
</glyph>
<glyph name="threesuperior" format="2">
  <advance width="560"/>
  <unicode hex="00B3"/>
  <outline>
    <contour>
      <point x="323" y="307" type="curve" smooth="yes"/>
      <point x="430" y="307"/>
      <point x="503" y="354"/>
      <point x="503" y="442" type="curve" smooth="yes"/>
      <point x="503" y="485"/>
      <point x="480" y="510"/>
      <point x="448" y="522" type="curve"/>
      <point x="496" y="545"/>
      <point x="525" y="575"/>
      <point x="525" y="627" type="curve" smooth="yes"/>
      <point x="525" y="672"/>
      <point x="496" y="709"/>
      <point x="417" y="709" type="curve" smooth="yes"/>
      <point x="375" y="709"/>
      <point x="315" y="691"/>
      <point x="292" y="676" type="curve"/>
      <point x="306" y="624" type="line"/>
      <point x="327" y="635"/>
      <point x="364" y="648"/>
      <point x="400" y="648" type="curve" smooth="yes"/>
      <point x="439" y="648"/>
      <point x="456" y="638"/>
      <point x="456" y="607" type="curve" smooth="yes"/>
      <point x="456" y="563"/>
      <point x="393" y="548"/>
      <point x="356" y="548" type="curve" smooth="yes"/>
      <point x="332" y="548" type="line"/>
      <point x="317" y="492" type="line"/>
      <point x="338" y="492" type="line" smooth="yes"/>
      <point x="395" y="492"/>
      <point x="433" y="477"/>
      <point x="433" y="440" type="curve" smooth="yes"/>
      <point x="433" y="383"/>
      <point x="379" y="368"/>
      <point x="324" y="368" type="curve" smooth="yes"/>
      <point x="289" y="368"/>
      <point x="255" y="379"/>
      <point x="232" y="390" type="curve"/>
      <point x="205" y="334" type="line"/>
      <point x="232" y="319"/>
      <point x="269" y="307"/>
    </contour>
  </outline>
</glyph>
<glyph name="acute" format="2">
  <advance width="560"/>
  <unicode hex="00B4"/>
  <outline>
    <contour>
      <point x="381" y="573" type="line"/>
      <point x="550" y="701" type="line"/>
      <point x="500" y="774" type="line"/>
      <point x="342" y="623" type="line"/>
    </contour>
  </outline>
</glyph>
<glyph name="micro" format="2">
  <advance width="560"/>
  <unicode hex="00B5"/>
  <outline>
    <contour>
      <point x="-37" y="-185" type="line"/>
      <point x="42" y="-185" type="line"/>
      <point x="68" y="-79" type="line" smooth="yes"/>
      <point x="78" y="-37"/>
      <point x="87" y="11"/>
      <point x="93" y="45" type="curve"/>
      <point x="113" y="9"/>
      <point x="154" y="-12"/>
      <point x="196" y="-12" type="curve" smooth="yes"/>
      <point x="264" y="-12"/>
      <point x="326" y="5"/>
      <point x="381" y="45" type="curve"/>
      <point x="400" y="12"/>
      <point x="433" y="-7"/>
      <point x="484" y="-8" type="curve"/>
      <point x="499" y="55" type="line"/>
      <point x="454" y="63"/>
      <point x="438" y="88"/>
      <point x="438" y="125" type="curve" smooth="yes"/>
      <point x="438" y="151"/>
      <point x="445" y="176"/>
      <point x="453" y="207" type="curve" smooth="yes"/>
      <point x="526" y="518" type="line"/>
      <point x="448" y="518" type="line"/>
      <point x="375" y="221" type="line" smooth="yes"/>
      <point x="365" y="180"/>
      <point x="362" y="146"/>
      <point x="361" y="107" type="curve"/>
      <point x="320" y="71"/>
      <point x="277" y="60"/>
      <point x="223" y="60" type="curve" smooth="yes"/>
      <point x="148" y="60"/>
      <point x="131" y="103"/>
      <point x="131" y="154" type="curve" smooth="yes"/>
      <point x="131" y="198"/>
      <point x="145" y="244"/>
      <point x="151" y="274" type="curve" smooth="yes"/>
      <point x="210" y="518" type="line"/>
      <point x="130" y="518" type="line"/>
    </contour>
  </outline>
</glyph>
<glyph name="paragraph" format="2">
  <advance width="560"/>
  <unicode hex="00B6"/>
  <outline>
    <contour>
      <point x="189" y="-185" type="line"/>
      <point x="256" y="-185" type="line"/>
      <point x="453" y="633" type="line"/>
      <point x="459" y="634"/>
      <point x="468" y="634"/>
      <point x="474" y="634" type="curve" smooth="yes"/>
      <point x="505" y="634"/>
      <point x="529" y="633"/>
      <point x="545" y="628" type="curve"/>
      <point x="348" y="-185" type="line"/>
      <point x="415" y="-185" type="line"/>
      <point x="625" y="685" type="line"/>
      <point x="577" y="699"/>
      <point x="518" y="700"/>
      <point x="471" y="700" type="curve" smooth="yes"/>
      <point x="297" y="700"/>
      <point x="105" y="625"/>
      <point x="105" y="426" type="curve" smooth="yes"/>
      <point x="105" y="339"/>
      <point x="147" y="269"/>
      <point x="296" y="263" type="curve"/>
    </contour>
  </outline>
</glyph>
<glyph name="cedilla" format="2">
  <advance width="560"/>
  <unicode hex="00B8"/>
  <outline>
    <contour>
      <point x="208" y="-189" type="curve" smooth="yes"/>
      <point x="277" y="-189"/>
      <point x="319" y="-158"/>
      <point x="319" y="-100" type="curve" smooth="yes"/>
      <point x="319" y="-67"/>
      <point x="305" y="-55"/>
      <point x="279" y="-41" type="curve"/>
      <point x="295" y="-21"/>
      <point x="309" y="0"/>
      <point x="325" y="20" type="curve"/>
      <point x="269" y="20" type="line"/>
      <point x="260" y="10"/>
      <point x="219" y="-50"/>
      <point x="203" y="-75" type="curve"/>
      <point x="215" y="-78"/>
      <point x="242" y="-86"/>
      <point x="242" y="-109" type="curve" smooth="yes"/>
      <point x="242" y="-131"/>
      <point x="224" y="-134"/>
      <point x="205" y="-134" type="curve" smooth="yes"/>
      <point x="177" y="-134"/>
      <point x="162" y="-128"/>
      <point x="153" y="-124" type="curve"/>
      <point x="132" y="-176" type="line"/>
      <point x="146" y="-183"/>
      <point x="168" y="-189"/>
    </contour>
  </outline>
</glyph>
<glyph name="onesuperior" format="2">
  <advance width="560"/>
  <unicode hex="00B9"/>
  <outline>
    <contour>
      <point x="205" y="315" type="line"/>
      <point x="466" y="315" type="line"/>
      <point x="482" y="379" type="line"/>
      <point x="391" y="379" type="line"/>
      <point x="469" y="701" type="line"/>
      <point x="420" y="701" type="line"/>
      <point x="379" y="669"/>
      <point x="332" y="644"/>
      <point x="271" y="623" type="curve"/>
      <point x="280" y="566" type="line"/>
      <point x="307" y="575"/>
      <point x="342" y="585"/>
      <point x="376" y="604" type="curve"/>
      <point x="320" y="379" type="line"/>
      <point x="220" y="379" type="line"/>
    </contour>
  </outline>
</glyph>
<glyph name="ordmasculine" format="2">
  <advance width="560"/>
  <unicode hex="00BA"/>
  <outline>
    <contour>
      <point x="337" y="328" type="curve" smooth="yes"/>
      <point x="501" y="328"/>
      <point x="560" y="474"/>
      <point x="560" y="581" type="curve" smooth="yes"/>
      <point x="560" y="662"/>
      <point x="511" y="709"/>
      <point x="431" y="709" type="curve" smooth="yes"/>
      <point x="268" y="709"/>
      <point x="208" y="563"/>
      <point x="208" y="456" type="curve" smooth="yes"/>
      <point x="208" y="375"/>
      <point x="258" y="328"/>
    </contour>
    <contour>
      <point x="351" y="390" type="curve" smooth="yes"/>
      <point x="304" y="390"/>
      <point x="283" y="419"/>
      <point x="283" y="463" type="curve" smooth="yes"/>
      <point x="283" y="543"/>
      <point x="333" y="647"/>
      <point x="418" y="647" type="curve" smooth="yes"/>
      <point x="465" y="647"/>
      <point x="485" y="618"/>
      <point x="485" y="575" type="curve" smooth="yes"/>
      <point x="485" y="494"/>
      <point x="435" y="390"/>
    </contour>
  </outline>
</glyph>
<glyph name="guillemetright" format="2">
  <advance width="560"/>
  <unicode hex="00BB"/>
  <outline>
    <contour>
      <point x="358" y="88" type="line"/>
      <point x="533" y="288" type="line"/>
      <point x="447" y="467" type="line"/>
      <point x="394" y="438" type="line"/>
      <point x="447" y="292" type="line"/>
      <point x="310" y="124" type="line"/>
    </contour>
    <contour>
      <point x="163" y="88" type="line"/>
      <point x="339" y="288" type="line"/>
      <point x="254" y="467" type="line"/>
      <point x="200" y="438" type="line"/>
      <point x="253" y="292" type="line"/>
      <point x="116" y="124" type="line"/>
    </contour>
  </outline>
</glyph>
<glyph name="guillemotright" format="2">
  <advance width="560"/>
  <unicode hex="00BB"/>
  <outline>
    <contour>
      <point x="358" y="88" type="line"/>
      <point x="533" y="288" type="line"/>
      <point x="447" y="467" type="line"/>
      <point x="394" y="438" type="line"/>
      <point x="447" y="292" type="line"/>
      <point x="310" y="124" type="line"/>
    </contour>
    <contour>
      <point x="163" y="88" type="line"/>
      <point x="339" y="288" type="line"/>
      <point x="254" y="467" type="line"/>
      <point x="200" y="438" type="line"/>
      <point x="253" y="292" type="line"/>
      <point x="116" y="124" type="line"/>
    </contour>
  </outline>
</glyph>
<glyph name="onequarter" format="2">
  <advance width="560"/>
  <unicode hex="00BC"/>
  <outline>
    <contour>
      <point x="-6" y="0" type="line"/>
      <point x="72" y="0" type="line"/>
      <point x="622" y="693" type="line"/>
      <point x="540" y="693" type="line"/>
    </contour>
    <contour>
      <point x="383" y="0" type="line"/>
      <point x="445" y="0" type="line"/>
      <point x="458" y="57" type="line"/>
      <point x="498" y="57" type="line"/>
      <point x="511" y="110" type="line"/>
      <point x="471" y="110" type="line"/>
      <point x="513" y="280" type="line"/>
      <point x="462" y="280" type="line"/>
      <point x="386" y="230"/>
      <point x="320" y="168"/>
      <point x="262" y="100" type="curve"/>
      <point x="251" y="57" type="line"/>
      <point x="397" y="57" type="line"/>
    </contour>
    <contour>
      <point x="332" y="110" type="line"/>
      <point x="367" y="152"/>
      <point x="383" y="167"/>
      <point x="433" y="206" type="curve"/>
      <point x="409" y="110" type="line"/>
    </contour>
    <contour>
      <point x="170" y="421" type="line"/>
      <point x="227" y="421" type="line"/>
      <point x="295" y="701" type="line"/>
      <point x="258" y="701" type="line"/>
      <point x="214" y="668"/>
      <point x="177" y="651"/>
      <point x="121" y="629" type="curve"/>
      <point x="129" y="584" type="line"/>
      <point x="159" y="593"/>
      <point x="185" y="603"/>
      <point x="219" y="620" type="curve"/>
    </contour>
  </outline>
</glyph>
<glyph name="onehalf" format="2">
  <advance width="560"/>
  <unicode hex="00BD"/>
  <outline>
    <contour>
      <point x="23" y="0" type="line"/>
      <point x="102" y="0" type="line"/>
      <point x="650" y="693" type="line"/>
      <point x="569" y="693" type="line"/>
    </contour>
    <contour>
      <point x="309" y="0" type="curve"/>
      <point x="517" y="0" type="line"/>
      <point x="528" y="52" type="line"/>
      <point x="380" y="52" type="line"/>
      <point x="380" y="58"/>
      <point x="400" y="68"/>
      <point x="429" y="83" type="curve" smooth="yes"/>
      <point x="477" y="109"/>
      <point x="548" y="150"/>
      <point x="548" y="211" type="curve" smooth="yes"/>
      <point x="548" y="270"/>
      <point x="507" y="286"/>
      <point x="468" y="286" type="curve" smooth="yes"/>
      <point x="429" y="286"/>
      <point x="383" y="269"/>
      <point x="357" y="246" type="curve"/>
      <point x="382" y="206" type="line"/>
      <point x="399" y="223"/>
      <point x="431" y="233"/>
      <point x="456" y="233" type="curve" smooth="yes"/>
      <point x="477" y="233"/>
      <point x="494" y="226"/>
      <point x="494" y="202" type="curve" smooth="yes"/>
      <point x="494" y="178"/>
      <point x="476" y="162"/>
      <point x="399" y="118" type="curve" smooth="yes"/>
      <point x="333" y="82"/>
      <point x="324" y="63"/>
    </contour>
    <contour>
      <point x="212" y="421" type="line"/>
      <point x="269" y="421" type="line"/>
      <point x="337" y="701" type="line"/>
      <point x="300" y="701" type="line"/>
      <point x="256" y="668"/>
      <point x="219" y="651"/>
      <point x="163" y="629" type="curve"/>
      <point x="171" y="584" type="line"/>
      <point x="201" y="593"/>
      <point x="227" y="603"/>
      <point x="261" y="620" type="curve"/>
    </contour>
  </outline>
</glyph>
<glyph name="threequarters" format="2">
  <advance width="560"/>
  <unicode hex="00BE"/>
  <outline>
    <contour>
      <point x="30" y="0" type="line"/>
      <point x="108" y="0" type="line"/>
      <point x="658" y="693" type="line"/>
      <point x="576" y="693" type="line"/>
    </contour>
    <contour>
      <point x="425" y="0" type="line"/>
      <point x="487" y="0" type="line"/>
      <point x="500" y="57" type="line"/>
      <point x="540" y="57" type="line"/>
      <point x="553" y="110" type="line"/>
      <point x="513" y="110" type="line"/>
      <point x="555" y="280" type="line"/>
      <point x="504" y="280" type="line"/>
      <point x="428" y="230"/>
      <point x="362" y="168"/>
      <point x="304" y="100" type="curve"/>
      <point x="293" y="57" type="line"/>
      <point x="439" y="57" type="line"/>
    </contour>
    <contour>
      <point x="374" y="110" type="line"/>
      <point x="409" y="152"/>
      <point x="425" y="167"/>
      <point x="475" y="206" type="curve"/>
      <point x="451" y="110" type="line"/>
    </contour>
    <contour>
      <point x="169" y="411" type="curve" smooth="yes"/>
      <point x="274" y="411"/>
      <point x="311" y="473"/>
      <point x="311" y="512" type="curve" smooth="yes"/>
      <point x="311" y="535"/>
      <point x="299" y="557"/>
      <point x="281" y="571" type="curve"/>
      <point x="315" y="588"/>
      <point x="332" y="619"/>
      <point x="332" y="643" type="curve" smooth="yes"/>
      <point x="332" y="697"/>
      <point x="289" y="709"/>
      <point x="253" y="709" type="curve" smooth="yes"/>
      <point x="217" y="709"/>
      <point x="176" y="697"/>
      <point x="154" y="685" type="curve"/>
      <point x="161" y="641" type="line"/>
      <point x="184" y="649"/>
      <point x="214" y="657"/>
      <point x="233" y="657" type="curve" smooth="yes"/>
      <point x="262" y="657"/>
      <point x="274" y="648"/>
      <point x="274" y="631" type="curve" smooth="yes"/>
      <point x="274" y="611"/>
      <point x="257" y="594"/>
      <point x="222" y="594" type="curve" smooth="yes"/>
      <point x="177" y="594" type="line"/>
      <point x="165" y="539" type="line"/>
      <point x="175" y="539" type="line" smooth="yes"/>
      <point x="228" y="539"/>
      <point x="258" y="534"/>
      <point x="258" y="510" type="curve" smooth="yes"/>
      <point x="258" y="477"/>
      <point x="227" y="463"/>
      <point x="183" y="463" type="curve" smooth="yes"/>
      <point x="153" y="463"/>
      <point x="130" y="470"/>
      <point x="116" y="477" type="curve"/>
      <point x="89" y="429" type="line"/>
      <point x="113" y="417"/>
      <point x="145" y="411"/>
    </contour>
  </outline>
</glyph>
<glyph name="questiondown" format="2">
  <advance width="560"/>
  <unicode hex="00BF"/>
  <outline>
    <contour>
      <point x="215" y="-190" type="curve" smooth="yes"/>
      <point x="269" y="-190"/>
      <point x="326" y="-175"/>
      <point x="356" y="-160" type="curve"/>
      <point x="347" y="-98" type="line"/>
      <point x="302" y="-120"/>
      <point x="263" y="-126"/>
      <point x="222" y="-126" type="curve" smooth="yes"/>
      <point x="154" y="-126"/>
      <point x="128" y="-94"/>
      <point x="128" y="-49" type="curve" smooth="yes"/>
      <point x="128" y="5"/>
      <point x="172" y="49"/>
      <point x="215" y="80" type="curve" smooth="yes"/>
      <point x="268" y="124"/>
      <point x="365" y="173"/>
      <point x="367" y="274" type="curve"/>
      <point x="300" y="274" type="line"/>
      <point x="290" y="217"/>
      <point x="242" y="174"/>
      <point x="198" y="141" type="curve" smooth="yes"/>
      <point x="133" y="91"/>
      <point x="53" y="40"/>
      <point x="53" y="-57" type="curve" smooth="yes"/>
      <point x="53" y="-167"/>
      <point x="144" y="-190"/>
    </contour>
    <contour>
      <point x="370" y="379" type="curve" smooth="yes"/>
      <point x="409" y="379"/>
      <point x="441" y="406"/>
      <point x="441" y="458" type="curve" smooth="yes"/>
      <point x="441" y="501"/>
      <point x="416" y="520"/>
      <point x="380" y="520" type="curve" smooth="yes"/>
      <point x="344" y="520"/>
      <point x="306" y="491"/>
      <point x="306" y="443" type="curve" smooth="yes"/>
      <point x="306" y="401"/>
      <point x="335" y="379"/>
    </contour>
  </outline>
</glyph>
<glyph name="Aring" format="2">
  <advance width="560"/>
  <unicode hex="00C5"/>
  <outline>
    <contour>
      <point x="-15" y="0" type="curve"/>
      <point x="78" y="0" type="line"/>
      <point x="106" y="60"/>
      <point x="136" y="121"/>
      <point x="164" y="181" type="curve"/>
      <point x="430" y="181" type="line"/>
      <point x="429" y="0" type="line"/>
      <point x="525" y="0" type="line"/>
      <point x="520" y="175"/>
      <point x="506" y="442"/>
      <point x="482" y="650" type="curve"/>
      <point x="510" y="668"/>
      <point x="526" y="702"/>
      <point x="526" y="737" type="curve" smooth="yes"/>
      <point x="526" y="800"/>
      <point x="478" y="839"/>
      <point x="423" y="839" type="curve" smooth="yes"/>
      <point x="368" y="839"/>
      <point x="320" y="800"/>
      <point x="320" y="737" type="curve" smooth="yes"/>
      <point x="320" y="707"/>
      <point x="332" y="682"/>
      <point x="348" y="664" type="curve"/>
      <point x="217" y="454"/>
      <point x="76" y="181"/>
    </contour>
    <contour>
      <point x="203" y="258" type="line"/>
      <point x="271" y="389"/>
      <point x="344" y="520"/>
      <point x="400" y="613" type="curve"/>
      <point x="412" y="524"/>
      <point x="424" y="391"/>
      <point x="427" y="258" type="curve"/>
    </contour>
    <contour>
      <point x="423" y="682" type="curve" smooth="yes"/>
      <point x="394" y="682"/>
      <point x="371" y="702"/>
      <point x="371" y="737" type="curve" smooth="yes"/>
      <point x="371" y="772"/>
      <point x="394" y="792"/>
      <point x="423" y="792" type="curve" smooth="yes"/>
      <point x="452" y="792"/>
      <point x="476" y="772"/>
      <point x="476" y="737" type="curve" smooth="yes"/>
      <point x="476" y="702"/>
      <point x="452" y="682"/>
    </contour>
  </outline>
</glyph>
<glyph name="AE" format="2">
  <advance width="560"/>
  <unicode hex="00C6"/>
  <outline>
    <contour>
      <point x="16" y="0" type="curve"/>
      <point x="92" y="0" type="line"/>
      <point x="181" y="187" type="line"/>
      <point x="324" y="187" type="line"/>
      <point x="277" y="0" type="line"/>
      <point x="519" y="0" type="line"/>
      <point x="536" y="67" type="line"/>
      <point x="373" y="67" type="line"/>
      <point x="435" y="329" type="line"/>
      <point x="557" y="329" type="line"/>
      <point x="574" y="396" type="line"/>
      <point x="452" y="396" type="line"/>
      <point x="507" y="626" type="line"/>
      <point x="655" y="626" type="line"/>
      <point x="672" y="693" type="line"/>
      <point x="400" y="693" type="line"/>
      <point x="271" y="491"/>
      <point x="135" y="240"/>
    </contour>
    <contour>
      <point x="217" y="254" type="line"/>
      <point x="274" y="358"/>
      <point x="355" y="505"/>
      <point x="434" y="644" type="curve"/>
      <point x="339" y="254" type="line"/>
    </contour>
  </outline>
</glyph>
<glyph name="Ccedilla" format="2">
  <advance width="560"/>
  <unicode hex="00C7"/>
  <outline>
    <contour>
      <point x="235" y="-189" type="curve" smooth="yes"/>
      <point x="304" y="-189"/>
      <point x="346" y="-158"/>
      <point x="346" y="-100" type="curve" smooth="yes"/>
      <point x="346" y="-67"/>
      <point x="332" y="-55"/>
      <point x="307" y="-41" type="curve"/>
      <point x="313" y="-32"/>
      <point x="320" y="-23"/>
      <point x="326" y="-16" type="curve"/>
      <point x="415" y="-11"/>
      <point x="482" y="17"/>
      <point x="495" y="28" type="curve"/>
      <point x="485" y="97" type="line"/>
      <point x="461" y="82"/>
      <point x="397" y="55"/>
      <point x="326" y="55" type="curve" smooth="yes"/>
      <point x="235" y="55"/>
      <point x="180" y="124"/>
      <point x="180" y="240" type="curve" smooth="yes"/>
      <point x="180" y="441"/>
      <point x="292" y="638"/>
      <point x="472" y="638" type="curve" smooth="yes"/>
      <point x="522" y="638"/>
      <point x="578" y="617"/>
      <point x="603" y="595" type="curve"/>
      <point x="645" y="658" type="line"/>
      <point x="617" y="681"/>
      <point x="563" y="709"/>
      <point x="477" y="709" type="curve" smooth="yes"/>
      <point x="249" y="709"/>
      <point x="100" y="465"/>
      <point x="100" y="225" type="curve" smooth="yes"/>
      <point x="100" y="93"/>
      <point x="170" y="5"/>
      <point x="273" y="-11" type="curve"/>
      <point x="257" y="-33"/>
      <point x="240" y="-60"/>
      <point x="231" y="-75" type="curve"/>
      <point x="243" y="-78"/>
      <point x="269" y="-86"/>
      <point x="269" y="-109" type="curve" smooth="yes"/>
      <point x="269" y="-131"/>
      <point x="251" y="-134"/>
      <point x="232" y="-134" type="curve" smooth="yes"/>
      <point x="204" y="-134"/>
      <point x="189" y="-128"/>
      <point x="180" y="-124" type="curve"/>
      <point x="160" y="-176" type="line"/>
      <point x="174" y="-183"/>
      <point x="195" y="-189"/>
    </contour>
  </outline>
</glyph>
<glyph name="Eth" format="2">
  <advance width="560"/>
  <unicode hex="00D0"/>
  <outline>
    <contour>
      <point x="208" y="-5" type="curve" smooth="yes"/>
      <point x="466" y="-5"/>
      <point x="583" y="217"/>
      <point x="583" y="453" type="curve" smooth="yes"/>
      <point x="583" y="608"/>
      <point x="504" y="700"/>
      <point x="372" y="700" type="curve" smooth="yes"/>
      <point x="330" y="700"/>
      <point x="287" y="693"/>
      <point x="245" y="683" type="curve"/>
      <point x="176" y="394" type="line"/>
      <point x="93" y="394" type="line"/>
      <point x="76" y="331" type="line"/>
      <point x="160" y="331" type="line"/>
      <point x="85" y="11" type="line"/>
      <point x="121" y="0"/>
      <point x="168" y="-5"/>
    </contour>
    <contour>
      <point x="225" y="63" type="curve" smooth="yes"/>
      <point x="209" y="63"/>
      <point x="188" y="66"/>
      <point x="178" y="70" type="curve"/>
      <point x="240" y="331" type="line"/>
      <point x="335" y="331" type="line"/>
      <point x="352" y="394" type="line"/>
      <point x="255" y="394" type="line"/>
      <point x="311" y="628" type="line"/>
      <point x="324" y="630"/>
      <point x="340" y="632"/>
      <point x="356" y="632" type="curve" smooth="yes"/>
      <point x="453" y="632"/>
      <point x="503" y="566"/>
      <point x="503" y="441" type="curve" smooth="yes"/>
      <point x="503" y="200"/>
      <point x="373" y="63"/>
    </contour>
  </outline>
</glyph>
<glyph name="multiply" format="2">
  <advance width="560"/>
  <unicode hex="00D7"/>
  <outline>
    <contour>
      <point x="142" y="97" type="line"/>
      <point x="326" y="247" type="line"/>
      <point x="437" y="101" type="line"/>
      <point x="488" y="145" type="line"/>
      <point x="379" y="290" type="line"/>
      <point x="563" y="438" type="line"/>
      <point x="521" y="490" type="line"/>
      <point x="340" y="343" type="line"/>
      <point x="232" y="486" type="line"/>
      <point x="179" y="444" type="line"/>
      <point x="288" y="299" type="line"/>
      <point x="104" y="149" type="line"/>
    </contour>
  </outline>
</glyph>
<glyph name="Oslash" format="2">
  <advance width="560"/>
  <unicode hex="00D8"/>
  <anchor x="218" y="0" name="bottom"/>
  <anchor x="382" y="685" name="top"/>
  <outline>
    <contour>
      <point x="51" y="-35" type="line"/>
      <point x="97" y="29" type="line"/>
      <point x="129" y="-1"/>
      <point x="171" y="-15"/>
      <point x="219" y="-15" type="curve" smooth="yes"/>
      <point x="457" y="-15"/>
      <point x="551" y="325"/>
      <point x="551" y="486" type="curve" smooth="yes"/>
      <point x="551" y="537"/>
      <point x="544" y="578"/>
      <point x="530" y="610" type="curve"/>
      <point x="588" y="687" type="line"/>
      <point x="538" y="726" type="line"/>
      <point x="494" y="666" type="line"/>
      <point x="461" y="696"/>
      <point x="421" y="709"/>
      <point x="373" y="709" type="curve" smooth="yes"/>
      <point x="135" y="709"/>
      <point x="40" y="371"/>
      <point x="40" y="208" type="curve" smooth="yes"/>
      <point x="40" y="158"/>
      <point x="47" y="115"/>
      <point x="61" y="84" type="curve"/>
      <point x="2" y="4" type="line"/>
    </contour>
    <contour>
      <point x="228" y="55" type="curve" smooth="yes"/>
      <point x="191" y="55"/>
      <point x="164" y="66"/>
      <point x="144" y="90" type="curve"/>
      <point x="473" y="535" type="line"/>
      <point x="474" y="522"/>
      <point x="475" y="507"/>
      <point x="475" y="494" type="curve" smooth="yes"/>
      <point x="478" y="315"/>
      <point x="387" y="55"/>
    </contour>
    <contour>
      <point x="118" y="159" type="line"/>
      <point x="117" y="171"/>
      <point x="117" y="185"/>
      <point x="117" y="199" type="curve" smooth="yes"/>
      <point x="115" y="376"/>
      <point x="205" y="640"/>
      <point x="364" y="640" type="curve" smooth="yes"/>
      <point x="400" y="640"/>
      <point x="426" y="628"/>
      <point x="447" y="604" type="curve"/>
    </contour>
  </outline>
</glyph>
<glyph name="Thorn" format="2">
  <advance width="560"/>
  <unicode hex="00DE"/>
  <outline>
    <contour>
      <point x="64" y="0" type="line"/>
      <point x="142" y="0" type="line"/>
      <point x="179" y="146" type="line"/>
      <point x="222" y="146" type="line" smooth="yes"/>
      <point x="386" y="146"/>
      <point x="576" y="198"/>
      <point x="576" y="408" type="curve" smooth="yes"/>
      <point x="576" y="510"/>
      <point x="498" y="578"/>
      <point x="359" y="578" type="curve" smooth="yes"/>
      <point x="333" y="578"/>
      <point x="309" y="577"/>
      <point x="281" y="575" type="curve"/>
      <point x="309" y="693" type="line"/>
      <point x="231" y="693" type="line"/>
    </contour>
    <contour>
      <point x="195" y="216" type="line"/>
      <point x="263" y="503" type="line"/>
      <point x="280" y="504"/>
      <point x="299" y="507"/>
      <point x="321" y="507" type="curve" smooth="yes"/>
      <point x="389" y="507"/>
      <point x="490" y="496"/>
      <point x="490" y="402" type="curve" smooth="yes"/>
      <point x="490" y="258"/>
      <point x="364" y="216"/>
      <point x="241" y="216" type="curve" smooth="yes"/>
    </contour>
  </outline>
</glyph>
<glyph name="germandbls" format="2">
  <advance width="560"/>
  <unicode hex="00DF"/>
  <outline>
    <contour>
      <point x="-32" y="-188" type="curve" smooth="yes"/>
      <point x="99" y="-188"/>
      <point x="149" y="-130"/>
      <point x="181" y="20" type="curve" smooth="yes"/>
      <point x="288" y="516" type="line" smooth="yes"/>
      <point x="311" y="624"/>
      <point x="348" y="697"/>
      <point x="418" y="697" type="curve" smooth="yes"/>
      <point x="463" y="697"/>
      <point x="486" y="675"/>
      <point x="486" y="631" type="curve" smooth="yes"/>
      <point x="486" y="585"/>
      <point x="456" y="552"/>
      <point x="421" y="522" type="curve" smooth="yes"/>
      <point x="372" y="479"/>
      <point x="314" y="440"/>
      <point x="314" y="370" type="curve" smooth="yes"/>
      <point x="314" y="249"/>
      <point x="465" y="264"/>
      <point x="465" y="162" type="curve" smooth="yes"/>
      <point x="465" y="94"/>
      <point x="412" y="67"/>
      <point x="354" y="67" type="curve" smooth="yes"/>
      <point x="316" y="67"/>
      <point x="290" y="75"/>
      <point x="261" y="94" type="curve"/>
      <point x="226" y="13" type="line"/>
      <point x="265" y="-6"/>
      <point x="299" y="-13"/>
      <point x="345" y="-13" type="curve" smooth="yes"/>
      <point x="452" y="-13"/>
      <point x="557" y="43"/>
      <point x="557" y="168" type="curve" smooth="yes"/>
      <point x="557" y="300"/>
      <point x="407" y="311"/>
      <point x="407" y="375" type="curve" smooth="yes"/>
      <point x="407" y="416"/>
      <point x="428" y="430"/>
      <point x="473" y="470" type="curve" smooth="yes"/>
      <point x="543" y="533"/>
      <point x="577" y="563"/>
      <point x="577" y="641" type="curve" smooth="yes"/>
      <point x="577" y="720"/>
      <point x="530" y="776"/>
      <point x="423" y="776" type="curve" smooth="yes"/>
      <point x="286" y="776"/>
      <point x="235" y="682"/>
      <point x="196" y="519" type="curve" smooth="yes"/>
      <point x="88" y="19" type="line" smooth="yes"/>
      <point x="73" y="-57"/>
      <point x="43" y="-108"/>
      <point x="-18" y="-108" type="curve" smooth="yes"/>
      <point x="-45" y="-108"/>
      <point x="-68" y="-102"/>
      <point x="-83" y="-93" type="curve"/>
      <point x="-104" y="-170" type="line"/>
      <point x="-88" y="-181"/>
      <point x="-55" y="-188"/>
    </contour>
  </outline>
</glyph>
<glyph name="ae" format="2">
  <advance width="560"/>
  <unicode hex="00E6"/>
  <outline>
    <contour>
      <point x="148" y="-12" type="curve" smooth="yes"/>
      <point x="200" y="-12"/>
      <point x="267" y="25"/>
      <point x="298" y="88" type="curve"/>
      <point x="311" y="15"/>
      <point x="366" y="-12"/>
      <point x="419" y="-12" type="curve" smooth="yes"/>
      <point x="450" y="-12"/>
      <point x="484" y="-3"/>
      <point x="516" y="17" type="curve"/>
      <point x="522" y="95" type="line"/>
      <point x="492" y="78"/>
      <point x="464" y="69"/>
      <point x="441" y="69" type="curve" smooth="yes"/>
      <point x="395" y="69"/>
      <point x="366" y="102"/>
      <point x="366" y="172" type="curve" smooth="yes"/>
      <point x="366" y="183"/>
      <point x="366" y="192"/>
      <point x="366" y="202" type="curve"/>
      <point x="536" y="209"/>
      <point x="610" y="324"/>
      <point x="610" y="416" type="curve" smooth="yes"/>
      <point x="610" y="496"/>
      <point x="566" y="532"/>
      <point x="514" y="532" type="curve" smooth="yes"/>
      <point x="461" y="532"/>
      <point x="401" y="495"/>
      <point x="370" y="431" type="curve"/>
      <point x="357" y="505"/>
      <point x="296" y="532"/>
      <point x="243" y="532" type="curve" smooth="yes"/>
      <point x="212" y="532"/>
      <point x="178" y="523"/>
      <point x="146" y="503" type="curve"/>
      <point x="140" y="426" type="line"/>
      <point x="170" y="442"/>
      <point x="198" y="451"/>
      <point x="221" y="451" type="curve" smooth="yes"/>
      <point x="267" y="451"/>
      <point x="296" y="418"/>
      <point x="296" y="348" type="curve" smooth="yes"/>
      <point x="296" y="337"/>
      <point x="296" y="328"/>
      <point x="295" y="318" type="curve"/>
      <point x="127" y="311"/>
      <point x="52" y="196"/>
      <point x="52" y="104" type="curve" smooth="yes"/>
      <point x="52" y="24"/>
      <point x="96" y="-12"/>
    </contour>
    <contour>
      <point x="175" y="66" type="curve" smooth="yes"/>
      <point x="155" y="66"/>
      <point x="140" y="85"/>
      <point x="140" y="124" type="curve" smooth="yes"/>
      <point x="140" y="172"/>
      <point x="177" y="236"/>
      <point x="287" y="241" type="curve"/>
      <point x="265" y="125"/>
      <point x="211" y="66"/>
    </contour>
    <contour>
      <point x="375" y="279" type="curve"/>
      <point x="396" y="394"/>
      <point x="451" y="454"/>
      <point x="487" y="454" type="curve" smooth="yes"/>
      <point x="507" y="454"/>
      <point x="522" y="435"/>
      <point x="522" y="396" type="curve" smooth="yes"/>
      <point x="522" y="347"/>
      <point x="485" y="283"/>
    </contour>
  </outline>
</glyph>
<glyph name="ccedilla" format="2">
  <advance width="560"/>
  <unicode hex="00E7"/>
  <outline>
    <contour>
      <point x="215" y="-189" type="curve" smooth="yes"/>
      <point x="286" y="-189"/>
      <point x="332" y="-157"/>
      <point x="332" y="-99" type="curve" smooth="yes"/>
      <point x="332" y="-67"/>
      <point x="318" y="-53"/>
      <point x="291" y="-38" type="curve"/>
      <point x="309" y="-13" type="line"/>
      <point x="398" y="-13"/>
      <point x="461" y="7"/>
      <point x="488" y="24" type="curve"/>
      <point x="480" y="102" type="line"/>
      <point x="459" y="88"/>
      <point x="396" y="67"/>
      <point x="330" y="67" type="curve" smooth="yes"/>
      <point x="204" y="67"/>
      <point x="172" y="127"/>
      <point x="172" y="195" type="curve" smooth="yes"/>
      <point x="172" y="328"/>
      <point x="265" y="455"/>
      <point x="419" y="455" type="curve" smooth="yes"/>
      <point x="482" y="455"/>
      <point x="513" y="442"/>
      <point x="538" y="430" type="curve"/>
      <point x="572" y="508" type="line"/>
      <point x="532" y="525"/>
      <point x="487" y="533"/>
      <point x="427" y="533" type="curve" smooth="yes"/>
      <point x="204" y="533"/>
      <point x="80" y="368"/>
      <point x="80" y="186" type="curve" smooth="yes"/>
      <point x="80" y="86"/>
      <point x="136" y="12"/>
      <point x="249" y="-8" type="curve"/>
      <point x="235" y="-28"/>
      <point x="217" y="-53"/>
      <point x="208" y="-69" type="curve"/>
      <point x="227" y="-74"/>
      <point x="249" y="-83"/>
      <point x="249" y="-105" type="curve" smooth="yes"/>
      <point x="249" y="-124"/>
      <point x="233" y="-130"/>
      <point x="211" y="-130" type="curve" smooth="yes"/>
      <point x="185" y="-130"/>
      <point x="168" y="-124"/>
      <point x="157" y="-119" type="curve"/>
      <point x="134" y="-174" type="line"/>
      <point x="151" y="-183"/>
      <point x="176" y="-189"/>
    </contour>
  </outline>
</glyph>
<glyph name="eth" format="2">
  <advance width="560"/>
  <unicode hex="00F0"/>
  <outline>
    <contour>
      <point x="264" y="-12" type="curve" smooth="yes"/>
      <point x="533" y="-12"/>
      <point x="557" y="334"/>
      <point x="557" y="424" type="curve" smooth="yes"/>
      <point x="557" y="507"/>
      <point x="540" y="574"/>
      <point x="516" y="627" type="curve"/>
      <point x="626" y="662" type="line"/>
      <point x="620" y="719" type="line"/>
      <point x="487" y="676" type="line"/>
      <point x="457" y="728"/>
      <point x="425" y="759"/>
      <point x="404" y="776" type="curve"/>
      <point x="341" y="734" type="line"/>
      <point x="369" y="707"/>
      <point x="391" y="691"/>
      <point x="413" y="654" type="curve"/>
      <point x="296" y="616" type="line"/>
      <point x="304" y="559" type="line"/>
      <point x="439" y="601" type="line"/>
      <point x="460" y="555"/>
      <point x="470" y="511"/>
      <point x="474" y="465" type="curve"/>
      <point x="452" y="480"/>
      <point x="417" y="497"/>
      <point x="373" y="497" type="curve" smooth="yes"/>
      <point x="191" y="497"/>
      <point x="96" y="361"/>
      <point x="96" y="176" type="curve" smooth="yes"/>
      <point x="96" y="70"/>
      <point x="175" y="-12"/>
    </contour>
    <contour>
      <point x="277" y="53" type="curve" smooth="yes"/>
      <point x="214" y="53"/>
      <point x="176" y="103"/>
      <point x="176" y="174" type="curve" smooth="yes"/>
      <point x="176" y="338"/>
      <point x="244" y="427"/>
      <point x="365" y="427" type="curve" smooth="yes"/>
      <point x="403" y="427"/>
      <point x="443" y="413"/>
      <point x="478" y="382" type="curve"/>
      <point x="467" y="214"/>
      <point x="398" y="53"/>
    </contour>
  </outline>
</glyph>
<glyph name="divide" format="2">
  <advance width="560"/>
  <unicode hex="00F7"/>
  <outline>
    <contour>
      <point x="59" y="260" type="line"/>
      <point x="501" y="260" type="line"/>
      <point x="517" y="329" type="line"/>
      <point x="73" y="329" type="line"/>
    </contour>
    <contour>
      <point x="251" y="50" type="curve" smooth="yes"/>
      <point x="296" y="50"/>
      <point x="325" y="96"/>
      <point x="325" y="127" type="curve" smooth="yes"/>
      <point x="325" y="152"/>
      <point x="308" y="179"/>
      <point x="278" y="179" type="curve" smooth="yes"/>
      <point x="232" y="179"/>
      <point x="200" y="137"/>
      <point x="200" y="100" type="curve" smooth="yes"/>
      <point x="200" y="76"/>
      <point x="218" y="50"/>
    </contour>
    <contour>
      <point x="305" y="410" type="curve" smooth="yes"/>
      <point x="352" y="410"/>
      <point x="379" y="457"/>
      <point x="379" y="489" type="curve" smooth="yes"/>
      <point x="379" y="514"/>
      <point x="363" y="538"/>
      <point x="332" y="538" type="curve" smooth="yes"/>
      <point x="288" y="538"/>
      <point x="254" y="500"/>
      <point x="254" y="461" type="curve" smooth="yes"/>
      <point x="254" y="436"/>
      <point x="271" y="410"/>
    </contour>
  </outline>
</glyph>
<glyph name="oslash" format="2">
  <advance width="560"/>
  <unicode hex="00F8"/>
  <outline>
    <contour>
      <point x="61" y="-32" type="line"/>
      <point x="128" y="36" type="line"/>
      <point x="155" y="6"/>
      <point x="205" y="-11"/>
      <point x="256" y="-11" type="curve" smooth="yes"/>
      <point x="479" y="-11"/>
      <point x="558" y="203"/>
      <point x="558" y="357" type="curve" smooth="yes"/>
      <point x="558" y="384"/>
      <point x="551" y="409"/>
      <point x="545" y="429" type="curve"/>
      <point x="625" y="510" type="line"/>
      <point x="583" y="551" type="line"/>
      <point x="513" y="482" type="line"/>
      <point x="487" y="511"/>
      <point x="442" y="530"/>
      <point x="387" y="530" type="curve" smooth="yes"/>
      <point x="157" y="530"/>
      <point x="87" y="308"/>
      <point x="87" y="161" type="curve" smooth="yes"/>
      <point x="87" y="131"/>
      <point x="93" y="107"/>
      <point x="99" y="88" type="curve"/>
      <point x="18" y="10" type="line"/>
    </contour>
    <contour>
      <point x="271" y="62" type="curve" smooth="yes"/>
      <point x="233" y="62"/>
      <point x="206" y="71"/>
      <point x="188" y="86" type="curve"/>
      <point x="481" y="375" type="line"/>
      <point x="493" y="265"/>
      <point x="418" y="62"/>
    </contour>
    <contour>
      <point x="163" y="143" type="line"/>
      <point x="144" y="236"/>
      <point x="225" y="457"/>
      <point x="372" y="457" type="curve" smooth="yes"/>
      <point x="411" y="457"/>
      <point x="438" y="448"/>
      <point x="455" y="430" type="curve"/>
    </contour>
  </outline>
</glyph>
<glyph name="thorn" format="2">
  <advance width="560"/>
  <unicode hex="00FE"/>
  <outline>
    <contour>
      <point x="27" y="-185" type="line"/>
      <point x="105" y="-185" type="line"/>
      <point x="148" y="-7" type="line"/>
      <point x="161" y="-10"/>
      <point x="195" y="-11"/>
      <point x="205" y="-11" type="curve" smooth="yes"/>
      <point x="443" y="-11"/>
      <point x="566" y="166"/>
      <point x="566" y="350" type="curve" smooth="yes"/>
      <point x="566" y="454"/>
      <point x="508" y="530"/>
      <point x="407" y="530" type="curve" smooth="yes"/>
      <point x="378" y="530"/>
      <point x="324" y="528"/>
      <point x="270" y="493" type="curve"/>
      <point x="336" y="776" type="line"/>
      <point x="255" y="762" type="line"/>
    </contour>
    <contour>
      <point x="226" y="57" type="curve" smooth="yes"/>
      <point x="211" y="57"/>
      <point x="179" y="61"/>
      <point x="164" y="65" type="curve"/>
      <point x="248" y="414" type="line"/>
      <point x="296" y="452"/>
      <point x="350" y="464"/>
      <point x="382" y="464" type="curve" smooth="yes"/>
      <point x="458" y="464"/>
      <point x="487" y="403"/>
      <point x="487" y="338" type="curve" smooth="yes"/>
      <point x="487" y="192"/>
      <point x="375" y="57"/>
    </contour>
  </outline>
</glyph>
<glyph name="Aogonek" format="2">
  <advance width="560"/>
  <unicode hex="0104"/>
  <outline>
    <contour>
      <point x="400" y="-186" type="curve" smooth="yes"/>
      <point x="418" y="-186"/>
      <point x="433" y="-183"/>
      <point x="445" y="-176" type="curve"/>
      <point x="453" y="-120" type="line"/>
      <point x="441" y="-124"/>
      <point x="428" y="-126"/>
      <point x="418" y="-126" type="curve" smooth="yes"/>
      <point x="388" y="-126"/>
      <point x="378" y="-116"/>
      <point x="378" y="-102" type="curve" smooth="yes"/>
      <point x="378" y="-64"/>
      <point x="438" y="-26"/>
      <point x="476" y="0" type="curve"/>
      <point x="470" y="167"/>
      <point x="461" y="462"/>
      <point x="424" y="693" type="curve"/>
      <point x="325" y="693" type="line"/>
      <point x="175" y="460"/>
      <point x="29" y="173"/>
      <point x="-64" y="0" type="curve"/>
      <point x="15" y="0" type="line"/>
      <point x="45" y="61"/>
      <point x="77" y="124"/>
      <point x="107" y="187" type="curve"/>
      <point x="393" y="187" type="line"/>
      <point x="393" y="0" type="line"/>
      <point x="393" y="0" type="line"/>
      <point x="375" y="-14"/>
      <point x="303" y="-68"/>
      <point x="303" y="-122" type="curve" smooth="yes"/>
      <point x="303" y="-161"/>
      <point x="328" y="-186"/>
    </contour>
    <contour>
      <point x="142" y="254" type="line"/>
      <point x="210" y="378"/>
      <point x="295" y="530"/>
      <point x="356" y="628" type="curve"/>
      <point x="370" y="541"/>
      <point x="385" y="398"/>
      <point x="389" y="254" type="curve"/>
    </contour>
  </outline>
</glyph>
<glyph name="aogonek" format="2">
  <advance width="560"/>
  <unicode hex="0105"/>
  <outline>
    <contour>
      <point x="411" y="-186" type="curve" smooth="yes"/>
      <point x="429" y="-186"/>
      <point x="444" y="-183"/>
      <point x="457" y="-176" type="curve"/>
      <point x="464" y="-120" type="line"/>
      <point x="451" y="-124"/>
      <point x="439" y="-126"/>
      <point x="428" y="-126" type="curve" smooth="yes"/>
      <point x="398" y="-126"/>
      <point x="388" y="-116"/>
      <point x="388" y="-102" type="curve" smooth="yes"/>
      <point x="388" y="-72"/>
      <point x="429" y="-37"/>
      <point x="494" y="5" type="curve"/>
      <point x="483" y="40"/>
      <point x="478" y="66"/>
      <point x="478" y="93" type="curve" smooth="yes"/>
      <point x="478" y="126"/>
      <point x="484" y="152"/>
      <point x="492" y="185" type="curve" smooth="yes"/>
      <point x="571" y="506" type="line"/>
      <point x="544" y="523"/>
      <point x="483" y="529"/>
      <point x="455" y="529" type="curve" smooth="yes"/>
      <point x="193" y="529"/>
      <point x="82" y="339"/>
      <point x="82" y="168" type="curve" smooth="yes"/>
      <point x="82" y="68"/>
      <point x="132" y="-12"/>
      <point x="254" y="-12" type="curve" smooth="yes"/>
      <point x="323" y="-12"/>
      <point x="379" y="21"/>
      <point x="408" y="49" type="curve"/>
      <point x="412" y="31"/>
      <point x="415" y="19"/>
      <point x="420" y="7" type="curve"/>
      <point x="393" y="-10"/>
      <point x="314" y="-61"/>
      <point x="314" y="-122" type="curve" smooth="yes"/>
      <point x="314" y="-161"/>
      <point x="339" y="-186"/>
    </contour>
    <contour>
      <point x="264" y="52" type="curve" smooth="yes"/>
      <point x="181" y="52"/>
      <point x="161" y="113"/>
      <point x="161" y="178" type="curve" smooth="yes"/>
      <point x="161" y="328"/>
      <point x="273" y="464"/>
      <point x="440" y="464" type="curve" smooth="yes"/>
      <point x="450" y="464"/>
      <point x="479" y="459"/>
      <point x="485" y="458" type="curve"/>
      <point x="418" y="199" type="line" smooth="yes"/>
      <point x="412" y="174"/>
      <point x="408" y="139"/>
      <point x="407" y="116" type="curve"/>
      <point x="376" y="82"/>
      <point x="324" y="52"/>
    </contour>
  </outline>
</glyph>
<glyph name="dcaron" format="2">
  <advance width="560"/>
  <unicode hex="010F"/>
  <outline>
    <contour>
      <point x="201" y="-12" type="curve" smooth="yes"/>
      <point x="275" y="-12"/>
      <point x="314" y="21"/>
      <point x="341" y="49" type="curve"/>
      <point x="345" y="24"/>
      <point x="349" y="10"/>
      <point x="356" y="-5" type="curve"/>
      <point x="427" y="5" type="line"/>
      <point x="414" y="40"/>
      <point x="412" y="66"/>
      <point x="412" y="93" type="curve" smooth="yes"/>
      <point x="412" y="126"/>
      <point x="417" y="152"/>
      <point x="424" y="185" type="curve" smooth="yes"/>
      <point x="567" y="776" type="line"/>
      <point x="487" y="762" type="line"/>
      <point x="430" y="529" type="line"/>
      <point x="420" y="529"/>
      <point x="403" y="530"/>
      <point x="393" y="530" type="curve" smooth="yes"/>
      <point x="158" y="530"/>
      <point x="59" y="327"/>
      <point x="59" y="152" type="curve" smooth="yes"/>
      <point x="59" y="80"/>
      <point x="102" y="-12"/>
    </contour>
    <contour>
      <point x="213" y="52" type="curve" smooth="yes"/>
      <point x="153" y="52"/>
      <point x="137" y="122"/>
      <point x="137" y="161" type="curve" smooth="yes"/>
      <point x="137" y="317"/>
      <point x="233" y="464"/>
      <point x="383" y="464" type="curve" smooth="yes"/>
      <point x="391" y="464"/>
      <point x="413" y="459"/>
      <point x="416" y="458" type="curve"/>
      <point x="351" y="199" type="line" smooth="yes"/>
      <point x="345" y="174"/>
      <point x="341" y="139"/>
      <point x="340" y="116" type="curve"/>
      <point x="313" y="82"/>
      <point x="269" y="52"/>
    </contour>
    <contour>
      <point x="586" y="561" type="line"/>
      <point x="639" y="561" type="line"/>
      <point x="718" y="776" type="line"/>
      <point x="639" y="776" type="line"/>
    </contour>
  </outline>
</glyph>
<glyph name="dcroat" format="2">
  <advance width="560"/>
  <unicode hex="0111"/>
  <outline>
    <contour>
      <point x="213" y="-12" type="curve" smooth="yes"/>
      <point x="284" y="-12"/>
      <point x="331" y="21"/>
      <point x="359" y="49" type="curve"/>
      <point x="364" y="24"/>
      <point x="368" y="10"/>
      <point x="375" y="-5" type="curve"/>
      <point x="445" y="5" type="line"/>
      <point x="432" y="40"/>
      <point x="429" y="66"/>
      <point x="429" y="93" type="curve" smooth="yes"/>
      <point x="429" y="126"/>
      <point x="437" y="152"/>
      <point x="442" y="185" type="curve" smooth="yes"/>
      <point x="548" y="619" type="line"/>
      <point x="622" y="619" type="line"/>
      <point x="637" y="681" type="line"/>
      <point x="562" y="681" type="line"/>
      <point x="586" y="776" type="line"/>
      <point x="505" y="762" type="line"/>
      <point x="485" y="681" type="line"/>
      <point x="289" y="681" type="line"/>
      <point x="273" y="619" type="line"/>
      <point x="472" y="619" type="line"/>
      <point x="448" y="529" type="line"/>
      <point x="436" y="529"/>
      <point x="417" y="530"/>
      <point x="405" y="530" type="curve" smooth="yes"/>
      <point x="161" y="530"/>
      <point x="53" y="340"/>
      <point x="53" y="168" type="curve" smooth="yes"/>
      <point x="53" y="65"/>
      <point x="100" y="-12"/>
    </contour>
    <contour>
      <point x="221" y="52" type="curve" smooth="yes"/>
      <point x="149" y="52"/>
      <point x="134" y="113"/>
      <point x="134" y="178" type="curve" smooth="yes"/>
      <point x="134" y="328"/>
      <point x="237" y="464"/>
      <point x="396" y="464" type="curve" smooth="yes"/>
      <point x="405" y="464"/>
      <point x="431" y="459"/>
      <point x="434" y="458" type="curve"/>
      <point x="369" y="199" type="line" smooth="yes"/>
      <point x="363" y="174"/>
      <point x="359" y="139"/>
      <point x="358" y="116" type="curve"/>
      <point x="328" y="82"/>
      <point x="279" y="52"/>
    </contour>
  </outline>
</glyph>
<glyph name="Eogonek" format="2">
  <advance width="560"/>
  <unicode hex="0118"/>
  <outline>
    <contour>
      <point x="407" y="-186" type="curve" smooth="yes"/>
      <point x="425" y="-186"/>
      <point x="440" y="-183"/>
      <point x="452" y="-176" type="curve"/>
      <point x="460" y="-120" type="line"/>
      <point x="447" y="-124"/>
      <point x="435" y="-126"/>
      <point x="424" y="-126" type="curve" smooth="yes"/>
      <point x="395" y="-126"/>
      <point x="384" y="-116"/>
      <point x="384" y="-102" type="curve" smooth="yes"/>
      <point x="384" y="-59"/>
      <point x="471" y="-6"/>
      <point x="492" y="0" type="curve"/>
      <point x="509" y="67" type="line"/>
      <point x="182" y="67" type="line"/>
      <point x="244" y="329" type="line"/>
      <point x="511" y="329" type="line"/>
      <point x="527" y="396" type="line"/>
      <point x="260" y="396" type="line"/>
      <point x="315" y="626" type="line"/>
      <point x="618" y="626" type="line"/>
      <point x="635" y="693" type="line"/>
      <point x="255" y="693" type="line"/>
      <point x="86" y="0" type="line"/>
      <point x="400" y="0" type="line"/>
      <point x="382" y="-14"/>
      <point x="310" y="-68"/>
      <point x="310" y="-122" type="curve" smooth="yes"/>
      <point x="310" y="-161"/>
      <point x="335" y="-186"/>
    </contour>
  </outline>
</glyph>
<glyph name="eogonek" format="2">
  <advance width="560"/>
  <unicode hex="0119"/>
  <outline>
    <contour>
      <point x="365" y="-187" type="curve" smooth="yes"/>
      <point x="388" y="-187"/>
      <point x="408" y="-183"/>
      <point x="422" y="-176" type="curve"/>
      <point x="430" y="-116" type="line"/>
      <point x="419" y="-120"/>
      <point x="403" y="-123"/>
      <point x="391" y="-123" type="curve" smooth="yes"/>
      <point x="364" y="-123"/>
      <point x="354" y="-114"/>
      <point x="354" y="-101" type="curve" smooth="yes"/>
      <point x="354" y="-74"/>
      <point x="381" y="-45"/>
      <point x="488" y="24" type="curve"/>
      <point x="480" y="102" type="line"/>
      <point x="463" y="90"/>
      <point x="386" y="67"/>
      <point x="323" y="67" type="curve" smooth="yes"/>
      <point x="227" y="67"/>
      <point x="161" y="108"/>
      <point x="170" y="202" type="curve"/>
      <point x="351" y="208"/>
      <point x="563" y="215"/>
      <point x="563" y="403" type="curve" smooth="yes"/>
      <point x="563" y="472"/>
      <point x="514" y="532"/>
      <point x="398" y="532" type="curve" smooth="yes"/>
      <point x="200" y="532"/>
      <point x="80" y="370"/>
      <point x="80" y="181" type="curve" smooth="yes"/>
      <point x="80" y="80"/>
      <point x="149" y="-13"/>
      <point x="295" y="-13" type="curve" smooth="yes"/>
      <point x="311" y="-13"/>
      <point x="328" y="-12"/>
      <point x="344" y="-11" type="curve"/>
      <point x="293" y="-52"/>
      <point x="265" y="-88"/>
      <point x="265" y="-124" type="curve" smooth="yes"/>
      <point x="265" y="-161"/>
      <point x="291" y="-187"/>
    </contour>
    <contour>
      <point x="181" y="273" type="curve"/>
      <point x="207" y="368"/>
      <point x="284" y="455"/>
      <point x="386" y="455" type="curve" smooth="yes"/>
      <point x="454" y="455"/>
      <point x="472" y="420"/>
      <point x="472" y="396" type="curve" smooth="yes"/>
      <point x="472" y="297"/>
      <point x="361" y="276"/>
    </contour>
  </outline>
</glyph>
<glyph name="hcircumflex" format="2">
  <advance width="560"/>
  <unicode hex="0125"/>
  <outline>
    <contour>
      <point x="50" y="0" type="line"/>
      <point x="127" y="0" type="line"/>
      <point x="237" y="443" type="line"/>
      <point x="267" y="455"/>
      <point x="297" y="459"/>
      <point x="333" y="459" type="curve" smooth="yes"/>
      <point x="422" y="459"/>
      <point x="449" y="418"/>
      <point x="449" y="359" type="curve" smooth="yes"/>
      <point x="449" y="321"/>
      <point x="435" y="275"/>
      <point x="425" y="234" type="curve" smooth="yes"/>
      <point x="370" y="0" type="line"/>
      <point x="448" y="0" type="line"/>
      <point x="509" y="254" type="line" smooth="yes"/>
      <point x="518" y="291"/>
      <point x="526" y="328"/>
      <point x="526" y="360" type="curve" smooth="yes"/>
      <point x="526" y="457"/>
      <point x="480" y="529"/>
      <point x="356" y="529" type="curve" smooth="yes"/>
      <point x="318" y="529"/>
      <point x="282" y="521"/>
      <point x="250" y="508" type="curve"/>
      <point x="315" y="775" type="line"/>
      <point x="233" y="761" type="line"/>
    </contour>
    <contour>
      <point x="464" y="791" type="line"/>
      <point x="479" y="824" type="line"/>
      <point x="328" y="981" type="line"/>
      <point x="134" y="835" type="line"/>
      <point x="206" y="741" type="line"/>
      <point x="383" y="858" type="line"/>
    </contour>
  </outline>
</glyph>
<glyph name="Hbar" format="2">
  <advance width="560"/>
  <unicode hex="0126"/>
  <outline>
    <contour>
      <point x="75" y="0" type="line"/>
      <point x="150" y="0" type="line"/>
      <point x="229" y="328" type="line"/>
      <point x="447" y="328" type="line"/>
      <point x="368" y="0" type="line"/>
      <point x="446" y="0" type="line"/>
      <point x="574" y="529" type="line"/>
      <point x="649" y="529" type="line"/>
      <point x="663" y="588" type="line"/>
      <point x="588" y="588" type="line"/>
      <point x="613" y="693" type="line"/>
      <point x="535" y="693" type="line"/>
      <point x="511" y="588" type="line"/>
      <point x="292" y="588" type="line"/>
      <point x="317" y="693" type="line"/>
      <point x="239" y="693" type="line"/>
      <point x="214" y="588" type="line"/>
      <point x="138" y="588" type="line"/>
      <point x="123" y="529" type="line"/>
      <point x="200" y="529" type="line"/>
    </contour>
    <contour>
      <point x="246" y="395" type="line"/>
      <point x="278" y="529" type="line"/>
      <point x="495" y="529" type="line"/>
      <point x="464" y="395" type="line"/>
    </contour>
  </outline>
</glyph>
<glyph name="hbar" format="2">
  <advance width="560"/>
  <unicode hex="0127"/>
  <outline>
    <contour>
      <point x="56" y="0" type="line"/>
      <point x="133" y="0" type="line"/>
      <point x="241" y="442" type="line"/>
      <point x="269" y="455"/>
      <point x="298" y="459"/>
      <point x="331" y="459" type="curve" smooth="yes"/>
      <point x="409" y="459"/>
      <point x="433" y="419"/>
      <point x="433" y="361" type="curve" smooth="yes"/>
      <point x="433" y="323"/>
      <point x="420" y="277"/>
      <point x="409" y="234" type="curve" smooth="yes"/>
      <point x="354" y="0" type="line"/>
      <point x="432" y="0" type="line"/>
      <point x="494" y="255" type="line" smooth="yes"/>
      <point x="504" y="293"/>
      <point x="510" y="330"/>
      <point x="510" y="362" type="curve" smooth="yes"/>
      <point x="510" y="462"/>
      <point x="464" y="530"/>
      <point x="350" y="530" type="curve" smooth="yes"/>
      <point x="320" y="530"/>
      <point x="288" y="521"/>
      <point x="255" y="509" type="curve"/>
      <point x="281" y="619" type="line"/>
      <point x="450" y="619" type="line"/>
      <point x="464" y="681" type="line"/>
      <point x="297" y="681" type="line"/>
      <point x="320" y="776" type="line"/>
      <point x="238" y="762" type="line"/>
      <point x="219" y="681" type="line"/>
      <point x="140" y="681" type="line"/>
      <point x="127" y="619" type="line"/>
      <point x="204" y="619" type="line"/>
    </contour>
  </outline>
</glyph>
<glyph name="Iogonek" format="2">
  <advance width="560"/>
  <unicode hex="012E"/>
  <outline>
    <contour>
      <point x="218" y="-186" type="curve" smooth="yes"/>
      <point x="238" y="-186"/>
      <point x="253" y="-183"/>
      <point x="263" y="-176" type="curve"/>
      <point x="271" y="-120" type="line"/>
      <point x="260" y="-124"/>
      <point x="247" y="-126"/>
      <point x="237" y="-126" type="curve" smooth="yes"/>
      <point x="207" y="-126"/>
      <point x="196" y="-116"/>
      <point x="196" y="-102" type="curve" smooth="yes"/>
      <point x="196" y="-70"/>
      <point x="233" y="-43"/>
      <point x="296" y="0" type="curve"/>
      <point x="427" y="0" type="line"/>
      <point x="444" y="67" type="line"/>
      <point x="314" y="67" type="line"/>
      <point x="450" y="626" type="line"/>
      <point x="578" y="626" type="line"/>
      <point x="594" y="693" type="line"/>
      <point x="258" y="693" type="line"/>
      <point x="242" y="626" type="line"/>
      <point x="370" y="626" type="line"/>
      <point x="236" y="67" type="line"/>
      <point x="109" y="67" type="line"/>
      <point x="92" y="0" type="line"/>
      <point x="213" y="0" type="line"/>
      <point x="194" y="-14"/>
      <point x="121" y="-68"/>
      <point x="121" y="-122" type="curve" smooth="yes"/>
      <point x="121" y="-161"/>
      <point x="146" y="-186"/>
    </contour>
  </outline>
</glyph>
<glyph name="iogonek" format="2">
  <advance width="560"/>
  <unicode hex="012F"/>
  <outline>
    <contour>
      <point x="374" y="-187" type="curve" smooth="yes"/>
      <point x="396" y="-187"/>
      <point x="417" y="-183"/>
      <point x="431" y="-176" type="curve"/>
      <point x="439" y="-116" type="line"/>
      <point x="428" y="-120"/>
      <point x="412" y="-123"/>
      <point x="400" y="-123" type="curve" smooth="yes"/>
      <point x="373" y="-123"/>
      <point x="363" y="-114"/>
      <point x="363" y="-101" type="curve" smooth="yes"/>
      <point x="363" y="-74"/>
      <point x="389" y="-47"/>
      <point x="472" y="7" type="curve"/>
      <point x="477" y="85" type="line"/>
      <point x="457" y="80"/>
      <point x="432" y="75"/>
      <point x="407" y="75" type="curve" smooth="yes"/>
      <point x="346" y="75"/>
      <point x="328" y="106"/>
      <point x="328" y="148" type="curve" smooth="yes"/>
      <point x="328" y="172"/>
      <point x="335" y="200"/>
      <point x="342" y="230" type="curve" smooth="yes"/>
      <point x="410" y="520" type="line"/>
      <point x="168" y="520" type="line"/>
      <point x="150" y="442" type="line"/>
      <point x="300" y="442" type="line"/>
      <point x="250" y="237" type="line" smooth="yes"/>
      <point x="241" y="203"/>
      <point x="236" y="170"/>
      <point x="236" y="139" type="curve" smooth="yes"/>
      <point x="236" y="64"/>
      <point x="269" y="3"/>
      <point x="365" y="-2" type="curve"/>
      <point x="334" y="-26"/>
      <point x="274" y="-73"/>
      <point x="274" y="-124" type="curve" smooth="yes"/>
      <point x="274" y="-161"/>
      <point x="300" y="-187"/>
    </contour>
    <contour>
      <point x="370" y="600" type="curve" smooth="yes"/>
      <point x="408" y="600"/>
      <point x="450" y="633"/>
      <point x="450" y="682" type="curve" smooth="yes"/>
      <point x="450" y="726"/>
      <point x="420" y="750"/>
      <point x="382" y="750" type="curve" smooth="yes"/>
      <point x="342" y="750"/>
      <point x="302" y="718"/>
      <point x="302" y="666" type="curve" smooth="yes"/>
      <point x="302" y="624"/>
      <point x="330" y="600"/>
    </contour>
  </outline>
</glyph>
<glyph name="idotless" format="2">
  <advance width="560"/>
  <unicode hex="0131"/>
  <outline>
    <contour>
      <point x="347" y="0" type="curve" smooth="yes"/>
      <point x="401" y="0"/>
      <point x="420" y="7"/>
      <point x="417" y="5" type="curve"/>
      <point x="425" y="72" type="line"/>
      <point x="411" y="70"/>
      <point x="389" y="65"/>
      <point x="364" y="65" type="curve" smooth="yes"/>
      <point x="297" y="65"/>
      <point x="279" y="100"/>
      <point x="279" y="143" type="curve" smooth="yes"/>
      <point x="279" y="171"/>
      <point x="286" y="203"/>
      <point x="295" y="238" type="curve" smooth="yes"/>
      <point x="360" y="518" type="line"/>
      <point x="131" y="518" type="line"/>
      <point x="116" y="451" type="line"/>
      <point x="267" y="451" type="line"/>
      <point x="216" y="242" type="line" smooth="yes"/>
      <point x="208" y="207"/>
      <point x="201" y="173"/>
      <point x="201" y="140" type="curve" smooth="yes"/>
      <point x="201" y="64"/>
      <point x="234" y="0"/>
    </contour>
  </outline>
</glyph>
<glyph name="IJ" format="2">
  <advance width="560"/>
  <unicode hex="0132"/>
  <outline>
    <contour>
      <point x="318" y="-15" type="curve" smooth="yes"/>
      <point x="448" y="-15"/>
      <point x="513" y="46"/>
      <point x="548" y="192" type="curve" smooth="yes"/>
      <point x="669" y="693" type="line"/>
      <point x="576" y="693" type="line"/>
      <point x="456" y="193" type="line" smooth="yes"/>
      <point x="435" y="103"/>
      <point x="394" y="65"/>
      <point x="336" y="65" type="curve" smooth="yes"/>
      <point x="286" y="65"/>
      <point x="258" y="88"/>
      <point x="239" y="116" type="curve"/>
      <point x="183" y="41" type="line"/>
      <point x="215" y="4"/>
      <point x="265" y="-15"/>
    </contour>
    <contour>
      <point x="24" y="0" type="line"/>
      <point x="114" y="0" type="line"/>
      <point x="280" y="693" type="line"/>
      <point x="188" y="693" type="line"/>
    </contour>
  </outline>
</glyph>
<glyph name="ij" format="2">
  <advance width="560"/>
  <unicode hex="0133"/>
  <outline>
    <contour>
      <point x="220" y="-188" type="curve" smooth="yes"/>
      <point x="351" y="-188"/>
      <point x="398" y="-129"/>
      <point x="433" y="20" type="curve" smooth="yes"/>
      <point x="553" y="520" type="line"/>
      <point x="461" y="520" type="line"/>
      <point x="342" y="19" type="line" smooth="yes"/>
      <point x="323" y="-57"/>
      <point x="295" y="-108"/>
      <point x="234" y="-108" type="curve" smooth="yes"/>
      <point x="207" y="-108"/>
      <point x="184" y="-102"/>
      <point x="169" y="-93" type="curve"/>
      <point x="148" y="-170" type="line"/>
      <point x="164" y="-181"/>
      <point x="197" y="-188"/>
    </contour>
    <contour>
      <point x="108" y="0" type="line"/>
      <point x="200" y="0" type="line"/>
      <point x="325" y="520" type="line"/>
      <point x="233" y="520" type="line"/>
    </contour>
    <contour>
      <point x="307" y="607" type="curve" smooth="yes"/>
      <point x="343" y="607"/>
      <point x="381" y="637"/>
      <point x="381" y="682" type="curve" smooth="yes"/>
      <point x="381" y="721"/>
      <point x="355" y="743"/>
      <point x="320" y="743" type="curve" smooth="yes"/>
      <point x="283" y="743"/>
      <point x="248" y="715"/>
      <point x="248" y="666" type="curve" smooth="yes"/>
      <point x="248" y="629"/>
      <point x="272" y="607"/>
    </contour>
    <contour>
      <point x="535" y="607" type="curve" smooth="yes"/>
      <point x="571" y="607"/>
      <point x="609" y="637"/>
      <point x="609" y="682" type="curve" smooth="yes"/>
      <point x="609" y="721"/>
      <point x="584" y="743"/>
      <point x="548" y="743" type="curve" smooth="yes"/>
      <point x="511" y="743"/>
      <point x="475" y="715"/>
      <point x="475" y="666" type="curve" smooth="yes"/>
      <point x="475" y="629"/>
      <point x="501" y="607"/>
    </contour>
  </outline>
</glyph>
<glyph name="kgreenlandic" format="2">
  <advance width="560"/>
  <unicode hex="0138"/>
  <outline>
    <contour>
      <point x="74" y="0" type="line"/>
      <point x="151" y="0" type="line"/>
      <point x="215" y="262" type="line"/>
      <point x="295" y="204"/>
      <point x="367" y="118"/>
      <point x="414" y="0" type="curve"/>
      <point x="510" y="0" type="line"/>
      <point x="471" y="107"/>
      <point x="378" y="221"/>
      <point x="300" y="281" type="curve"/>
      <point x="377" y="334"/>
      <point x="544" y="453"/>
      <point x="603" y="518" type="curve"/>
      <point x="508" y="518" type="line"/>
      <point x="439" y="457"/>
      <point x="324" y="374"/>
      <point x="224" y="303" type="curve"/>
      <point x="276" y="518" type="line"/>
      <point x="197" y="518" type="line"/>
    </contour>
  </outline>
</glyph>
<glyph name="Lslash" format="2">
  <advance width="560"/>
  <unicode hex="0141"/>
  <outline>
    <contour>
      <point x="68" y="0" type="line"/>
      <point x="444" y="0" type="line"/>
      <point x="462" y="67" type="line"/>
      <point x="163" y="67" type="line"/>
      <point x="223" y="317" type="line"/>
      <point x="393" y="398" type="line"/>
      <point x="380" y="458" type="line"/>
      <point x="240" y="391" type="line"/>
      <point x="313" y="693" type="line"/>
      <point x="235" y="693" type="line"/>
      <point x="154" y="360" type="line"/>
      <point x="49" y="310" type="line"/>
      <point x="63" y="250" type="line"/>
      <point x="136" y="285" type="line"/>
    </contour>
  </outline>
</glyph>
<glyph name="lslash" format="2">
  <advance width="560"/>
  <unicode hex="0142"/>
  <outline>
    <contour>
      <point x="363" y="-12" type="curve" smooth="yes"/>
      <point x="424" y="-12"/>
      <point x="476" y="4"/>
      <point x="496" y="17" type="curve"/>
      <point x="489" y="95" type="line"/>
      <point x="469" y="84"/>
      <point x="428" y="66"/>
      <point x="389" y="66" type="curve" smooth="yes"/>
      <point x="333" y="66"/>
      <point x="315" y="86"/>
      <point x="315" y="130" type="curve" smooth="yes"/>
      <point x="315" y="153"/>
      <point x="320" y="181"/>
      <point x="327" y="212" type="curve" smooth="yes"/>
      <point x="367" y="381" type="line"/>
      <point x="482" y="435" type="line"/>
      <point x="465" y="504" type="line"/>
      <point x="388" y="468" type="line"/>
      <point x="461" y="771" type="line"/>
      <point x="220" y="771" type="line"/>
      <point x="200" y="692" type="line"/>
      <point x="351" y="692" type="line"/>
      <point x="287" y="428" type="line"/>
      <point x="179" y="377" type="line"/>
      <point x="195" y="308" type="line"/>
      <point x="267" y="342" type="line"/>
      <point x="237" y="220" type="line" smooth="yes"/>
      <point x="227" y="179"/>
      <point x="223" y="144"/>
      <point x="223" y="115" type="curve" smooth="yes"/>
      <point x="223" y="31"/>
      <point x="264" y="-12"/>
    </contour>
  </outline>
</glyph>
<glyph name="Eng" format="2">
  <advance width="560"/>
  <unicode hex="014A"/>
  <anchor x="218" y="0" name="bottom"/>
  <anchor x="382" y="685" name="top"/>
  <outline>
    <contour>
      <point x="253" y="-187" type="curve" smooth="yes"/>
      <point x="375" y="-187"/>
      <point x="406" y="-125"/>
      <point x="436" y="-6" type="curve" smooth="yes"/>
      <point x="604" y="693" type="line"/>
      <point x="531" y="693" type="line"/>
      <point x="403" y="165" type="line"/>
      <point x="359" y="387"/>
      <point x="339" y="442"/>
      <point x="262" y="693" type="curve"/>
      <point x="175" y="693" type="line"/>
      <point x="8" y="0" type="line"/>
      <point x="80" y="0" type="line"/>
      <point x="218" y="583" type="line"/>
      <point x="263" y="425"/>
      <point x="309" y="302"/>
      <point x="368" y="20" type="curve"/>
      <point x="358" y="-24" type="line" smooth="yes"/>
      <point x="343" y="-88"/>
      <point x="322" y="-124"/>
      <point x="273" y="-124" type="curve" smooth="yes"/>
      <point x="256" y="-124"/>
      <point x="240" y="-122"/>
      <point x="236" y="-120" type="curve"/>
      <point x="212" y="-183" type="line"/>
      <point x="220" y="-184"/>
      <point x="240" y="-187"/>
    </contour>
  </outline>
</glyph>
<glyph name="eng" format="2">
  <advance width="560"/>
  <unicode hex="014B"/>
  <outline>
    <contour>
      <point x="257" y="-187" type="curve" smooth="yes"/>
      <point x="347" y="-187"/>
      <point x="403" y="-126"/>
      <point x="429" y="-14" type="curve" smooth="yes"/>
      <point x="494" y="258" type="line" smooth="yes"/>
      <point x="503" y="297"/>
      <point x="510" y="333"/>
      <point x="510" y="367" type="curve" smooth="yes"/>
      <point x="510" y="461"/>
      <point x="463" y="529"/>
      <point x="341" y="529" type="curve" smooth="yes"/>
      <point x="293" y="529"/>
      <point x="217" y="518"/>
      <point x="154" y="498" type="curve"/>
      <point x="36" y="0" type="line"/>
      <point x="113" y="0" type="line"/>
      <point x="221" y="447" type="line"/>
      <point x="241" y="455"/>
      <point x="280" y="459"/>
      <point x="317" y="459" type="curve" smooth="yes"/>
      <point x="411" y="459"/>
      <point x="433" y="412"/>
      <point x="433" y="353" type="curve" smooth="yes"/>
      <point x="433" y="315"/>
      <point x="419" y="272"/>
      <point x="410" y="236" type="curve" smooth="yes"/>
      <point x="351" y="-11" type="line" smooth="yes"/>
      <point x="335" y="-76"/>
      <point x="319" y="-124"/>
      <point x="252" y="-124" type="curve" smooth="yes"/>
      <point x="243" y="-124"/>
      <point x="227" y="-124"/>
      <point x="212" y="-120" type="curve"/>
      <point x="189" y="-182" type="line"/>
      <point x="217" y="-187"/>
      <point x="237" y="-187"/>
    </contour>
  </outline>
</glyph>
<glyph name="OE" format="2">
  <advance width="560"/>
  <unicode hex="0152"/>
  <outline>
    <contour>
      <point x="224" y="-7" type="curve" smooth="yes"/>
      <point x="244" y="-7"/>
      <point x="266" y="-4"/>
      <point x="289" y="0" type="curve"/>
      <point x="518" y="0" type="line"/>
      <point x="535" y="67" type="line"/>
      <point x="372" y="67" type="line"/>
      <point x="434" y="329" type="line"/>
      <point x="556" y="329" type="line"/>
      <point x="573" y="396" type="line"/>
      <point x="451" y="396" type="line"/>
      <point x="506" y="626" type="line"/>
      <point x="654" y="626" type="line"/>
      <point x="670" y="693" type="line"/>
      <point x="456" y="693" type="line"/>
      <point x="436" y="697"/>
      <point x="414" y="700"/>
      <point x="398" y="700" type="curve" smooth="yes"/>
      <point x="174" y="700"/>
      <point x="70" y="411"/>
      <point x="70" y="211" type="curve" smooth="yes"/>
      <point x="70" y="88"/>
      <point x="113" y="-7"/>
    </contour>
    <contour>
      <point x="242" y="62" type="curve" smooth="yes"/>
      <point x="181" y="62"/>
      <point x="153" y="126"/>
      <point x="153" y="216" type="curve" smooth="yes"/>
      <point x="153" y="398"/>
      <point x="229" y="631"/>
      <point x="378" y="631" type="curve" smooth="yes"/>
      <point x="393" y="631"/>
      <point x="408" y="628"/>
      <point x="427" y="624" type="curve"/>
      <point x="296" y="71" type="line"/>
      <point x="294" y="70"/>
      <point x="276" y="62"/>
    </contour>
  </outline>
</glyph>
<glyph name="oe" format="2">
  <advance width="560"/>
  <unicode hex="0153"/>
  <outline>
    <contour>
      <point x="181" y="-13" type="curve" smooth="yes"/>
      <point x="237" y="-13"/>
      <point x="287" y="18"/>
      <point x="318" y="77" type="curve"/>
      <point x="326" y="27"/>
      <point x="371" y="-13"/>
      <point x="419" y="-13" type="curve" smooth="yes"/>
      <point x="456" y="-13"/>
      <point x="501" y="1"/>
      <point x="531" y="24" type="curve"/>
      <point x="522" y="95" type="line"/>
      <point x="492" y="78"/>
      <point x="464" y="69"/>
      <point x="441" y="69" type="curve" smooth="yes"/>
      <point x="400" y="69"/>
      <point x="385" y="102"/>
      <point x="385" y="172" type="curve" smooth="yes"/>
      <point x="385" y="188"/>
      <point x="386" y="196"/>
      <point x="388" y="202" type="curve"/>
      <point x="554" y="220"/>
      <point x="620" y="324"/>
      <point x="620" y="416" type="curve" smooth="yes"/>
      <point x="620" y="496"/>
      <point x="576" y="532"/>
      <point x="524" y="532" type="curve" smooth="yes"/>
      <point x="463" y="532"/>
      <point x="421" y="503"/>
      <point x="386" y="454" type="curve"/>
      <point x="372" y="487"/>
      <point x="351" y="532"/>
      <point x="284" y="532" type="curve" smooth="yes"/>
      <point x="142" y="532"/>
      <point x="62" y="336"/>
      <point x="62" y="168" type="curve" smooth="yes"/>
      <point x="62" y="58"/>
      <point x="97" y="-13"/>
    </contour>
    <contour>
      <point x="193" y="66" type="curve" smooth="yes"/>
      <point x="170" y="66"/>
      <point x="155" y="99"/>
      <point x="155" y="144" type="curve" smooth="yes"/>
      <point x="155" y="351"/>
      <point x="226" y="455"/>
      <point x="273" y="455" type="curve" smooth="yes"/>
      <point x="296" y="455"/>
      <point x="312" y="422"/>
      <point x="312" y="377" type="curve" smooth="yes"/>
      <point x="312" y="171"/>
      <point x="240" y="66"/>
    </contour>
    <contour>
      <point x="396" y="279" type="curve"/>
      <point x="418" y="396"/>
      <point x="463" y="454"/>
      <point x="497" y="454" type="curve" smooth="yes"/>
      <point x="517" y="454"/>
      <point x="532" y="436"/>
      <point x="532" y="399" type="curve" smooth="yes"/>
      <point x="532" y="345"/>
      <point x="496" y="283"/>
    </contour>
  </outline>
</glyph>
